<svg xmlns="http://www.w3.org/2000/svg" width="400" height="221" viewBox="0 0 400 221">
  <g id="Grupo_1003492" data-name="Grupo 1003492" transform="translate(-180 -15122)">
    <path id="Rect치ngulo_346698" data-name="Rect치ngulo 346698" d="M0,0H291A109,109,0,0,1,400,109v64a0,0,0,0,1,0,0H0a0,0,0,0,1,0,0V0A0,0,0,0,1,0,0Z" transform="translate(180 15170)" fill="#4db1f0" opacity="0.15"/>
    <g id="Grupo_1002921" data-name="Grupo 1002921" transform="translate(-113.795 15099.226)">
      <path id="Trazado_712215" data-name="Trazado 712215" d="M598.86,131.454c-6.01-3.47-13.71-5.342-21.55-5.648,15.26-16.963,10.512-38.414-14.183-52.671-30.422-17.562-79.579-17.562-109.8,0-1.115.648-2.176,1.312-3.206,1.989-25.8-3.883-54.309-.025-74.436,11.674-30.221,17.562-30.06,46.038.36,63.595s79.574,17.564,109.793,0c1.113-.648,2.174-1.312,3.206-1.986a130.768,130.768,0,0,0,52.459-2.748c.206,4.851,3.49,9.67,9.9,13.37,13.187,7.617,34.5,7.617,47.606,0S612.049,139.068,598.86,131.454Z" transform="translate(0 45.902)" fill="#4db1f0" opacity="0.24"/>
      <g id="Grupo_1002831" data-name="Grupo 1002831" transform="translate(470.695 22.774)">
        <path id="Trazado_712216" data-name="Trazado 712216" d="M499.872,132.1H500l-1.019-2.085q-.057-.124-.114-.241L471.921,74.721h0V29.11h-37.21V74.721l-26.568,54.264a20.242,20.242,0,0,0-1.046,2.134l-.3.605h.047c-3.34,8.893.945,18.56,12.921,25.475,18.654,10.767,48.788,10.765,67.322,0C498.82,150.381,503.058,140.881,499.872,132.1Z" transform="translate(-405.746 -14.954)" fill="#d2e6fe"/>
        <path id="Trazado_712217" data-name="Trazado 712217" d="M499.872,132.1H500l-1.019-2.085q-.057-.124-.114-.241L471.921,74.721h0V29.11h-37.21V74.721l-26.568,54.264a20.242,20.242,0,0,0-1.046,2.134l-.3.605h.047c-3.34,8.893.945,18.56,12.921,25.475,18.654,10.767,48.788,10.765,67.322,0C498.82,150.381,503.058,140.881,499.872,132.1Z" transform="translate(-405.746 -14.954)" fill="#d2e6fe"/>
        <path id="Trazado_712218" data-name="Trazado 712218" d="M499.872,132.1H500l-1.019-2.085q-.057-.124-.114-.241L471.921,74.721h0V29.11h-37.21V74.721l-26.568,54.264a20.242,20.242,0,0,0-1.046,2.134l-.3.605h.047c-3.34,8.893.945,18.56,12.921,25.475,18.654,10.767,48.788,10.765,67.322,0C498.82,150.381,503.058,140.881,499.872,132.1Z" transform="translate(-405.746 -14.954)" fill="#defdff"/>
        <path id="Trazado_712219" data-name="Trazado 712219" d="M487.679,129.084h.1l-.7-1.448c-.089-.194-.176-.384-.279-.574l-22.848-51.65h0l.2-46.958-29.745.436-.221,46.523L411.09,126a17.232,17.232,0,0,0-1.282,2.677l-.045.1h.011c-2.793,7.579.815,15.828,10.841,21.724,15.609,9.187,40.836,9.187,56.351,0C486.788,144.683,490.347,136.58,487.679,129.084Z" transform="translate(-401.903 -15.765)" fill="#3484ff"/>
        <g id="Grupo_1002825" data-name="Grupo 1002825" transform="translate(28.959 4.323)">
          <path id="Trazado_712220" data-name="Trazado 712220" d="M450.427,27.868c7.3,4.207,7.333,11.031.089,15.242s-19.021,4.207-26.316,0-7.331-11.035-.087-15.245S443.143,23.656,450.427,27.868Z" transform="translate(-418.707 -24.709)" fill="#8bc3de"/>
        </g>
        <path id="Trazado_712221" data-name="Trazado 712221" d="M493.879,90.869h0l-.018-.034a17.915,17.915,0,0,0-1.776-3.255l-14.3-26.159H424.607l-15.068,27.3c-.141.248-.284.492-.411.746l-.029.051h0c-4.192,8.285-.431,17.577,11.268,24.1,17.153,9.572,44.871,9.567,61.915,0C493.278,107.452,497.134,98.8,493.879,90.869Z" transform="translate(-403.654 24.927)" fill="#4e93f9"/>
        <g id="Grupo_1002826" data-name="Grupo 1002826" transform="translate(20.059 74.887)">
          <path id="Trazado_712222" data-name="Trazado 712222" d="M461.622,60.8c10.772,6.012,10.832,15.756.123,21.769s-28.116,6.01-38.9,0-10.834-15.763-.125-21.769S450.842,54.789,461.622,60.8Z" transform="translate(-414.724 -56.291)" fill="#8dd5ff"/>
        </g>
        <path id="Trazado_712223" data-name="Trazado 712223" d="M419.758,157.2c.769.445,1.591.842,2.4,1.253l30.378-83.509.748-45.834H437.74l.279,45.49-32.254,62.361C405.457,144.261,410.1,151.623,419.758,157.2Z" transform="translate(-405.741 -14.954)" fill="#fff" opacity="0.1"/>
        <g id="Grupo_1002829" data-name="Grupo 1002829" transform="translate(26.353)">
          <g id="Grupo_1002827" data-name="Grupo 1002827" transform="translate(0.003)">
            <path id="Trazado_712224" data-name="Trazado 712224" d="M453.63,26.485c8.017,4.822,7.737,12.51-.614,17.168s-21.628,4.527-29.64-.3-7.737-12.508.619-17.168S445.613,21.659,453.63,26.485Z" transform="translate(-417.542 -22.774)" fill="#9ff8ff"/>
            <path id="Trazado_712225" data-name="Trazado 712225" d="M436.823,42.522a27.1,27.1,0,0,1-13.553-3.291c-2.882-1.734-4.453-3.847-4.419-5.961.038-2.17,1.846-4.415,4.951-6.147a27.548,27.548,0,0,1,13.153-3.041,27.1,27.1,0,0,1,13.553,3.291c2.884,1.736,4.46,3.854,4.417,5.959-.034,2.176-1.832,4.419-4.942,6.151A27.536,27.536,0,0,1,436.823,42.522Z" transform="translate(-415.928 -21.16)" fill="#2bb4da"/>
            <path id="Trazado_712226" data-name="Trazado 712226" d="M423.8,29.695a27.5,27.5,0,0,1,13.153-3.039,27.1,27.1,0,0,1,13.553,3.289c2.254,1.361,3.7,2.952,4.2,4.587a4.172,4.172,0,0,0,.217-1.2c.042-2.1-1.533-4.223-4.417-5.959a27.1,27.1,0,0,0-13.553-3.291A27.548,27.548,0,0,0,423.8,27.123c-3.106,1.732-4.913,3.977-4.951,6.147a4.374,4.374,0,0,0,.219,1.376C419.614,32.867,421.266,31.109,423.8,29.695Z" transform="translate(-415.928 -21.16)" fill="#1c9cba"/>
          </g>
          <g id="Grupo_1002828" data-name="Grupo 1002828" transform="translate(0 12.082)">
            <path id="Trazado_712227" data-name="Trazado 712227" d="M417.557,34.226l-.016-5.923c.009,3.014,1.946,6.03,5.836,8.372,8.012,4.831,21.286,4.96,29.64.3,4.3-2.4,6.459-5.6,6.45-8.8l.013,5.921c.009,3.2-2.145,6.4-6.448,8.8-8.35,4.659-21.626,4.524-29.638-.3C419.507,40.254,417.566,37.24,417.557,34.226Z" transform="translate(-417.541 -28.182)" fill="#65e0f6"/>
          </g>
        </g>
        <g id="Grupo_1002830" data-name="Grupo 1002830" transform="translate(20.179 89.005)">
          <path id="Trazado_712228" data-name="Trazado 712228" d="M430.333,77.276c-3.546,4.795-9.3,6.54-12.865,3.908s-3.593-8.656-.047-13.444,9.292-6.538,12.863-3.9S433.872,72.49,430.333,77.276Z" transform="translate(-414.778 -62.61)" fill="#fff" opacity="0.5"/>
          <path id="Trazado_712229" data-name="Trazado 712229" d="M424.3,79.468c-1.012,2.607-3.47,4.08-5.483,3.3s-2.824-3.532-1.8-6.138,3.47-4.082,5.487-3.3S425.328,76.863,424.3,79.468Z" transform="translate(-412.557 -49.638)" fill="#fff" opacity="0.5"/>
        </g>
      </g>
      <g id="Grupo_1002836" data-name="Grupo 1002836" transform="translate(372.079 40.957)">
        <path id="Trazado_712230" data-name="Trazado 712230" d="M422.811,86.966V35.157H390.226V86.97a44.915,44.915,0,1,0,32.585,0Z" transform="translate(-361.609 -25.673)" fill="#4ed3f3"/>
        <path id="Trazado_712231" data-name="Trazado 712231" d="M422.811,86.966V35.157H390.226V86.97a44.915,44.915,0,1,0,32.585,0Z" transform="translate(-361.609 -25.673)" fill="#defdff"/>
        <path id="Trazado_712232" data-name="Trazado 712232" d="M441.445,98.385c0,21.635-17.211,39.172-38.432,39.172s-38.43-17.537-38.43-39.172,17.206-39.172,38.43-39.172S441.445,76.754,441.445,98.385Z" transform="translate(-357.938 4.019)" fill="#3484ff"/>
        <rect id="Rect치ngulo_346699" data-name="Rect치ngulo 346699" width="23.621" height="61.249" transform="translate(32.893 15.535)" fill="#3484ff"/>
        <path id="Trazado_712233" data-name="Trazado 712233" d="M436.716,67.248a17.5,17.5,0,0,1-8.093,20.1c-13.482,7.572-35.416,7.576-48.994,0-8.72-4.864-10.975-13.5-8.537-19.751-4.078,6.028-7.346,15.052-7.346,22.774,0,21.277,17.975,38.53,40.146,38.53s40.137-15.991,40.137-38.53C444.029,83.013,440.443,73.1,436.716,67.248Z" transform="translate(-358.971 13.937)" fill="#4e93f9"/>
        <path id="Trazado_712234" data-name="Trazado 712234" d="M376.5,94.528c13.578,7.576,35.512,7.572,48.994,0,8.269-4.638,11.431-11.049,9.529-17.059-1.2-3.774-4.4-7.393-9.619-10.318a.276.276,0,0,0-.067-.038c-13.573-7.576-35.519-7.576-49,0-.252.141-.492.29-.742.436-4.395,2.625-7.232,5.767-8.515,9.067C364.642,82.863,367.782,89.664,376.5,94.528Z" transform="translate(-355.844 6.756)" fill="#8dd5ff"/>
        <g id="Grupo_1002834" data-name="Grupo 1002834" transform="translate(26.438)">
          <g id="Grupo_1002832" data-name="Grupo 1002832" transform="translate(0.007)">
            <path id="Trazado_712235" data-name="Trazado 712235" d="M405.239,34.178c7.056,4.252,6.817,11.024-.55,15.126s-19.047,3.986-26.105-.266-6.817-11.02.541-15.126S398.172,29.931,405.239,34.178Z" transform="translate(-373.445 -30.912)" fill="#9ff8ff"/>
            <path id="Trazado_712236" data-name="Trazado 712236" d="M390.432,48.306a23.9,23.9,0,0,1-11.942-2.9c-2.538-1.53-3.921-3.392-3.892-5.246.034-1.917,1.624-3.894,4.361-5.416a24.248,24.248,0,0,1,11.589-2.681,23.878,23.878,0,0,1,11.933,2.893c2.543,1.533,3.932,3.4,3.9,5.255-.031,1.915-1.616,3.892-4.357,5.418A24.261,24.261,0,0,1,390.432,48.306Z" transform="translate(-372.024 -29.49)" fill="#2bb4da"/>
            <path id="Trazado_712237" data-name="Trazado 712237" d="M378.959,37.007a24.222,24.222,0,0,1,11.589-2.674,23.855,23.855,0,0,1,11.933,2.9,7.813,7.813,0,0,1,3.707,4.042,3.966,3.966,0,0,0,.19-1.057c.036-1.854-1.354-3.722-3.9-5.255a23.878,23.878,0,0,0-11.933-2.893,24.248,24.248,0,0,0-11.589,2.681c-2.737,1.522-4.328,3.5-4.361,5.416a3.981,3.981,0,0,0,.19,1.209C375.267,39.8,376.724,38.254,378.959,37.007Z" transform="translate(-372.023 -29.49)" fill="#1c9cba"/>
          </g>
          <g id="Grupo_1002833" data-name="Grupo 1002833" transform="translate(0 10.641)">
            <path id="Trazado_712238" data-name="Trazado 712238" d="M373.46,41l-.018-5.219c.009,2.654,1.714,5.313,5.146,7.375,7.058,4.252,18.752,4.368,26.105.266,3.792-2.111,5.693-4.933,5.686-7.751l.016,5.217c0,2.817-1.895,5.639-5.686,7.751-7.349,4.1-19.045,3.984-26.1-.264C375.174,46.317,373.473,43.658,373.46,41Z" transform="translate(-373.442 -35.675)" fill="#65e0f6"/>
          </g>
        </g>
        <g id="Grupo_1002835" data-name="Grupo 1002835" transform="translate(18.328 86.101)">
          <path id="Trazado_712239" data-name="Trazado 712239" d="M385.678,84.41c-3.613,4.886-9.489,6.667-13.124,3.982s-3.66-8.828-.045-13.712,9.48-6.667,13.12-3.979S389.29,79.526,385.678,84.41Z" transform="translate(-369.812 -69.449)" fill="#fff" opacity="0.5"/>
          <path id="Trazado_712240" data-name="Trazado 712240" d="M379.533,86.643c-1.035,2.657-3.546,4.165-5.592,3.367s-2.885-3.606-1.841-6.263c1.028-2.659,3.541-4.167,5.595-3.363S380.571,83.982,379.533,86.643Z" transform="translate(-367.546 -56.218)" fill="#fff" opacity="0.5"/>
        </g>
      </g>
      <g id="Grupo_1002907" data-name="Grupo 1002907" transform="translate(513.391 43.821)">
        <g id="Grupo_1002906" data-name="Grupo 1002906" style="isolation: isolate">
          <g id="Grupo_1002837" data-name="Grupo 1002837" transform="translate(75.167 137.494)">
            <path id="Trazado_712241" data-name="Trazado 712241" d="M460.7,93.732l-2.206.074,1.181,3.231,2.206-.072Z" transform="translate(-458.498 -93.732)" fill="#a2c4c5"/>
          </g>
          <g id="Grupo_1002838" data-name="Grupo 1002838" transform="translate(74.862 140.728)">
            <path id="Trazado_712242" data-name="Trazado 712242" d="M462.053,95.18l-2.206.072-1.486.855,2.206-.07Z" transform="translate(-458.361 -95.18)" fill="#9fc0c1"/>
          </g>
          <g id="Grupo_1002839" data-name="Grupo 1002839" transform="translate(74.862 141.586)">
            <path id="Trazado_712243" data-name="Trazado 712243" d="M460.567,95.563l-2.206.07,1.447,3.98,2.212-.074Z" transform="translate(-458.361 -95.563)" fill="#147f91"/>
          </g>
          <g id="Grupo_1002840" data-name="Grupo 1002840" transform="translate(73.684 137.494)">
            <path id="Trazado_712244" data-name="Trazado 712244" d="M461.524,93.732l-2.206.074-1.484.853,2.206-.07Z" transform="translate(-457.834 -93.732)" fill="#9fc0c1"/>
          </g>
          <g id="Grupo_1002841" data-name="Grupo 1002841" transform="translate(68.68 119.679)">
            <path id="Trazado_712245" data-name="Trazado 712245" d="M457.8,85.759l-2.2.072,1.183,3.249,2.2-.072Z" transform="translate(-455.595 -85.759)" fill="#a2c4c5"/>
          </g>
          <g id="Grupo_1002842" data-name="Grupo 1002842" transform="translate(68.38 122.928)">
            <path id="Trazado_712246" data-name="Trazado 712246" d="M459.147,87.213l-2.2.072-1.484.855,2.206-.072Z" transform="translate(-455.46 -87.213)" fill="#9fc0c1"/>
          </g>
          <g id="Grupo_1002843" data-name="Grupo 1002843" transform="translate(68.38 123.783)">
            <path id="Trazado_712247" data-name="Trazado 712247" d="M457.666,87.6l-2.206.072,5.3,14.567,2.206-.07Z" transform="translate(-455.46 -87.596)" fill="#147f91"/>
          </g>
          <g id="Grupo_1002844" data-name="Grupo 1002844" transform="translate(67.192 119.679)">
            <path id="Trazado_712248" data-name="Trazado 712248" d="M458.621,85.759l-2.2.072-1.488.858,2.21-.07Z" transform="translate(-454.929 -85.759)" fill="#9fc0c1"/>
          </g>
          <g id="Grupo_1002845" data-name="Grupo 1002845" transform="translate(61.016 98.645)">
            <path id="Trazado_712249" data-name="Trazado 712249" d="M454.374,76.345l-2.21.07,1.183,3.236,2.206-.072Z" transform="translate(-452.164 -76.345)" fill="#a2c4c5"/>
          </g>
          <g id="Grupo_1002846" data-name="Grupo 1002846" transform="translate(60.714 102.734)">
            <path id="Trazado_712250" data-name="Trazado 712250" d="M454.235,78.175l-2.206.072,6.478,17.8,2.21-.07Z" transform="translate(-452.029 -78.175)" fill="#147f91"/>
          </g>
          <g id="Grupo_1002847" data-name="Grupo 1002847" transform="translate(60.714 101.879)">
            <path id="Trazado_712251" data-name="Trazado 712251" d="M455.719,77.792l-2.206.072-1.484.855,2.206-.072Z" transform="translate(-452.029 -77.792)" fill="#9fc0c1"/>
          </g>
          <g id="Grupo_1002848" data-name="Grupo 1002848" transform="translate(59.536 98.645)">
            <path id="Trazado_712252" data-name="Trazado 712252" d="M455.191,76.345l-2.21.07-1.479.855,2.206-.068Z" transform="translate(-451.502 -76.345)" fill="#9fc0c1"/>
          </g>
          <g id="Grupo_1002849" data-name="Grupo 1002849" transform="translate(50.998 71.129)">
            <path id="Trazado_712253" data-name="Trazado 712253" d="M449.88,64.029l-2.2.068,1.174,3.236,2.21-.072Z" transform="translate(-447.681 -64.029)" fill="#a2c4c5"/>
          </g>
          <g id="Grupo_1002850" data-name="Grupo 1002850" transform="translate(50.688 75.218)">
            <path id="Trazado_712254" data-name="Trazado 712254" d="M449.75,65.859l-2.208.072,8.848,24.281,2.206-.068Z" transform="translate(-447.542 -65.859)" fill="#147f91"/>
          </g>
          <g id="Grupo_1002851" data-name="Grupo 1002851" transform="translate(50.688 74.36)">
            <path id="Trazado_712255" data-name="Trazado 712255" d="M451.236,65.476l-2.21.072-1.484.858,2.208-.072Z" transform="translate(-447.542 -65.476)" fill="#9fc0c1"/>
          </g>
          <g id="Grupo_1002852" data-name="Grupo 1002852" transform="translate(52.733 138.352)">
            <path id="Trazado_712256" data-name="Trazado 712256" d="M471.614,94.116l-2.206.07-20.951,12.1,2.2-.072Z" transform="translate(-448.457 -94.116)" fill="#147f91"/>
          </g>
          <g id="Grupo_1002853" data-name="Grupo 1002853" transform="translate(52.427 153.68)">
            <path id="Trazado_712257" data-name="Trazado 712257" d="M452.014,100.977l-2.21.072-1.484.86,2.206-.074Z" transform="translate(-448.32 -100.977)" fill="#9fc0c1"/>
          </g>
          <g id="Grupo_1002854" data-name="Grupo 1002854" transform="translate(49.508 71.129)">
            <path id="Trazado_712258" data-name="Trazado 712258" d="M450.7,64.029l-2.2.068-1.49.858,2.212-.07Z" transform="translate(-447.014 -64.029)" fill="#9fc0c1"/>
          </g>
          <g id="Grupo_1002855" data-name="Grupo 1002855" transform="translate(53.455 137.494)">
            <path id="Trazado_712259" data-name="Trazado 712259" d="M448.78,107.542l1.178,3.234,1.488-.858,20.947-12.094,1.486-.858-1.18-3.234-1.484.858-20.953,12.094Z" transform="translate(-448.78 -93.732)" fill="#29b2dc"/>
          </g>
          <g id="Grupo_1002856" data-name="Grupo 1002856" transform="translate(51.249 151.304)">
            <path id="Trazado_712260" data-name="Trazado 712260" d="M450,99.913l-2.206.07,1.178,3.238,2.206-.074Z" transform="translate(-447.793 -99.913)" fill="#a2c4c5"/>
          </g>
          <g id="Grupo_1002857" data-name="Grupo 1002857" transform="translate(51.249 150.446)">
            <path id="Trazado_712261" data-name="Trazado 712261" d="M451.48,99.529l-2.2.072-1.484.855,2.206-.07Z" transform="translate(-447.793 -99.529)" fill="#9fc0c1"/>
          </g>
          <g id="Grupo_1002858" data-name="Grupo 1002858" transform="translate(46.246 120.539)">
            <path id="Trazado_712262" data-name="Trazado 712262" d="M468.711,86.144l-2.21.07L445.554,98.308l2.206-.072Z" transform="translate(-445.554 -86.144)" fill="#147f91"/>
          </g>
          <g id="Grupo_1002859" data-name="Grupo 1002859" transform="translate(43.338 50.093)">
            <path id="Trazado_712263" data-name="Trazado 712263" d="M446.453,54.614l-2.2.07,1.174,3.236,2.206-.072Z" transform="translate(-444.252 -54.614)" fill="#a2c4c5"/>
          </g>
          <g id="Grupo_1002860" data-name="Grupo 1002860" transform="translate(45.945 135.88)">
            <path id="Trazado_712264" data-name="Trazado 712264" d="M449.106,93.01l-2.2.072-1.484.855,2.2-.072Z" transform="translate(-445.419 -93.01)" fill="#9fc0c1"/>
          </g>
          <g id="Grupo_1002861" data-name="Grupo 1002861" transform="translate(43.028 53.326)">
            <path id="Trazado_712265" data-name="Trazado 712265" d="M447.8,56.062l-2.206.072-1.484.855,2.206-.07Z" transform="translate(-444.113 -56.062)" fill="#9fc0c1"/>
          </g>
          <g id="Grupo_1002862" data-name="Grupo 1002862" transform="translate(43.028 54.184)">
            <path id="Trazado_712266" data-name="Trazado 712266" d="M446.319,56.445l-2.206.07,6.48,17.8,2.212-.07Z" transform="translate(-444.113 -56.445)" fill="#147f91"/>
          </g>
          <g id="Grupo_1002863" data-name="Grupo 1002863" transform="translate(44.762 133.491)">
            <path id="Trazado_712267" data-name="Trazado 712267" d="M447.1,91.94l-2.206.072,1.183,3.244,2.2-.072Z" transform="translate(-444.89 -91.94)" fill="#a2c4c5"/>
          </g>
          <g id="Grupo_1002864" data-name="Grupo 1002864" transform="translate(46.968 119.679)">
            <path id="Trazado_712268" data-name="Trazado 712268" d="M445.877,99.57l1.18,3.245,1.484-.855,20.953-12.1,1.482-.855-1.183-3.249-1.482.86L447.361,98.711Z" transform="translate(-445.877 -85.759)" fill="#29b2dc"/>
          </g>
          <g id="Grupo_1002865" data-name="Grupo 1002865" transform="translate(44.762 132.631)">
            <path id="Trazado_712269" data-name="Trazado 712269" d="M448.579,91.556l-2.206.072-1.484.86,2.206-.072Z" transform="translate(-444.89 -91.556)" fill="#9fc0c1"/>
          </g>
          <g id="Grupo_1002866" data-name="Grupo 1002866" transform="translate(41.854 50.093)">
            <path id="Trazado_712270" data-name="Trazado 712270" d="M447.273,54.614l-2.2.07-1.484.858,2.2-.074Z" transform="translate(-443.588 -54.614)" fill="#9fc0c1"/>
          </g>
          <g id="Grupo_1002867" data-name="Grupo 1002867" transform="translate(38.583 99.503)">
            <path id="Trazado_712271" data-name="Trazado 712271" d="M465.283,76.729l-2.206.068L442.124,88.891l2.206-.065Z" transform="translate(-442.124 -76.729)" fill="#147f91"/>
          </g>
          <g id="Grupo_1002868" data-name="Grupo 1002868" transform="translate(38.277 114.831)">
            <path id="Trazado_712272" data-name="Trazado 712272" d="M445.677,83.589l-2.206.07-1.484.858,2.206-.07Z" transform="translate(-441.987 -83.589)" fill="#9fc0c1"/>
          </g>
          <g id="Grupo_1002869" data-name="Grupo 1002869" transform="translate(35.079 27.425)">
            <path id="Trazado_712273" data-name="Trazado 712273" d="M442.759,44.469l-2.2.074,1.176,3.233,2.206-.07Z" transform="translate(-440.556 -44.469)" fill="#a2c4c5"/>
          </g>
          <g id="Grupo_1002870" data-name="Grupo 1002870" transform="translate(34.771 30.663)">
            <path id="Trazado_712274" data-name="Trazado 712274" d="M444.107,45.918l-2.206.07-1.484.858,2.206-.074Z" transform="translate(-440.418 -45.918)" fill="#9fc0c1"/>
          </g>
          <g id="Grupo_1002871" data-name="Grupo 1002871" transform="translate(34.771 31.516)">
            <path id="Trazado_712275" data-name="Trazado 712275" d="M442.624,46.3l-2.206.074L447.5,65.8l2.2-.074Z" transform="translate(-440.418 -46.3)" fill="#147f91"/>
          </g>
          <g id="Grupo_1002872" data-name="Grupo 1002872" transform="translate(37.099 112.455)">
            <path id="Trazado_712276" data-name="Trazado 712276" d="M443.666,82.525l-2.206.072,1.178,3.231,2.206-.07Z" transform="translate(-441.46 -82.525)" fill="#a2c4c5"/>
          </g>
          <g id="Grupo_1002873" data-name="Grupo 1002873" transform="translate(37.099 111.599)">
            <path id="Trazado_712277" data-name="Trazado 712277" d="M445.15,82.143l-2.206.065-1.484.862L443.666,83Z" transform="translate(-441.46 -82.143)" fill="#9fc0c1"/>
          </g>
          <g id="Grupo_1002874" data-name="Grupo 1002874" transform="translate(39.305 98.645)">
            <path id="Trazado_712278" data-name="Trazado 712278" d="M442.447,90.154l1.178,3.234,1.484-.858,20.953-12.1,1.484-.855-1.178-3.234-1.484.858L443.931,89.3Z" transform="translate(-442.447 -76.345)" fill="#29b2dc"/>
          </g>
          <g id="Grupo_1002875" data-name="Grupo 1002875" transform="translate(33.595 27.425)">
            <path id="Trazado_712279" data-name="Trazado 712279" d="M443.579,44.469l-2.2.074-1.484.855,2.206-.07Z" transform="translate(-439.892 -44.469)" fill="#9fc0c1"/>
          </g>
          <g id="Grupo_1002876" data-name="Grupo 1002876" transform="translate(27.416 6.391)">
            <path id="Trazado_712280" data-name="Trazado 712280" d="M439.332,35.055l-2.206.072L438.3,38.36l2.206-.072Z" transform="translate(-437.126 -35.055)" fill="#a2c4c5"/>
          </g>
          <g id="Grupo_1002877" data-name="Grupo 1002877" transform="translate(27.11 10.48)">
            <path id="Trazado_712281" data-name="Trazado 712281" d="M439.2,36.885l-2.206.072,6.485,17.8,2.206-.07Z" transform="translate(-436.989 -36.885)" fill="#147f91"/>
          </g>
          <g id="Grupo_1002878" data-name="Grupo 1002878" transform="translate(27.11 9.625)">
            <path id="Trazado_712282" data-name="Trazado 712282" d="M440.679,36.5l-2.206.072-1.484.855,2.206-.072Z" transform="translate(-436.989 -36.502)" fill="#9fc0c1"/>
          </g>
          <g id="Grupo_1002879" data-name="Grupo 1002879" transform="translate(28.563 71.984)">
            <path id="Trazado_712283" data-name="Trazado 712283" d="M460.8,64.412l-2.212.07-20.945,12.1,2.2-.072Z" transform="translate(-437.64 -64.412)" fill="#147f91"/>
          </g>
          <g id="Grupo_1002880" data-name="Grupo 1002880" transform="translate(25.932 6.391)">
            <path id="Trazado_712284" data-name="Trazado 712284" d="M440.152,35.055l-2.206.072-1.484.853,2.206-.07Z" transform="translate(-436.462 -35.055)" fill="#9fc0c1"/>
          </g>
          <g id="Grupo_1002881" data-name="Grupo 1002881" transform="translate(28.256 87.312)">
            <path id="Trazado_712285" data-name="Trazado 712285" d="M441.191,71.272l-2.206.074L437.5,72.2l2.206-.072Z" transform="translate(-437.502 -71.272)" fill="#9fc0c1"/>
          </g>
          <g id="Grupo_1002882" data-name="Grupo 1002882" transform="translate(27.08 84.079)">
            <path id="Trazado_712286" data-name="Trazado 712286" d="M440.663,69.825l-2.2.072-1.484.855,2.2-.067Z" transform="translate(-436.976 -69.825)" fill="#9fc0c1"/>
          </g>
          <g id="Grupo_1002883" data-name="Grupo 1002883" transform="translate(29.284 71.129)">
            <path id="Trazado_712287" data-name="Trazado 712287" d="M437.962,77.839l1.178,3.233,1.484-.86,20.951-12.094,1.486-.858-1.185-3.231-1.477.855L439.446,76.979Z" transform="translate(-437.962 -64.029)" fill="#29b2dc"/>
          </g>
          <g id="Grupo_1002884" data-name="Grupo 1002884" transform="translate(27.08 84.938)">
            <path id="Trazado_712288" data-name="Trazado 712288" d="M439.179,70.21l-2.2.067,1.176,3.238,2.206-.072Z" transform="translate(-436.976 -70.21)" fill="#a2c4c5"/>
          </g>
          <g id="Grupo_1002885" data-name="Grupo 1002885" transform="translate(23.916 1.711)">
            <path id="Trazado_712289" data-name="Trazado 712289" d="M437.768,32.96l-2.208.074,2.016,5.531,2.206-.07Z" transform="translate(-435.56 -32.96)" fill="#147f91"/>
          </g>
          <g id="Grupo_1002886" data-name="Grupo 1002886" transform="translate(23.916)">
            <path id="Trazado_712290" data-name="Trazado 712290" d="M440.735,32.194l-2.2.072-2.972,1.713,2.208-.074Z" transform="translate(-435.56 -32.194)" fill="#29b2dc"/>
          </g>
          <g id="Grupo_1002887" data-name="Grupo 1002887" transform="translate(26.124)">
            <path id="Trazado_712291" data-name="Trazado 712291" d="M436.548,33.905l2.014,5.535,1.484-.855,1.178,3.234-1.484.855,6.485,17.8,1.482-.86,1.178,3.238-1.484.853,7.076,19.43,1.486-.853,1.178,3.233-1.484.858,6.487,17.8,1.477-.855,1.185,3.231-1.486.858,8.846,24.285,1.484-.858,1.178,3.234-1.484.855,6.483,17.8,1.482-.86,1.183,3.249-1.482.855,5.3,14.569,1.484-.858,1.18,3.234-1.486.858,1.453,3.975,2.963-1.713L439.515,32.194Z" transform="translate(-436.548 -32.194)" fill="#29b2dc"/>
          </g>
          <g id="Grupo_1002888" data-name="Grupo 1002888" transform="translate(20.901 50.946)">
            <path id="Trazado_712292" data-name="Trazado 712292" d="M457.362,55l-2.2.074L434.21,67.165l2.206-.068Z" transform="translate(-434.21 -54.996)" fill="#147f91"/>
          </g>
          <g id="Grupo_1002889" data-name="Grupo 1002889" transform="translate(20.595 66.281)">
            <path id="Trazado_712293" data-name="Trazado 712293" d="M437.763,61.859l-2.206.07-1.484.855,2.206-.07Z" transform="translate(-434.073 -61.859)" fill="#9fc0c1"/>
          </g>
          <g id="Grupo_1002890" data-name="Grupo 1002890" transform="translate(21.623 50.093)">
            <path id="Trazado_712294" data-name="Trazado 712294" d="M434.533,68.421l1.178,3.236L437.2,70.8l20.949-12.1,1.484-.858-1.178-3.233-1.486.853-20.947,12.1Z" transform="translate(-434.533 -54.614)" fill="#29b2dc"/>
          </g>
          <g id="Grupo_1002891" data-name="Grupo 1002891" transform="translate(19.412 63.9)">
            <path id="Trazado_712295" data-name="Trazado 712295" d="M435.754,60.794l-2.21.072,1.183,3.233,2.206-.07Z" transform="translate(-433.544 -60.794)" fill="#a2c4c5"/>
          </g>
          <g id="Grupo_1002892" data-name="Grupo 1002892" transform="translate(19.412 63.047)">
            <path id="Trazado_712296" data-name="Trazado 712296" d="M437.238,60.412l-2.206.068-1.488.858,2.21-.072Z" transform="translate(-433.544 -60.412)" fill="#9fc0c1"/>
          </g>
          <g id="Grupo_1002893" data-name="Grupo 1002893" transform="translate(12.646 28.284)">
            <path id="Trazado_712297" data-name="Trazado 712297" d="M453.67,44.854l-2.206.07L430.516,57.018l2.206-.07Z" transform="translate(-430.516 -44.854)" fill="#147f91"/>
          </g>
          <g id="Grupo_1002894" data-name="Grupo 1002894" transform="translate(12.337 43.61)">
            <path id="Trazado_712298" data-name="Trazado 712298" d="M434.071,51.713l-2.21.072-1.484.86,2.21-.074Z" transform="translate(-430.377 -51.713)" fill="#9fc0c1"/>
          </g>
          <g id="Grupo_1002895" data-name="Grupo 1002895" transform="translate(11.163 40.379)">
            <path id="Trazado_712299" data-name="Trazado 712299" d="M433.541,50.267l-2.206.07-1.484.86,2.206-.072Z" transform="translate(-429.852 -50.267)" fill="#9fc0c1"/>
          </g>
          <g id="Grupo_1002896" data-name="Grupo 1002896" transform="translate(13.369 27.425)">
            <path id="Trazado_712300" data-name="Trazado 712300" d="M430.839,58.28l1.178,3.231,1.484-.858L454.447,48.56l1.483-.853-1.178-3.238-1.482.86L432.322,57.423Z" transform="translate(-430.839 -44.469)" fill="#29b2dc"/>
          </g>
          <g id="Grupo_1002897" data-name="Grupo 1002897" transform="translate(11.163 41.236)">
            <path id="Trazado_712301" data-name="Trazado 712301" d="M432.058,50.65l-2.206.072,1.174,3.234,2.21-.074Z" transform="translate(-429.852 -50.65)" fill="#a2c4c5"/>
          </g>
          <g id="Grupo_1002898" data-name="Grupo 1002898" transform="translate(4.981 7.246)">
            <path id="Trazado_712302" data-name="Trazado 712302" d="M450.242,35.438l-2.206.07-20.951,12.1,2.208-.07Z" transform="translate(-427.085 -35.438)" fill="#147f91"/>
          </g>
          <g id="Grupo_1002899" data-name="Grupo 1002899" transform="translate(4.674 22.576)">
            <path id="Trazado_712303" data-name="Trazado 712303" d="M430.641,42.3l-2.21.074-1.484.855,2.206-.072Z" transform="translate(-426.947 -42.299)" fill="#9fc0c1"/>
          </g>
          <g id="Grupo_1002900" data-name="Grupo 1002900" transform="translate(3.498 20.203)">
            <path id="Trazado_712304" data-name="Trazado 712304" d="M428.625,41.236l-2.2.07L427.6,44.54l2.206-.072Z" transform="translate(-426.421 -41.236)" fill="#a2c4c5"/>
          </g>
          <g id="Grupo_1002901" data-name="Grupo 1002901" transform="translate(3.498 19.345)">
            <path id="Trazado_712305" data-name="Trazado 712305" d="M430.113,40.852l-2.208.07-1.484.858,2.2-.07Z" transform="translate(-426.421 -40.852)" fill="#9fc0c1"/>
          </g>
          <g id="Grupo_1002902" data-name="Grupo 1002902" transform="translate(5.701 6.391)">
            <path id="Trazado_712306" data-name="Trazado 712306" d="M427.407,48.866l1.178,3.231,1.488-.858,20.949-12.1,1.484-.855-1.178-3.234-1.484.855L428.9,48.009Z" transform="translate(-427.407 -35.055)" fill="#29b2dc"/>
          </g>
          <g id="Grupo_1002903" data-name="Grupo 1002903" transform="translate(2.206 13.807)">
            <path id="Trazado_712307" data-name="Trazado 712307" d="M425.843,40.089l52.395,143.85,2.967-1.711-1.447-3.982-1.488.857-1.178-3.234,1.482-.858-5.3-14.566-1.484.855-1.18-3.245,1.484-.86L465.6,139.4l-1.484.858-1.178-3.234,1.484-.855-8.843-24.287-1.484.86-1.178-3.233,1.484-.86-6.483-17.8-1.484.855-1.178-3.236,1.484-.853-7.076-19.437-1.484.858L437.006,65.8l1.484-.858L432,47.143,430.517,48l-1.178-3.231,1.488-.858-2.016-5.538Z" transform="translate(-425.843 -38.374)" fill="#29b2dc"/>
          </g>
          <g id="Grupo_1002904" data-name="Grupo 1002904" transform="translate(0 15.522)">
            <path id="Trazado_712308" data-name="Trazado 712308" d="M427.061,39.142l-2.206.072L477.248,183.06l2.208-.068Z" transform="translate(-424.855 -39.142)" fill="#147f91"/>
          </g>
          <g id="Grupo_1002905" data-name="Grupo 1002905" transform="translate(0 13.807)">
            <path id="Trazado_712309" data-name="Trazado 712309" d="M430.029,38.374l-2.206.072-2.967,1.715,2.206-.072Z" transform="translate(-424.855 -38.374)" fill="#29b2dc"/>
          </g>
        </g>
      </g>
      <g id="Grupo_1002914" data-name="Grupo 1002914" transform="translate(541.309 61.46)">
        <path id="Trazado_712310" data-name="Trazado 712310" d="M459.443,90.405s1.888,3.025-.733,3.747-1.834-.918-7.539.521-5.023-1.767-4.9-2.426,2.612-1.573,3.859-1.9,6.225-1.481,6.225-1.481l3.045.565Z" transform="translate(-426.452 20.117)" fill="#111114"/>
        <path id="Trazado_712311" data-name="Trazado 712311" d="M454.618,85.813s-2.181.32-1.644,1.582c.518,1.26,3.034,3.175,3.365,3.97s2.342,3.251,3.039,3.374c1.182.2,2.386.134,2.187-3.115S457.53,85.666,454.618,85.813Z" transform="translate(-418.173 16.342)" fill="#111114"/>
        <path id="Trazado_712312" data-name="Trazado 712312" d="M463.007,61.02s4.245,6.292,1.488,16.9c0,0-4.748,16.024-3.9,19.17s3.747,10.718,1.839,17.2a73.8,73.8,0,0,0-1.908,7.639c-.147,1.709-2.974,1.863-3.392-.049-.887-4.058-.219-10.086-.833-13.091-2.011-9.826-3.05-14.941-2.417-21.628s-.136-21.818-.136-21.818S461.311,66.13,463.007,61.02Z" transform="translate(-417.177 -14.253)" fill="#efb185"/>
        <path id="Trazado_712313" data-name="Trazado 712313" d="M462.5,62.727s3.646,6.663-.087,16.972c0,0-6.22,15.517-5.666,18.728s2.73,11.024.23,17.289c0,0-2.424,5.769-2.614,7.431-.3,2.632-2.96,2.967-3.24,1.03-.572-3.939.59-11.453.259-14.51-1.088-9.963-1.656-15.155-.393-21.751s1.888-21.746,1.888-21.746S460.339,67.672,462.5,62.727Z" transform="translate(-421.411 -12.146)" fill="#efb185"/>
        <path id="Trazado_712314" data-name="Trazado 712314" d="M469.43,62.321s4.5,4.174,2.69,19c-1.66,13.652-.847,15.341-.847,15.341s-11.046,6.086-21.228,1.41c0,0-1.133-3.117,0-15.423s2.831-15.222,2.831-15.222S462.072,71.432,469.43,62.321Z" transform="translate(-422.304 -12.647)" fill="#f29200"/>
        <path id="Trazado_712315" data-name="Trazado 712315" d="M450.622,89.253s1.526,3.271,4.171.728c0,0,.413,3.494-2.087,3.041S449.208,89.981,450.622,89.253Z" transform="translate(-421.769 20.595)" fill="#111114"/>
        <path id="Trazado_712316" data-name="Trazado 712316" d="M449.873,48.309s-4.9-5.711-7.7-4.8-2.8,3.468-2.062,3.729,5.6.867,7.9,3.112C448.011,50.353,449.808,49.924,449.873,48.309Z" transform="translate(-434.458 -35.986)" fill="#efb185"/>
        <path id="Trazado_712317" data-name="Trazado 712317" d="M471.417,48.449c1.575,1.18,2.279,5.032-3.456,6.278s-17.857,4.384-19.584,2.867c-1.394-1.236-2.679-4.125,4.413-6.261S467.547,45.547,471.417,48.449Z" transform="translate(-425.089 -31.097)" fill="#f9f9f9"/>
        <path id="Trazado_712318" data-name="Trazado 712318" d="M459.42,59.106s-1.953,3.921-5.239,2.2S442.62,47.95,442.62,47.95s2.956-1.669,2.469-3.394C445.089,44.556,459.35,55.247,459.42,59.106Z" transform="translate(-430.848 -34.575)" fill="#f9f9f9"/>
        <g id="Grupo_1002908" data-name="Grupo 1002908" transform="translate(24.11 15.288)">
          <path id="Trazado_712319" data-name="Trazado 712319" d="M469.866,46.931s4.982,1.7,2.813,9.033-3.117,15.721-1.689,18.044a49.831,49.831,0,0,1,6.669,31.825s.194,6.524-12.99,7.84c-4.406.436-17.908-1.01-16.214-8.374a75.185,75.185,0,0,0,.342-32.19c-.547-2.766-2.592-13.761,5.148-18.16S464.7,47.058,469.866,46.931Z" transform="translate(-448.142 -46.931)" fill="#e5eeff"/>
        </g>
        <g id="Grupo_1002911" data-name="Grupo 1002911" transform="translate(0 24.388)">
          <path id="Trazado_712320" data-name="Trazado 712320" d="M459.389,51.007c1.942-.1,4.924,2.4,1.327,6.982s-10.843,14.655-13.122,14.583c-1.843-.054-4.656-1.446-.6-7.565S454.594,51.241,459.389,51.007Z" transform="translate(-428.013 -51.004)" fill="#f9f9f9"/>
          <g id="Grupo_1002910" data-name="Grupo 1002910" transform="translate(0 0.331)">
            <g id="Grupo_1002909" data-name="Grupo 1002909">
              <path id="Trazado_712321" data-name="Trazado 712321" d="M443.911,58.68a25.354,25.354,0,0,0-3.747-1.542c-.791-.107-2.187-1.783-2.482-2.757s-.789-3.666.621-3.168,1.975,1.032,2.9,1.213a6.376,6.376,0,0,1,2.885,1.754c.382.559,1.591,2.364,1.591,2.364Z" transform="translate(-437.351 -51.152)" fill="#efb185"/>
            </g>
          </g>
          <path id="Trazado_712322" data-name="Trazado 712322" d="M456.794,67.027s-1.814,3.944-5.125,2.33S439.818,56.47,439.818,56.47s2.882-1.741,2.348-3.441C442.166,53.029,456.62,63.2,456.794,67.027Z" transform="translate(-434.306 -48.504)" fill="#f9f9f9"/>
        </g>
        <g id="Grupo_1002913" data-name="Grupo 1002913" transform="translate(28.856)">
          <path id="Trazado_712323" data-name="Trazado 712323" d="M452.017,47.933v4.518s3.653,1.98,6.654-.57V47.348A15.541,15.541,0,0,1,452.017,47.933Z" transform="translate(-448.105 -31.128)" fill="#efb185"/>
          <g id="Grupo_1002912" data-name="Grupo 1002912">
            <path id="Trazado_712324" data-name="Trazado 712324" d="M452.731,41.977s-2.476,3.269-2.176,6.484c.322,3.468-.192,4.167.018,5.711a3.756,3.756,0,0,0,.789,2.277c1.077,1.037,3.278,1.41,6.269.32,3.619-1.327,7.431-6.292,5.878-10.767S458.176,38.33,452.731,41.977Z" transform="translate(-449.952 -39.713)" fill="#efb185"/>
            <path id="Trazado_712325" data-name="Trazado 712325" d="M463.079,51.037c-1.452-4.02-5.049-8.852-5.018-9.109a11.36,11.36,0,0,0-2.527-1.7A8.076,8.076,0,0,0,451.5,41.7a19.437,19.437,0,0,0-.757,2.411c.869.963,2.621,2.064,2.889,2.876a10.506,10.506,0,0,1-.3,6.138c-.576,1.287,1.743,3.177,1.258,4.321a.214.214,0,0,0-.016.152,10.122,10.122,0,0,0,2.8-.628A10.48,10.48,0,0,0,463.079,51.037Z" transform="translate(-449.683 -39.912)" fill="#e6a376"/>
            <path id="Trazado_712326" data-name="Trazado 712326" d="M454.741,40.409s-5.682,1.45-4.241,4.989,6.223,2.846,5.8,5.108-2.706,6.155-1.135,7.114-3.445,3.707,1.063,6.857c4.56,3.182.556.469,3.457,2.516,3.977,2.8,6.071,2.88,8.2-.8s4.448-1.539,4.133-6.964c-.53-9.154-3-11.368-5.123-14.194S460.126,39.068,454.741,40.409Z" transform="translate(-450.266 -40.089)" fill="#231202"/>
          </g>
        </g>
      </g>
      <g id="Grupo_1002915" data-name="Grupo 1002915" transform="translate(429.655 178.119)" opacity="0.2">
        <path id="Trazado_712327" data-name="Trazado 712327" d="M479.583,101.476c21.192,12.235,21.3,32.069.25,44.3s-55.3,12.235-76.491,0-21.3-32.069-.248-44.3S458.393,89.244,479.583,101.476Z" transform="translate(-387.378 -92.302)" fill="#4db1f0"/>
      </g>
      <g id="Grupo_1002918" data-name="Grupo 1002918" transform="translate(429.862 167.072)">
        <path id="Trazado_712328" data-name="Trazado 712328" d="M488.014,101.5c-.013.255-.029.512-.058.764-.02.221-.049.44-.08.657-.034.255-.069.507-.118.76-.04.219-.087.436-.136.657-.058.248-.116.5-.183.746-.058.219-.123.429-.188.646-.078.248-.159.5-.246.746-.078.214-.159.427-.239.637-.105.257-.212.512-.326.769-.094.212-.19.425-.295.632-.125.255-.257.507-.391.755-.109.206-.223.409-.335.61q-.265.446-.556.889c-.112.181-.226.362-.349.543-.223.328-.469.652-.713.976-.107.136-.205.279-.315.416-.4.514-.842,1.019-1.3,1.522-.121.13-.25.259-.373.389-.362.378-.737.755-1.133,1.126-.183.174-.369.346-.554.516-.232.21-.474.418-.715.621s-.465.4-.7.59c-.255.2-.512.4-.773.6s-.5.387-.769.579-.538.384-.818.574-.552.38-.838.565-.572.371-.865.547c-.4.248-.784.5-1.2.733-.751.438-1.524.849-2.308,1.253-.232.116-.465.232-.7.346q-.9.449-1.841.869c-.217.1-.434.2-.657.295-.818.357-1.649.695-2.5,1.019-.154.058-.315.112-.474.172q-1.066.4-2.165.76c-.3.1-.61.2-.918.295-.4.13-.807.252-1.213.373-.349.105-.7.206-1.05.3-.413.114-.827.223-1.242.333-.351.089-.708.179-1.066.266-.425.1-.847.2-1.278.3-.355.078-.71.159-1.063.235-.445.089-.887.172-1.334.259-.331.065-.659.125-.988.185-.95.17-1.9.322-2.855.456-.134.02-.27.031-.4.051q-1.247.168-2.5.3c-.324.034-.646.067-.97.1-.541.049-1.077.092-1.622.132-.333.027-.668.049-1,.071-.581.034-1.162.063-1.738.085-.3.011-.6.029-.9.038-.507.016-1.017.022-1.524.031-.328,0-.657.011-.983.011-.534,0-1.068-.007-1.6-.013-.3-.007-.6-.007-.9-.013q-.761-.023-1.522-.058c-.306-.013-.61-.025-.918-.04-.59-.034-1.18-.076-1.765-.121-.223-.013-.447-.029-.67-.045-.722-.058-1.439-.132-2.156-.212-.089-.011-.179-.016-.266-.025-.813-.092-1.618-.19-2.422-.306-.069-.007-.136-.022-.2-.031-.748-.109-1.486-.221-2.223-.349-.257-.047-.509-.1-.762-.145-.552-.1-1.1-.2-1.651-.315-.246-.049-.483-.1-.728-.159-.588-.127-1.177-.257-1.763-.4-.3-.074-.6-.15-.9-.226-.523-.127-1.041-.266-1.553-.411-.284-.078-.563-.161-.847-.244-.807-.232-1.6-.478-2.388-.74-.136-.045-.277-.087-.411-.13-.9-.311-1.792-.639-2.67-.979-.346-.136-.693-.277-1.032-.418-.284-.114-.572-.232-.849-.353-.4-.168-.786-.344-1.173-.525-.253-.112-.507-.228-.76-.342-.429-.208-.847-.416-1.265-.632-.2-.1-.409-.2-.608-.3q-.925-.483-1.814-1c-9.914-5.72-14.863-13.236-14.847-20.737q0,3.439-.016,6.875c-.022,7.5,4.927,15.017,14.843,20.737.594.349,1.193.677,1.81,1,.212.109.427.21.641.322.409.208.815.413,1.233.612.255.121.516.235.773.351.387.177.766.351,1.16.521.279.118.556.232.84.344.266.112.527.226.8.333.085.036.174.06.257.094.874.344,1.761.666,2.663.974.134.045.273.087.409.13.784.264,1.575.5,2.375.737.136.045.266.087.4.127.159.042.317.083.478.127.5.139,1,.268,1.5.4.315.08.628.163.941.235.561.136,1.128.261,1.7.387.21.042.418.1.628.139.058.013.114.025.172.034.5.1,1.01.194,1.515.288.3.054.6.118.894.165.637.114,1.271.21,1.91.306.165.02.331.051.5.076l.025,0c.8.116,1.6.217,2.4.306.08.009.156.011.232.022q1.1.121,2.2.212l.027,0c.21.016.422.027.632.042.581.045,1.169.089,1.754.121.369.02.733.031,1.1.045.447.02.894.04,1.341.051.045,0,.087,0,.127,0,.284.007.572,0,.851.009.512.011,1.028.018,1.539.018.324,0,.646-.009.97-.011.514-.011,1.03-.018,1.542-.034.083,0,.17,0,.255-.007.208-.007.416-.02.628-.031.588-.022,1.173-.054,1.758-.087.333-.022.661-.045.992-.069q.811-.06,1.609-.134c.194-.018.391-.027.583-.047.138-.016.275-.036.413-.049.836-.085,1.671-.188,2.5-.3.13-.018.261-.029.387-.049q1.438-.2,2.851-.456c.094-.013.179-.025.268-.04.25-.047.5-.1.746-.145.438-.085.878-.172,1.316-.261.355-.072.708-.152,1.061-.23.433-.1.86-.2,1.287-.3.353-.083.7-.17,1.05-.261.422-.109.845-.223,1.265-.337.342-.1.679-.194,1.023-.293.418-.125.836-.255,1.254-.382.172-.056.346-.1.521-.159.118-.04.237-.089.36-.13.744-.244,1.477-.5,2.205-.773.147-.054.295-.1.442-.159.849-.324,1.687-.668,2.507-1.023.217-.092.429-.192.639-.288.632-.282,1.253-.576,1.868-.878.226-.109.454-.226.677-.34.791-.4,1.566-.818,2.317-1.258.208-.116.411-.237.615-.36s.371-.235.561-.357c.3-.188.6-.373.894-.565s.545-.366.813-.552c.284-.2.568-.391.842-.588.259-.188.507-.375.755-.567s.527-.4.78-.61c.237-.192.469-.389.7-.585s.48-.416.715-.623c.1-.087.206-.172.3-.266s.17-.165.257-.248q.59-.563,1.135-1.131c.123-.13.25-.255.369-.384.465-.5.9-1.01,1.307-1.526a.608.608,0,0,1,.051-.06c.089-.112.159-.226.246-.337.255-.333.5-.661.726-.994.123-.181.235-.36.351-.541.192-.293.38-.588.552-.887.045-.08.1-.163.147-.246.069-.121.127-.244.192-.369.134-.25.266-.5.387-.751.1-.21.2-.422.3-.639.112-.25.219-.507.32-.762.047-.114.1-.223.145-.335s.063-.2.1-.3c.085-.248.168-.5.241-.746.069-.214.134-.429.194-.646.063-.246.125-.5.181-.748.029-.127.067-.259.092-.389.018-.089.027-.179.045-.264.045-.252.083-.507.116-.762.031-.219.065-.436.083-.655.027-.257.042-.512.058-.766.009-.147.025-.293.031-.44s0-.293,0-.44l.025-6.877C488.052,100.913,488.028,101.206,488.014,101.5Z" transform="translate(-387.471 -71.348)" fill="#abd9ce"/>
        <g id="Grupo_1002916" data-name="Grupo 1002916" transform="translate(0.018)">
          <path id="Trazado_712329" data-name="Trazado 712329" d="M473.2,95.889c19.7,11.373,19.8,29.817.235,41.185s-51.411,11.377-71.111,0-19.807-29.814-.232-41.189S453.5,84.514,473.2,95.889Z" transform="translate(-387.479 -87.358)" fill="#edf9f5"/>
        </g>
        <g id="Grupo_1002917" data-name="Grupo 1002917" transform="translate(2.475 1.276)">
          <path id="Trazado_712330" data-name="Trazado 712330" d="M470.107,96.043c18.744,10.818,18.844,28.362.232,39.176s-48.9,10.818-67.643,0-18.835-28.362-.219-39.181S451.372,85.224,470.107,96.043Z" transform="translate(-388.579 -87.928)" fill="#abd9ce"/>
        </g>
        <path id="Trazado_712331" data-name="Trazado 712331" d="M402.531,131.823c18.739,10.816,49.027,10.816,67.643,0,7.907-4.6,12.423-10.41,13.58-16.4C482.6,109.348,478,103.454,469.935,98.8c-18.737-10.821-49.027-10.821-67.637,0-7.909,4.6-12.429,10.41-13.587,16.4C389.869,121.27,394.47,127.169,402.531,131.823Z" transform="translate(-385.939 -83.255)" fill="#4e93f9"/>
      </g>
      <g id="Grupo_1002919" data-name="Grupo 1002919" transform="translate(445.547 191.571)" opacity="0.4">
        <path id="Trazado_712332" data-name="Trazado 712332" d="M409.823,99.847c3.523,2.035,3.541,5.333.042,7.369a14.025,14.025,0,0,1-12.72,0c-3.523-2.035-3.541-5.333-.042-7.369A14.025,14.025,0,0,1,409.823,99.847Z" transform="translate(-394.491 -98.323)" fill="#fff"/>
      </g>
      <g id="Grupo_1002920" data-name="Grupo 1002920" transform="translate(464.124 185.246)" opacity="0.4">
        <path id="Trazado_712333" data-name="Trazado 712333" d="M411.661,96.373c2.038,1.175,2.047,3.081.025,4.256a8.108,8.108,0,0,1-7.346,0c-2.035-1.175-2.047-3.081-.025-4.256A8.094,8.094,0,0,1,411.661,96.373Z" transform="translate(-402.805 -95.492)" fill="#fff"/>
      </g>
    </g>
  </g>
</svg>
