<svg xmlns="http://www.w3.org/2000/svg" width="157" height="58" viewBox="0 0 157 58">
  <g id="Grupo_1003482" data-name="Grupo 1003482" transform="translate(3471 9242)">
    <path id="Trazado_713167" data-name="Trazado 713167" d="M10,0H147a10,10,0,0,1,10,10V48a10,10,0,0,1-10,10H10A10,10,0,0,1,0,48V10A10,10,0,0,1,10,0Z" transform="translate(-3471 -9242)" fill="#fff"/>
    <g id="Grupo_1002356" data-name="Grupo 1002356" transform="translate(29 -6)">
      <text id="Vp_Qp_Vc" data-name="Vp = Qp + Vc" transform="translate(-3468 -9214)" fill="#12263f" font-size="18" font-family="Roboto-Black, Roboto" font-weight="800"><tspan x="0" y="0">V</tspan><tspan y="0" font-size="10.499" baseline-shift="-5.999400079342301">p </tspan><tspan y="0">= Q</tspan><tspan y="0" font-size="10.499" baseline-shift="-5.999400079342301">p </tspan><tspan y="0">+ V</tspan><tspan y="0" font-size="10.499" baseline-shift="-5.999400079342301">c</tspan></text>
      <text id="N_Q" data-name="N*Q" transform="translate(-3404 -9187)" fill="#12263f" font-size="18" font-family="Roboto-Black, Roboto" font-weight="800"><tspan x="0" y="0">N</tspan><tspan y="0" font-size="10.499" baseline-shift="5.999400079342301">*</tspan><tspan y="0">Q</tspan></text>
      <line id="Línea_2409" data-name="Línea 2409" x2="29" transform="translate(-3404.5 -9204.5)" fill="none" stroke="#12263f" stroke-width="1"/>
    </g>
  </g>
</svg>
