<svg xmlns="http://www.w3.org/2000/svg" xmlns:xlink="http://www.w3.org/1999/xlink" width="261.117" height="317.92" viewBox="0 0 261.117 317.92">
  <defs>
    <linearGradient id="linear-gradient" x1="0.086" y1="0.784" x2="1.492" y2="-0.369" gradientUnits="objectBoundingBox">
      <stop offset="0" stop-color="#fff"/>
      <stop offset="1" stop-color="#ebeaea"/>
    </linearGradient>
    <linearGradient id="linear-gradient-2" x1="-40.43" y1="0.5" x2="-42.439" y2="0.5" gradientUnits="objectBoundingBox">
      <stop offset="0.274" stop-color="#cad2da"/>
      <stop offset="0.281" stop-color="#cfd6de"/>
      <stop offset="0.29" stop-color="#e0e5e9"/>
      <stop offset="0.3" stop-color="#fbfcfc"/>
      <stop offset="0.301" stop-color="#fff"/>
    </linearGradient>
    <linearGradient id="linear-gradient-3" x1="-25.042" y1="-0.399" x2="-25.6" y2="1.207" gradientUnits="objectBoundingBox">
      <stop offset="0.274" stop-color="#cad2da"/>
      <stop offset="0.291" stop-color="#cfd6dd"/>
      <stop offset="0.309" stop-color="#dde2e7"/>
    </linearGradient>
    <linearGradient id="linear-gradient-4" x1="-88.144" y1="0.5" x2="-87.144" y2="0.5" gradientUnits="objectBoundingBox">
      <stop offset="0" stop-color="#41cff6"/>
      <stop offset="1" stop-color="#00baed"/>
    </linearGradient>
    <linearGradient id="linear-gradient-5" y1="0.5" x2="1" y2="0.5" gradientUnits="objectBoundingBox">
      <stop offset="0" stop-color="#2bc4f3"/>
      <stop offset="0.5" stop-color="#00aeee"/>
      <stop offset="1" stop-color="#0095da"/>
    </linearGradient>
    <linearGradient id="linear-gradient-6" x1="0.422" y1="0.886" x2="0.554" y2="-0.319" gradientUnits="objectBoundingBox">
      <stop offset="0" stop-color="#0095da"/>
      <stop offset="0.5" stop-color="#00aeee"/>
      <stop offset="1" stop-color="#2bc4f3"/>
    </linearGradient>
    <linearGradient id="linear-gradient-7" y1="0.5" x2="1" y2="0.5" gradientUnits="objectBoundingBox">
      <stop offset="0" stop-color="#00897c"/>
      <stop offset="1" stop-color="#4df4c4"/>
    </linearGradient>
    <linearGradient id="linear-gradient-8" x1="0.422" y1="0.886" x2="0.554" y2="-0.319" xlink:href="#linear-gradient-7"/>
    <linearGradient id="linear-gradient-9" y1="0.5" x2="1" y2="0.5" gradientUnits="objectBoundingBox">
      <stop offset="0" stop-color="#faac18"/>
      <stop offset="0.5" stop-color="#ffca05"/>
      <stop offset="1" stop-color="#ffe7a3"/>
    </linearGradient>
    <linearGradient id="linear-gradient-10" x1="0.769" y1="0.965" x2="0.055" y2="-0.27" gradientUnits="objectBoundingBox">
      <stop offset="0" stop-color="#ffe7a3"/>
      <stop offset="1" stop-color="#ffca05"/>
    </linearGradient>
    <linearGradient id="linear-gradient-11" x1="-0.089" y1="0.502" x2="0.938" y2="0.498" gradientUnits="objectBoundingBox">
      <stop offset="0.267" stop-color="#19191a"/>
      <stop offset="0.852" stop-color="#404345"/>
    </linearGradient>
  </defs>
  <g id="Grupo_1003445" data-name="Grupo 1003445" transform="translate(-143.435 -334.882)">
    <g id="Grupo_1003369" data-name="Grupo 1003369" transform="translate(143.436 519.062)" style="mix-blend-mode: multiply;isolation: isolate">
      <path id="Trazado_712942" data-name="Trazado 712942" d="M375.086,422.562,214.806,515.1l-71.371-41.207L303.713,381.36Z" transform="translate(-143.435 -381.36)" fill="#dfe5e8"/>
    </g>
    <path id="Trazado_712943" data-name="Trazado 712943" d="M188.965,419.4c0,11.3,18.066,20.448,40.349,20.448s40.345-9.15,40.345-20.448-18.07-20.444-40.345-20.444S188.965,408.109,188.965,419.4Z" transform="translate(134.894 189.834)" fill="#dfe5e8" style="mix-blend-mode: multiply;isolation: isolate"/>
    <g id="Grupo_1003444" data-name="Grupo 1003444" transform="translate(156.663 334.882)">
      <g id="Grupo_1003442" data-name="Grupo 1003442">
        <g id="Grupo_1003385" data-name="Grupo 1003385" transform="translate(0 75.382)">
          <path id="Trazado_712944" data-name="Trazado 712944" d="M169.285,414.579A1.894,1.894,0,0,0,168.16,413a6.01,6.01,0,0,0-5.405,0,1.917,1.917,0,0,0-1.118,1.549v1.391a1.923,1.923,0,0,0,1.118,1.561,6.027,6.027,0,0,0,5.413,0,1.924,1.924,0,0,0,1.117-1.565Z" transform="translate(-102.736 -180.713)"/>
          <rect id="Rectángulo_346800" data-name="Rectángulo 346800" width="1.917" height="25.108" transform="translate(61.768 208.638)"/>
          <g id="Grupo_1003370" data-name="Grupo 1003370" transform="translate(207.541 122.982)">
            <path id="Trazado_712945" data-name="Trazado 712945" d="M206.79,392.977a1.851,1.851,0,0,0-1.121-1.577,5.913,5.913,0,0,0-5.405,0,1.854,1.854,0,0,0-1.117,1.545v1.387a1.92,1.92,0,0,0,1.117,1.561,6.027,6.027,0,0,0,5.413,0,1.9,1.9,0,0,0,1.114-1.569Z" transform="translate(-199.146 -367.732)"/>
            <rect id="Rectángulo_346801" data-name="Rectángulo 346801" width="1.922" height="25.108" transform="translate(2.858)"/>
          </g>
          <path id="Trazado_712946" data-name="Trazado 712946" d="M155.045,406.337a1.885,1.885,0,0,0-1.114-1.581,6,6,0,0,0-5.4,0,1.894,1.894,0,0,0-1.121,1.565V407.7a1.874,1.874,0,0,0,1.121,1.554,5.913,5.913,0,0,0,5.405,0,1.862,1.862,0,0,0,1.11-1.558Z" transform="translate(-144.89 -205.144)"/>
          <rect id="Rectángulo_346802" data-name="Rectángulo 346802" width="1.927" height="25.119" transform="translate(5.374 175.457)"/>
          <g id="Grupo_1003371" data-name="Grupo 1003371" transform="translate(2.52 93.141)">
            <path id="Trazado_712947" data-name="Trazado 712947" d="M147.409,377.408l60.212,35.127v99.228l-60.212-35.127Z" transform="translate(-147.409 -377.408)" fill="#cad2da"/>
          </g>
          <path id="Trazado_712948" data-name="Trazado 712948" d="M315.062,364.064V463.28L204.05,527.365l-.714.426-.111.046-.706.422L162.6,551.3V452.073l39.918-23.042.706-.406.111-.066.714-.407Z" transform="translate(-99.878 -323.805)" fill="#eef0f3"/>
          <path id="Trazado_712949" data-name="Trazado 712949" d="M315.056,364.064,162.6,452.073v36.276Z" transform="translate(-99.872 -323.805)" fill="url(#linear-gradient)" style="mix-blend-mode: multiply;isolation: isolate"/>
          <g id="Grupo_1003381" data-name="Grupo 1003381" transform="translate(122.646 83.013)">
            <g id="Grupo_1003372" data-name="Grupo 1003372" transform="translate(17.746)">
              <path id="Trazado_712950" data-name="Trazado 712950" d="M183.018,374.853v99.22l-.7.418-.114.07V375.317l.114-.058Z" transform="translate(-182.201 -374.853)" fill="#a7abae"/>
            </g>
            <g id="Grupo_1003380" data-name="Grupo 1003380" transform="translate(0 0.407)">
              <g id="Grupo_1003373" data-name="Grupo 1003373" transform="translate(17.03)">
                <path id="Trazado_712951" data-name="Trazado 712951" d="M182.851,374.955v99.232l-.114.07-.716.4v-99.22l.716-.422Z" transform="translate(-182.021 -374.955)" fill="#f9f9f9"/>
              </g>
              <g id="Grupo_1003376" data-name="Grupo 1003376" transform="translate(0 20.942)">
                <g id="Grupo_1003374" data-name="Grupo 1003374">
                  <path id="Trazado_712952" data-name="Trazado 712952" d="M181.214,380.411l-2.283,1.3a2.728,2.728,0,0,0-1.209,2.12V400.5a.835.835,0,0,0,.349.781c.218.123,1.066.519,1.066.519l2.076-1.922a2.682,2.682,0,0,0,1.213-2.1l.741-16.905-1.137-.579A.884.884,0,0,0,181.214,380.411Z" transform="translate(-177.723 -380.24)" fill="#a7abae"/>
                </g>
                <g id="Grupo_1003375" data-name="Grupo 1003375" transform="translate(1.098 0.551)">
                  <path id="Trazado_712953" data-name="Trazado 712953" d="M181.491,380.546l-2.283,1.312a2.7,2.7,0,0,0-1.209,2.12v16.664c0,.761.535,1.074,1.209.693l2.283-1.32a2.657,2.657,0,0,0,1.213-2.092v-16.66C182.7,380.467,182.161,380.158,181.491,380.546Z" transform="translate(-178 -380.379)" fill="#fff"/>
                  <path id="Trazado_712954" data-name="Trazado 712954" d="M178.253,400.537c-.111,0-.115-.25-.115-.305V383.568a2.211,2.211,0,0,1,.939-1.656l2.283-1.3a.454.454,0,0,1,.258-.1c.087.044.127.139.127.325v16.671a2.13,2.13,0,0,1-.939,1.621l-2.275,1.312A.578.578,0,0,1,178.253,400.537Z" transform="translate(-177.591 -379.97)" fill="#cbced3"/>
                </g>
              </g>
              <g id="Grupo_1003379" data-name="Grupo 1003379" transform="translate(26.808 7.859)">
                <g id="Grupo_1003377" data-name="Grupo 1003377">
                  <path id="Trazado_712955" data-name="Trazado 712955" d="M187.983,377.1l-2.286,1.312a2.723,2.723,0,0,0-1.209,2.124v16.659a.844.844,0,0,0,.357.785c.222.119,1.062.515,1.062.515l2.076-1.926a2.657,2.657,0,0,0,1.213-2.092l.745-16.905s-.9-.471-1.133-.575A.911.911,0,0,0,187.983,377.1Z" transform="translate(-184.488 -376.938)" fill="#a7abae"/>
                </g>
                <g id="Grupo_1003378" data-name="Grupo 1003378" transform="translate(1.102 0.548)">
                  <path id="Trazado_712956" data-name="Trazado 712956" d="M188.257,377.236l-2.279,1.32a2.7,2.7,0,0,0-1.213,2.1v16.675c0,.765.547,1.078,1.213.7l2.279-1.327a2.642,2.642,0,0,0,1.221-2.088V377.962C189.478,377.169,188.931,376.86,188.257,377.236Z" transform="translate(-184.766 -377.077)" fill="#fff"/>
                  <path id="Trazado_712957" data-name="Trazado 712957" d="M185.024,397.242c-.115,0-.119-.254-.119-.313V380.254a2.175,2.175,0,0,1,.943-1.641l2.275-1.312a.5.5,0,0,1,.269-.087.38.38,0,0,1,.115.325l.008,16.672a2.175,2.175,0,0,1-.935,1.621l-2.291,1.316A.684.684,0,0,1,185.024,397.242Z" transform="translate(-184.354 -376.67)" fill="#cbced3"/>
                </g>
              </g>
            </g>
          </g>
          <g id="Grupo_1003384" data-name="Grupo 1003384">
            <g id="Grupo_1003383" data-name="Grupo 1003383">
              <g id="Grupo_1003382" data-name="Grupo 1003382" transform="translate(0 5.298)">
                <path id="Trazado_712958" data-name="Trazado 712958" d="M299.226,355.241,146.773,437.976v5.306l64.19,37.054L363.4,392.311v-5.29Z" transform="translate(-146.773 -355.241)" fill="#cbced3"/>
              </g>
              <path id="Trazado_712959" data-name="Trazado 712959" d="M363.4,390.982,210.964,479l-64.19-37.062L299.226,353.9l4.065,2.341,56.162,32.445Z" transform="translate(-146.773 -353.904)" fill="#f5f5f7"/>
              <path id="Trazado_712960" data-name="Trazado 712960" d="M352.6,386.94l-147.341,85.01-56.176-32.422L296.44,354.5Z" transform="translate(-139.922 -352.154)" fill="#a7abae"/>
              <path id="Trazado_712961" data-name="Trazado 712961" d="M190.257,356.8V403.39l40.365-23.281Z" transform="translate(-17.942 -345.323)" fill="#cbced3"/>
              <path id="Trazado_712962" data-name="Trazado 712962" d="M160.559,371.235v52.483l4.423,2.566v-57.6Z" transform="translate(-105.931 -310.102)" fill="#cbced3"/>
              <path id="Trazado_712963" data-name="Trazado 712963" d="M164.47,389.331v64.829L216.046,424.4V359.567Z" transform="translate(-94.343 -337.126)" fill="#cbced3"/>
            </g>
            <path id="Trazado_712964" data-name="Trazado 712964" d="M210.964,413.181v5.3l-64.19-37.054v-5.306Z" transform="translate(-146.773 -288.087)" fill="#b0b0b0"/>
          </g>
        </g>
        <path id="Trazado_712965" data-name="Trazado 712965" d="M272.715,343.78,171.36,402.328v82.92l101.362-58.536Z" transform="translate(-73.928 -308.518)" fill="url(#linear-gradient-2)"/>
        <path id="Trazado_712966" data-name="Trazado 712966" d="M318.354,391.158l-61.069-35.274-45,26.013-.027-.008-56.3,32.538L217,449.694l45.032-26h0Z" transform="translate(-119.567 -272.658)" fill="url(#linear-gradient-3)"/>
        <g id="Grupo_1003387" data-name="Grupo 1003387" transform="translate(108.971 65.583)">
          <g id="Grupo_1003386" data-name="Grupo 1003386" transform="translate(0.002)">
            <path id="Trazado_712967" data-name="Trazado 712967" d="M201.009,355.387l-26.737,15.487V365.6l24.436-14.164,2.177,3.758Z" transform="translate(-174.273 -351.432)" fill="#a5a8aa"/>
          </g>
          <path id="Trazado_712968" data-name="Trazado 712968" d="M177.474,380.708l-.773.436,4.185,2.4.777-.424Zm32.883-19-.376-.222-.765.444.38.206,4.2,2.429.753-.428Zm42.009,20.468-34.528-19.945-4.181-2.421-.769-.44-12-6.931-.044-.032a.4.4,0,0,0-.527.147.4.4,0,0,0,0,.373l-2.584,1.494-.186-.107a.37.37,0,0,0-.515.139.39.39,0,0,0,0,.384l-2.572,1.486-.206-.111a.366.366,0,0,0-.515.135.383.383,0,0,0,0,.381l-2.58,1.5-.186-.119a.389.389,0,0,0-.515.139.363.363,0,0,0,0,.384l-2.576,1.49-.206-.115a.372.372,0,0,0-.5.515l-2.588,1.514-.19-.127a.375.375,0,0,0-.511.523l-2.576,1.486-.194-.1a.375.375,0,0,0-.527.135.4.4,0,0,0,0,.384l-2.576,1.486-.19-.111a.375.375,0,0,0-.527.135.369.369,0,0,0,.012.388l-2.576,1.482-.2-.111a.49.49,0,0,0-.262-.032v1.3l.464-.274,11.076,6.4.757.448,4.2,2.417,33.961,19.612L222.2,398.94l-33.965-19.612-4.2-2.429-.753-.44-9.015-5.2v.876l8.246,4.763.388.222.38.218,4.181,2.425,33.965,19.624-2.528,1.458L184.94,381.219l-4.181-2.417-.757-.436-5.73-3.313v.888l4.957,2.861.388.222.384.218,4.181,2.413,33.965,19.628-2.528,1.454-33.957-19.616-4.189-2.413-.773-.452-2.429-1.395v.872l1.68.975.749.436,4.185,2.4,33.969,19.628-2.524,1.466L178.845,385.3l-4.573-2.647v.888l4.573,2.631,32.721,18.9-2.524,1.466-30.2-17.436-4.573-2.639v.868l4.573,2.647,29.424,17.008-2.532,1.45-26.891-15.542-4.573-2.635v.884l4.573,2.627,26.135,15.106-.646.38c-.012.02-.04.02-.063.036l-1.811,1.03L178.845,396.69l-4.573-2.635v.88l4.573,2.643,22.845,13.2-2.524,1.454L178.845,400.5l-4.573-2.643v.888l4.573,2.627,19.564,11.3-2.524,1.462-17.04-9.84-4.573-2.635v.872l4.573,2.651,16.279,9.4-2.54,1.462-13.739-7.953-4.573-2.639v.88l4.573,2.647,12.982,7.49-2.528,1.47-10.454-6.047-4.573-2.631v.88l4.573,2.631,9.689,5.6-2.524,1.458-7.165-4.133-4.573-2.639v.88l4.573,2.635,6.408,3.7-2.528,1.45-3.88-2.239-4.573-2.639v.884l4.573,2.639,3.115,1.8-2.52,1.474-.594-.333-4.573-2.647v.876l4.4,2.536-2.524,1.458-1.878-1.078v.876l1.117.646-1.117.634v1.32l4.573-2.631,73.521-42.457h0a.576.576,0,0,0,.143-.151A.378.378,0,0,0,252.366,382.174Zm-26.887,14.849-33.957-19.612L187.337,375l-.388-.222-.38-.21L175.5,368.158l2.52-1.462,11.084,6.412.761.44,4.193,2.409,33.969,19.624Zm3.289-1.886-33.961-19.62-4.181-2.409-.765-.448-11.08-6.4,2.528-1.454L192.4,371.2l.753.448,4.193,2.425,33.953,19.6Zm3.3-1.89L198.1,373.622l-4.185-2.425-.376-.214-.388-.21-11.08-6.408,2.512-1.466,11.1,6.4.769.436,4.177,2.417,33.957,19.62Zm3.285-1.91-33.969-19.608-4.169-2.425-.392-.222-.38-.21-11.084-6.416L187.884,361l11.084,6.412.376.214.4.226,4.181,2.421,33.957,19.608Zm3.293-1.894-33.965-19.624-4.177-2.409-.761-.448-11.092-6.4,2.512-1.45,11.1,6.4.769.444,4.177,2.409,33.969,19.62Zm3.3-1.906L207.971,367.92l-4.2-2.413-.749-.448-11.1-6.4,2.532-1.462,11.084,6.4.761.448,4.193,2.413,33.945,19.612Zm3.273-1.89L211.261,366.03l-4.185-2.429-.769-.428-11.092-6.408,2.52-1.466,11.092,6.408.769.428,4.2,2.429,33.949,19.624Zm3.289-1.91-33.957-19.6-4.189-2.429-.376-.222-.38-.23-11.1-6.392,2.152-1.244,11.092,6.4.769.444,4.185,2.425L250.651,382.5Z" transform="translate(-174.272 -348.679)" fill="#a5a8aa"/>
        </g>
        <g id="Grupo_1003389" data-name="Grupo 1003389" transform="translate(108.971 42.794)">
          <g id="Grupo_1003388" data-name="Grupo 1003388" transform="translate(0.002)">
            <path id="Trazado_712969" data-name="Trazado 712969" d="M201.009,349.639l-26.737,15.487v-5.275l24.436-14.171,2.177,3.754Z" transform="translate(-174.273 -345.681)" fill="#bbbcbd"/>
          </g>
          <path id="Trazado_712970" data-name="Trazado 712970" d="M177.474,374.956l-.773.444,4.185,2.4.777-.428Zm32.883-18.994-.376-.234-.765.448.38.218,4.2,2.429.753-.44Zm42.009,20.456-34.528-19.941-4.181-2.425-.769-.432-12-6.939-.044-.024a.388.388,0,0,0-.527.147.392.392,0,0,0,0,.369l-2.584,1.5-.186-.111a.372.372,0,0,0-.515.135.383.383,0,0,0,0,.38l-2.572,1.5-.206-.115a.365.365,0,0,0-.515.131.391.391,0,0,0,0,.385l-2.58,1.5-.186-.119a.376.376,0,0,0-.515.143.356.356,0,0,0,0,.38l-2.576,1.482-.206-.107a.382.382,0,0,0-.511.143.4.4,0,0,0,.008.38l-2.588,1.494-.19-.115a.389.389,0,0,0-.527.147.385.385,0,0,0,.016.376l-2.576,1.486-.194-.107a.383.383,0,0,0-.527.139.409.409,0,0,0,0,.388l-2.576,1.486-.19-.115a.383.383,0,0,0-.527.139.362.362,0,0,0,.012.384l-2.576,1.482-.2-.1a.381.381,0,0,0-.262-.048v1.3l.464-.27,11.076,6.4.757.444,4.2,2.413,33.961,19.616-2.524,1.466-33.965-19.62-4.2-2.421-.753-.444-9.015-5.2v.88l8.246,4.763.388.214.38.226,4.181,2.417,33.965,19.628L218.9,395.1,184.94,375.464l-4.181-2.409-.757-.436-5.73-3.309v.884l4.957,2.861.388.222.384.218,4.181,2.421,33.965,19.612-2.528,1.45-33.957-19.6-4.189-2.417-.773-.452-2.429-1.4v.88l1.68.971.749.444,4.185,2.4,33.969,19.624-2.524,1.462-33.485-19.334-4.573-2.659v.9l4.573,2.623,32.721,18.9-2.524,1.466-30.2-17.436-4.573-2.635v.868l4.573,2.647,29.424,17.008-2.532,1.45-26.891-15.542-4.573-2.647v.9l4.573,2.627,26.135,15.106-.646.372c-.012.02-.04.02-.063.04l-1.811,1.038-23.614-13.64-4.573-2.631v.88l4.573,2.643,22.845,13.2-2.524,1.462-20.321-11.742-4.573-2.643v.888l4.573,2.631,19.564,11.294-2.524,1.466-17.04-9.847-4.573-2.627v.876l4.573,2.643,16.279,9.4-2.54,1.458-13.739-7.945-4.573-2.631v.872l4.573,2.647,12.982,7.49-2.528,1.458-10.454-6.035-4.573-2.639v.884l4.573,2.635,9.689,5.6-2.524,1.462-7.165-4.137-4.573-2.635v.884l4.573,2.627,6.408,3.705-2.528,1.45-3.88-2.239-4.573-2.643v.888l4.573,2.643,3.115,1.8-2.52,1.466-.594-.337-4.573-2.651v.88l4.4,2.536-2.524,1.458-1.878-1.078v.88l1.117.638-1.117.63v1.324l4.573-2.635,73.521-42.457h0a.445.445,0,0,0,.143-.143A.387.387,0,0,0,252.366,376.419Zm-26.887,14.86-33.957-19.612-4.185-2.413-.388-.218-.38-.226-11.072-6.4,2.52-1.462,11.084,6.4.761.448,4.193,2.409,33.969,19.616Zm3.289-1.894-33.961-19.616-4.181-2.417-.765-.436-11.08-6.4,2.528-1.462,11.092,6.392.753.448,4.193,2.421L231.3,387.927Zm3.3-1.89L198.1,367.871l-4.185-2.425-.376-.21-.388-.21-11.08-6.408,2.512-1.466,11.1,6.4.769.432,4.177,2.413,33.957,19.636Zm3.285-1.91-33.969-19.6-4.169-2.429-.392-.226-.38-.21-11.084-6.408,2.528-1.458,11.084,6.4.376.222.4.222,4.181,2.413,33.957,19.612Zm3.293-1.89-33.965-19.624-4.177-2.413-.761-.444L188.649,354.8l2.512-1.442,11.1,6.4.769.436,4.177,2.417,33.969,19.616Zm3.3-1.91-33.969-19.62-4.2-2.4-.749-.452-11.1-6.4,2.532-1.462,11.084,6.412.761.444,4.193,2.417,33.945,19.608Zm3.273-1.894-33.953-19.612-4.185-2.421-.769-.44-11.092-6.4,2.52-1.466,11.092,6.416.769.432,4.2,2.429,33.949,19.608Zm3.289-1.9-33.957-19.608-4.189-2.421-.376-.234-.38-.218-11.1-6.4,2.152-1.256,11.092,6.416.769.444,4.185,2.425,33.953,19.6Z" transform="translate(-174.272 -342.928)" fill="#bbbcbd"/>
        </g>
        <g id="Grupo_1003390" data-name="Grupo 1003390" transform="translate(36.389 58.54)">
          <path id="Trazado_712971" data-name="Trazado 712971" d="M216.992,384.925v83.81l-61.036-35.243V349.654Z" transform="translate(-155.956 -349.654)" fill="#cad2da"/>
        </g>
        <g id="Grupo_1003391" data-name="Grupo 1003391" transform="translate(36.385)">
          <path id="Trazado_712972" data-name="Trazado 712972" d="M318.357,370.156l-72.8,42.031-.387.221-28.177,16.269-61.04-35.255,101.323-58.54,53.083,30.665.395.225Z" transform="translate(-155.955 -334.882)" fill="#f5f5f7"/>
          <path id="Trazado_712973" data-name="Trazado 712973" d="M257.279,334.882l-45,26.008-.02-.02-56.307,32.55,53.066,30.648.368.23,7.6,4.379,45.045-25.988,56.319-32.535Zm4.525,67.407-44.811,25.873-7.141-4.137-.4-.206-52.6-30.4,55.407-32.011h.02l.226-.123L257.279,335.4l60.187,34.758-55.408,32Z" transform="translate(-155.955 -334.881)" fill="#fcfcfc"/>
        </g>
        <g id="Grupo_1003393" data-name="Grupo 1003393" transform="translate(145.452 35.263)">
          <path id="Trazado_712974" data-name="Trazado 712974" d="M236.806,360.924v.267H236.8l-29,16.753-.712.41-1.341.766-.474.286-1.577.9-.474.283-1.583.906-.474.275-1.571.91-.482.271-1.571.909-.47.275-1.575.909-.482.275-1.571.909-.474.283-1.575.909-.485.267-1.568.905-.474.279-1.575.913-.474.275-1.575.913-.478.267-1.281.739V374.569L236.8,343.78Z" transform="translate(-183.477 -343.78)" fill="#eef0f3"/>
          <path id="Trazado_712975" data-name="Trazado 712975" d="M183.478,402.021l53.333-30.8h0l0-8.548-53.329,30.785Z" transform="translate(-183.477 -287.797)" fill="#eef0f3"/>
          <path id="Trazado_712976" data-name="Trazado 712976" d="M203.934,367.429l-.483.273-1.573.915-.48.27-1.569.915-.468.266-1.589.915-.472.273-1.569.907-.48.274-1.577.915-.475.281-1.569.9-.479.278-1.573.9-.475.27-1.581.915-.472.277,2.611,1.51.476-.281,1.573-.907.479-.27,1.569-.919.483-.273,1.577-.907.468-.277,1.577-.9.476-.273,1.569-.915.472-.273,1.585-.9.476-.282,1.573-.907.476-.273,1.581-.912.472-.273Zm32.871-18.978v-.277h0l-29,16.751-.713.412-1.339.765-.475.289-1.577.9-.476.281-1.581.907-.475.273-1.569.911-.484.27-1.569.911-.472.274-1.573.907-.483.277-1.569.908-.476.285-1.573.907-.487.266-1.569.907-.471.277-1.577.915-.472.274-1.577.915-.476.265-1.284.737v57.472l53.327-30.783h0Zm-50.474,32.158,1.272-.745.491-.269,1.565-.9.476-.281,1.573-.907.479-.27,1.569-.919.483-.273,1.577-.907.468-.277,1.577-.9.476-.273,1.569-.915.472-.273,1.585-.9.476-.282,1.573-.907.476-.273,1.581-.912.472-.273,1.577-.9.472-.282,1.335-.769.713-.416,23.313-13.454.016,50.878L186.331,431.5Z" transform="translate(-183.478 -330.763)" fill="#eef0f3"/>
          <path id="Trazado_712977" data-name="Trazado 712977" d="M231.833,400.3l-2.386,1.377L184.2,427.809V376.917l39.4-22.751,8.22-4.745v9.922l0,6.455Z" transform="translate(-181.344 -327.068)" opacity="0.4" fill="url(#linear-gradient-4)"/>
          <path id="Trazado_712978" data-name="Trazado 712978" d="M231.833,400.3,184.2,427.809v-.553L230.881,400.3l-.008-50.328.944-.55Z" transform="translate(-181.344 -327.068)" fill="#d6e1e7"/>
          <path id="Trazado_712979" data-name="Trazado 712979" d="M204.154,350.852,193.146,357.2v-5.244l11.008-6.354Z" transform="translate(-154.834 -338.376)" fill="#393836"/>
          <g id="Grupo_1003392" data-name="Grupo 1003392" transform="translate(41.383 10.425)">
            <path id="Trazado_712980" data-name="Trazado 712980" d="M194.02,349.7v.123l.919-.539v-.119Zm.317-2.338-.309.527.079.044.246-.432-.008,1.831-.325.186v.119l.333-.19.1-.06v-2.1Zm.273,1.815v-2.156l-.341.19-.349.618.075.032.325-.551.182-.107v2.148l.107-.051.329-.2v-.119Z" transform="translate(-193.921 -344.61)" fill="#fc351c"/>
            <path id="Trazado_712981" data-name="Trazado 712981" d="M194.459,348.7l-.091.071v1.015l1.189-.69v-1.018Zm.991.333-.991.575v-.781l.991-.571Zm.269-1.439v-.86l-1.51.86v2.461l1.51-.868v-1.375l-1.26.705v-.769l.991-.559v.559l.107-.063V347l-1.189.69v1.022l.091-.051,1.145-.666v1.137l-1.292.741v-1.185l0-1.014,1.3-.761v.761Z" transform="translate(-193.068 -345.451)" fill="#fc351c"/>
            <path id="Trazado_712982" data-name="Trazado 712982" d="M194.809,346.864c-.036.262-.107.65-.166.88l.162-.111a9.784,9.784,0,0,0,.266-.951Z" transform="translate(-191.782 -345.608)" fill="#fc351c"/>
            <path id="Trazado_712983" data-name="Trazado 712983" d="M194.93,347.37v1.018l1.082-.626.111-.06v-1.014Zm1.082.269-.979.567v-.769l.979-.571Zm-1.244-.361v1.379l1.244-.721v.781l-.979.563v-.563l-.1.063v.682l1.193-.686v-1.018l-.111.063-1.141.654v-1.13l1.3-.761V348.8l-1.3.753V348.8l-.1.063v.872l1.51-.872v-2.457Z" transform="translate(-191.415 -346.411)" fill="#fc351c"/>
          </g>
          <path id="Trazado_712984" data-name="Trazado 712984" d="M229.443,350.14v9.926L184.2,405.309v-13.4l37.025-37.027Z" transform="translate(-181.344 -324.939)" fill="#fff" opacity="0.4" style="mix-blend-mode: overlay;isolation: isolate"/>
          <path id="Trazado_712985" data-name="Trazado 712985" d="M229.447,387.3,184.2,413.435V399.527l45.245-45.255Z" transform="translate(-181.344 -312.694)" fill="#fff" opacity="0.4" style="mix-blend-mode: overlay;isolation: isolate"/>
        </g>
        <path id="Trazado_712986" data-name="Trazado 712986" d="M219.4,351.553v83.431l-19.474,11.409-.453.279-28.111,16.447V379.285l28.111-16.219.453-.271Z" transform="translate(-73.934 -285.49)" fill="#eef0f3"/>
        <g id="Grupo_1003394" data-name="Grupo 1003394" transform="translate(125.536 77.305)">
          <path id="Trazado_712987" data-name="Trazado 712987" d="M178.9,354.39v83.6l-.453.279V354.661Z" transform="translate(-178.452 -354.39)" fill="#cccdce"/>
        </g>
        <g id="Grupo_1003395" data-name="Grupo 1003395" transform="translate(117.626 72.692)">
          <path id="Trazado_712988" data-name="Trazado 712988" d="M184.819,357.838l-.387.221-7.612-4.377-.364-.228.389-.228.377.228Z" transform="translate(-176.456 -353.226)" fill="#cccdce"/>
        </g>
        <g id="Grupo_1003396" data-name="Grupo 1003396" transform="translate(117.626 30.665)">
          <path id="Trazado_712989" data-name="Trazado 712989" d="M250.017,342.845l-72.795,42.031-.4.228-.364-.228.389-.228,72.777-42.027Z" transform="translate(-176.456 -342.62)" fill="#cccdce"/>
        </g>
        <g id="Grupo_1003397" data-name="Grupo 1003397" transform="translate(89.451 57.851)">
          <path id="Trazado_712990" data-name="Trazado 712990" d="M223.985,349.716l-53.807,31.056-.464.274-.368-.232.434-.248,53.811-31.087Z" transform="translate(-169.346 -349.481)" fill="#cccdce"/>
        </g>
        <g id="Grupo_1003398" data-name="Grupo 1003398" transform="translate(113.167 90.076)">
          <path id="Trazado_712991" data-name="Trazado 712991" d="M181.529,357.861l2.132,1.225-1.145,1.989a8.355,8.355,0,0,1-2.841,4.91l-1.145,1.993-2.128-1.232h0a2.545,2.545,0,0,1-1.07-2.35,8.04,8.04,0,0,1,3.63-6.285A2.52,2.52,0,0,1,181.529,357.861Z" transform="translate(-175.331 -357.612)" fill="#757575"/>
          <path id="Trazado_712992" data-name="Trazado 712992" d="M178.663,361.529l-.273.468-2.128-1.232h0a2.043,2.043,0,0,1-.884-1.133Z" transform="translate(-175.192 -351.632)" fill="#bdbdbd"/>
          <path id="Trazado_712993" data-name="Trazado 712993" d="M181.154,361.306a7.619,7.619,0,0,1-.606.991l-5.045-2.921a8.776,8.776,0,0,1,.547-1.022Z" transform="translate(-174.821 -355.415)" fill="#bdbdbd"/>
          <path id="Trazado_712994" data-name="Trazado 712994" d="M180.653,360.018l-.337.59-4.224-2.437a6.9,6.9,0,0,1,.614-.432Z" transform="translate(-173.076 -357.237)" fill="#bdbdbd"/>
          <path id="Trazado_712995" data-name="Trazado 712995" d="M180.046,359.976l-3.669-2.12a2.288,2.288,0,0,1,2.057,0l2.132,1.225Z" transform="translate(-172.235 -357.608)" fill="#bdbdbd"/>
          <path id="Trazado_712996" data-name="Trazado 712996" d="M183.123,360.516c0-2.314-1.625-3.253-3.622-2.092a7.994,7.994,0,0,0-3.63,6.277c0,2.314,1.621,3.253,3.63,2.092A8.018,8.018,0,0,0,183.123,360.516Z" transform="translate(-173.731 -356.685)" fill="#e0e0e0"/>
        </g>
        <g id="Grupo_1003399" data-name="Grupo 1003399" transform="translate(112.613 103.397)">
          <path id="Trazado_712997" data-name="Trazado 712997" d="M181.385,361.216l2.136,1.236-1.157,1.985a8.354,8.354,0,0,1-2.829,4.914l-1.141,1.981-2.14-1.232h0a2.55,2.55,0,0,1-1.062-2.346,8.049,8.049,0,0,1,3.626-6.289A2.558,2.558,0,0,1,181.385,361.216Z" transform="translate(-175.191 -360.974)" fill="#757575"/>
          <path id="Trazado_712998" data-name="Trazado 712998" d="M178.517,364.88l-.27.468-2.14-1.232h0a2,2,0,0,1-.868-1.121Z" transform="translate(-175.046 -354.989)" fill="#bdbdbd"/>
          <path id="Trazado_712999" data-name="Trazado 712999" d="M181.014,364.661a9.487,9.487,0,0,1-.6.995l-5.049-2.92a7.43,7.43,0,0,1,.551-1.018Z" transform="translate(-174.681 -358.772)" fill="#bdbdbd"/>
          <path id="Trazado_713000" data-name="Trazado 713000" d="M180.514,363.393l-.341.578-4.22-2.425a5.681,5.681,0,0,1,.606-.448Z" transform="translate(-172.933 -360.606)" fill="#bdbdbd"/>
          <path id="Trazado_713001" data-name="Trazado 713001" d="M179.912,363.336l-3.677-2.12a2.287,2.287,0,0,1,2.057,0l2.136,1.236Z" transform="translate(-172.098 -360.974)" fill="#bdbdbd"/>
          <path id="Trazado_713002" data-name="Trazado 713002" d="M182.986,363.874c0-2.31-1.617-3.249-3.63-2.092a8.033,8.033,0,0,0-3.626,6.281c0,2.31,1.633,3.25,3.626,2.1A8,8,0,0,0,182.986,363.874Z" transform="translate(-173.594 -360.049)" fill="#e0e0e0"/>
        </g>
        <path id="Trazado_713003" data-name="Trazado 713003" d="M200.576,352.969l-11,6.358V354.08l11-6.354Z" transform="translate(-19.958 -296.829)" fill="#393836"/>
        <g id="Grupo_1003400" data-name="Grupo 1003400" transform="translate(172.684 54.089)">
          <path id="Trazado_713004" data-name="Trazado 713004" d="M190.445,351.82v.115l.919-.535v-.119Zm.313-2.338-.305.519.079.044.246-.424v1.823l-.333.19v.127l.333-.2.1-.052v-2.1Zm.269,1.815v-2.156l-.333.194-.345.606.075.04.313-.551.19-.111v2.152l.1-.06.337-.19V351.1Z" transform="translate(-190.35 -346.724)" fill="#fc351c"/>
          <path id="Trazado_713005" data-name="Trazado 713005" d="M190.9,350.826l-.1.063v1.018l1.185-.686V350.2Zm.991.329-.991.575v-.777l.991-.571Zm.25-1.431v-.868l-1.506.868v2.453l1.506-.872v-1.371l-1.24.709v-.773l.991-.563v.563l.1-.063v-.694l-1.185.694v1.026l.1-.064,1.141-.654v1.137l-1.288.741v-1.2l-.008-1.01,1.3-.757v.757Z" transform="translate(-189.506 -347.568)" fill="#fc351c"/>
          <path id="Trazado_713006" data-name="Trazado 713006" d="M191.241,348.986c-.044.253-.115.642-.17.88l.162-.115a7.488,7.488,0,0,0,.269-.947Z" transform="translate(-188.214 -347.722)" fill="#fc351c"/>
          <path id="Trazado_713007" data-name="Trazado 713007" d="M191.355,349.494v1.023l1.086-.63.107-.063v-1.011Zm1.086.277-.983.567v-.785l.983-.563Zm-1.244-.361v1.375l1.244-.721v.777l-.983.571v-.571l-.1.063v.686l1.193-.686v-1.018l-.107.055-1.145.658v-1.137l1.3-.749v2.219l-1.3.741v-.741l-.1.064v.864l1.51-.872v-2.457Z" transform="translate(-187.844 -348.531)" fill="#fc351c"/>
        </g>
        <g id="Grupo_1003401" data-name="Grupo 1003401" transform="translate(101.755 96.156)">
          <path id="Trazado_713008" data-name="Trazado 713008" d="M172.451,364.313l.42.205,3.561-2.5.426-2.67-.426-.2-3.98,2.3Z" transform="translate(-172.451 -359.147)" fill="#004d40"/>
          <path id="Trazado_713009" data-name="Trazado 713009" d="M172.557,364.371l3.986-2.3V359.2l-3.986,2.3Z" transform="translate(-172.137 -358.999)" fill="#b2dfdb"/>
        </g>
        <g id="Grupo_1003402" data-name="Grupo 1003402" transform="translate(101.755 103.973)">
          <path id="Trazado_713010" data-name="Trazado 713010" d="M172.451,366.282l.42.2,3.561-2.512.426-2.655-.426-.2-3.98,2.295Z" transform="translate(-172.451 -361.119)" fill="#e65100"/>
          <path id="Trazado_713011" data-name="Trazado 713011" d="M172.557,366.336l3.986-2.3V361.17l-3.986,2.295Z" transform="translate(-172.137 -360.969)" fill="#ffab40"/>
        </g>
        <g id="Grupo_1003403" data-name="Grupo 1003403" transform="translate(101.755 100.219)">
          <path id="Trazado_713012" data-name="Trazado 713012" d="M172.451,365.334l.42.209,3.561-2.5.426-2.659-.426-.209-3.98,2.3Z" transform="translate(-172.451 -360.172)" fill="#727272"/>
          <path id="Trazado_713013" data-name="Trazado 713013" d="M172.557,365.387l3.986-2.3v-2.864l-3.986,2.295Z" transform="translate(-172.137 -360.016)" fill="#bbbbbd"/>
        </g>
        <g id="Grupo_1003404" data-name="Grupo 1003404" transform="translate(101.966 115.4)">
          <path id="Trazado_713014" data-name="Trazado 713014" d="M172.5,369.169l.422.2,3.565-2.508.42-2.659-.42-.2L172.5,366.3Z" transform="translate(-172.504 -364.003)" fill="#004d40"/>
          <path id="Trazado_713015" data-name="Trazado 713015" d="M172.611,369.22l3.984-2.3v-2.867l-3.984,2.3Z" transform="translate(-172.189 -363.852)" fill="#8bc34a"/>
        </g>
        <g id="Grupo_1003405" data-name="Grupo 1003405" transform="translate(102.175 122.869)">
          <path id="Trazado_713016" data-name="Trazado 713016" d="M172.557,371.058l.422.209,3.564-2.508.422-2.666-.422-.205-3.986,2.306Z" transform="translate(-172.557 -365.888)" fill="#bf360c"/>
          <path id="Trazado_713017" data-name="Trazado 713017" d="M172.664,371.113l3.986-2.3V365.94l-3.986,2.306Z" transform="translate(-172.242 -365.734)" fill="#ff5722"/>
        </g>
        <g id="Grupo_1003406" data-name="Grupo 1003406" transform="translate(101.966 111.213)">
          <path id="Trazado_713018" data-name="Trazado 713018" d="M172.5,368.117l.422.2,3.565-2.5.42-2.655-.42-.213-3.986,2.3Z" transform="translate(-172.504 -362.946)" fill="#727272"/>
          <path id="Trazado_713019" data-name="Trazado 713019" d="M172.611,368.155l3.984-2.295V363l-3.984,2.295Z" transform="translate(-172.189 -362.787)" fill="#bbbbbd"/>
        </g>
        <path id="Trazado_713020" data-name="Trazado 713020" d="M192.721,376.55c0,6.479-4.545,14.357-10.157,17.595s-10.165.618-10.165-5.869,4.549-14.349,10.165-17.591S192.721,370.067,192.721,376.55Z" transform="translate(-70.848 -232.927)" fill="#484847"/>
        <g id="Grupo_1003420" data-name="Grupo 1003420" transform="translate(101.992 136.935)">
          <g id="Grupo_1003413" data-name="Grupo 1003413">
            <g id="Grupo_1003407" data-name="Grupo 1003407">
              <path id="Trazado_713021" data-name="Trazado 713021" d="M182.232,393.217c-5.362,3.1-9.721.575-9.721-5.611s4.359-13.743,9.721-16.842,9.725-.583,9.725,5.611S187.6,390.118,182.232,393.217Zm0-21.922c-5.1,2.948-9.253,10.145-9.253,16.037s4.153,8.29,9.257,5.35,9.253-10.145,9.253-16.037S187.34,368.351,182.232,371.295Z" transform="translate(-172.511 -369.437)" fill="#cccdce"/>
            </g>
            <g id="Grupo_1003408" data-name="Grupo 1003408" transform="translate(1.573 2.038)">
              <path id="Trazado_713022" data-name="Trazado 713022" d="M181.059,389.871c-4.49,2.588-8.151.479-8.151-4.7s3.662-11.516,8.147-14.111,8.151-.48,8.151,4.7S185.545,387.275,181.059,389.871Zm0-18.272a17.018,17.018,0,0,0-7.68,13.3c0,4.882,3.452,6.875,7.68,4.43a16.98,16.98,0,0,0,7.676-13.3C188.731,371.146,185.292,369.157,181.055,371.6Z" transform="translate(-172.908 -369.951)" fill="#cccdce"/>
            </g>
            <g id="Grupo_1003409" data-name="Grupo 1003409" transform="translate(3.158 4.086)">
              <path id="Trazado_713023" data-name="Trazado 713023" d="M179.87,386.509c-3.614,2.092-6.562.392-6.562-3.784a14.543,14.543,0,0,1,6.562-11.365c3.61-2.084,6.562-.384,6.562,3.788A14.546,14.546,0,0,1,179.87,386.509Zm0-14.6a13.475,13.475,0,0,0-6.087,10.545c0,3.883,2.734,5.457,6.087,3.519a13.488,13.488,0,0,0,6.091-10.549C185.961,371.541,183.227,369.964,179.87,371.906Z" transform="translate(-173.308 -370.468)" fill="#cccdce"/>
            </g>
            <g id="Grupo_1003410" data-name="Grupo 1003410" transform="translate(4.735 6.125)">
              <path id="Trazado_713024" data-name="Trazado 713024" d="M178.7,383.157c-2.754,1.585-4.989.3-4.989-2.873a10.989,10.989,0,0,1,4.985-8.619c2.746-1.593,4.981-.3,4.981,2.877A11.024,11.024,0,0,1,178.7,383.157Zm0-10.961a9.986,9.986,0,0,0-4.51,7.818c0,2.865,2.021,4.042,4.51,2.608a9.974,9.974,0,0,0,4.51-7.819C183.2,371.938,181.18,370.769,178.691,372.2Z" transform="translate(-173.706 -370.983)" fill="#cccdce"/>
            </g>
            <g id="Grupo_1003411" data-name="Grupo 1003411" transform="translate(6.321 8.163)">
              <path id="Trazado_713025" data-name="Trazado 713025" d="M177.506,379.81c-1.874,1.082-3.4.206-3.4-1.958a7.516,7.516,0,0,1,3.4-5.893c1.874-1.082,3.4-.2,3.4,1.965A7.526,7.526,0,0,1,177.506,379.81Zm0-7.307a6.5,6.5,0,0,0-2.925,5.076c0,1.866,1.32,2.623,2.925,1.692a6.469,6.469,0,0,0,2.928-5.076C180.435,372.329,179.127,371.568,177.506,372.5Z" transform="translate(-174.106 -371.497)" fill="#cccdce"/>
            </g>
            <g id="Grupo_1003412" data-name="Grupo 1003412" transform="translate(7.914 10.209)">
              <path id="Trazado_713026" data-name="Trazado 713026" d="M176.315,376.454c-1.007.575-1.807.1-1.807-1.046a4.03,4.03,0,0,1,1.807-3.154c1-.567,1.811-.1,1.811,1.062A4.027,4.027,0,0,1,176.315,376.454Zm0-3.654a2.983,2.983,0,0,0-1.347,2.334c0,.856.606,1.2,1.347.777a2.94,2.94,0,0,0,1.343-2.334C177.658,372.721,177.064,372.373,176.315,372.8Z" transform="translate(-174.508 -372.013)" fill="#cccdce"/>
            </g>
          </g>
          <g id="Grupo_1003419" data-name="Grupo 1003419" transform="translate(0.628 0.415)">
            <g id="Grupo_1003414" data-name="Grupo 1003414" transform="translate(8.86 12.001)">
              <path id="Trazado_713027" data-name="Trazado 713027" d="M175.37,383.522l-.464.279V372.837l.464-.267Z" transform="translate(-174.905 -372.57)" fill="#cccdce"/>
            </g>
            <g id="Grupo_1003415" data-name="Grupo 1003415" transform="translate(9.021 10.012)">
              <path id="Trazado_713028" data-name="Trazado 713028" d="M183.972,372.664l-9.026,1.83.147-.6,9.017-1.83Z" transform="translate(-174.946 -372.068)" fill="#cccdce"/>
            </g>
            <g id="Grupo_1003416" data-name="Grupo 1003416" transform="translate(8.905)">
              <path id="Trazado_713029" data-name="Trazado 713029" d="M175.292,381.724l-.375-.1,5.582-12.086.373.1Z" transform="translate(-174.917 -369.542)" fill="#cccdce"/>
            </g>
            <g id="Grupo_1003417" data-name="Grupo 1003417" transform="translate(3.328 6.223)">
              <path id="Trazado_713030" data-name="Trazado 713030" d="M179.082,377.3l-5.572-5.654.371-.534,5.58,5.646Z" transform="translate(-173.509 -371.112)" fill="#cccdce"/>
            </g>
            <g id="Grupo_1003418" data-name="Grupo 1003418" transform="translate(0 11.919)">
              <path id="Trazado_713031" data-name="Trazado 713031" d="M172.807,381.578l-.137-.422,9.021-8.607.147.43Z" transform="translate(-172.669 -372.55)" fill="#cccdce"/>
            </g>
          </g>
        </g>
        <g id="Grupo_1003422" data-name="Grupo 1003422" transform="translate(62.265 145.861)">
          <path id="Trazado_713032" data-name="Trazado 713032" d="M173.681,382.506a2.26,2.26,0,0,1-.848,1.692,3.5,3.5,0,0,1-.8.594,5.016,5.016,0,0,1-.547.277,8.548,8.548,0,0,1-3.345.658,7.619,7.619,0,0,1-.908-.036,5.412,5.412,0,0,1-.567-.067,7.07,7.07,0,0,1-2.528-.832,3.98,3.98,0,0,1-.547-.365h0c-.1-.071-.178-.155-.262-.23a2.132,2.132,0,0,1,0-3.392,3.6,3.6,0,0,1,.808-.587,7.032,7.032,0,0,1,2.544-.836,7.85,7.85,0,0,1,1.434-.1,8.3,8.3,0,0,1,3.368.666,3.531,3.531,0,0,1,.547.273,3.483,3.483,0,0,1,.8.587A2.281,2.281,0,0,1,173.681,382.506Z" transform="translate(-162.486 -349.205)" fill="#aadbe8" style="mix-blend-mode: multiply;isolation: isolate"/>
          <path id="Trazado_713033" data-name="Trazado 713033" d="M172.2,382.146a1.975,1.975,0,0,1-.713,1.447,3.192,3.192,0,0,1-.678.5,4.7,4.7,0,0,1-.468.238,7.315,7.315,0,0,1-2.845.559,6.6,6.6,0,0,1-1.252-.087,6.062,6.062,0,0,1-2.156-.709,3.555,3.555,0,0,1-.682-.5,1.823,1.823,0,0,1,0-2.893,3.551,3.551,0,0,1,.682-.5,5.97,5.97,0,0,1,2.168-.706,6.6,6.6,0,0,1,1.217-.1,7.144,7.144,0,0,1,2.869.563,4.009,4.009,0,0,1,.468.242,3.189,3.189,0,0,1,.678.5A1.962,1.962,0,0,1,172.2,382.146Z" transform="translate(-161.858 -348.845)" fill="#fff" opacity="0.6"/>
          <path id="Trazado_713034" data-name="Trazado 713034" d="M173.681,382.389a2.165,2.165,0,0,1-.848,1.625,3.7,3.7,0,0,1-.8.571,3.834,3.834,0,0,1-.547.254,8.837,8.837,0,0,1-3.345.646,8.72,8.72,0,0,1-1.474-.1,7.285,7.285,0,0,1-2.528-.8,3.829,3.829,0,0,1-.808-.571,1.991,1.991,0,0,1,0-3.249,3.978,3.978,0,0,1,.808-.571,7.489,7.489,0,0,1,2.544-.8,8.207,8.207,0,0,1,1.434-.107c.226,0,.456.012.689.024a8.29,8.29,0,0,1,2.679.618,5.817,5.817,0,0,1,.547.262,3.835,3.835,0,0,1,.8.571,2.442,2.442,0,0,1,.757,1.082A1.61,1.61,0,0,1,173.681,382.389Z" transform="translate(-162.486 -349.171)" fill="#a8efeb" opacity="0.5"/>
          <path id="Trazado_713035" data-name="Trazado 713035" d="M166.434,380.92l-.812,1.744-.044.257v.214a6.738,6.738,0,0,1-2.267-.789,3.98,3.98,0,0,1-.547-.365v-.468l1.478-1.165.289-.246a3.647,3.647,0,0,0,1.232.67c.083.02.159.04.23.063h.02C166.164,380.873,166.3,380.9,166.434,380.92Z" transform="translate(-161.662 -346.759)" fill="#7cd1e8" opacity="0.5" style="mix-blend-mode: multiply;isolation: isolate"/>
          <path id="Trazado_713036" data-name="Trazado 713036" d="M164.339,380.608l-.523,1.728-.048.194a5.563,5.563,0,0,0,1.72-.067,9.048,9.048,0,0,0,2.223-.666c-.258-.2-1.5-1.569-1.5-1.569a3.962,3.962,0,0,1-.828.277A5.09,5.09,0,0,1,164.339,380.608Z" transform="translate(-158.688 -346.392)" fill="#fff" opacity="0.6"/>
          <path id="Trazado_713037" data-name="Trazado 713037" d="M168.867,381.828l-.313-.162-4.474-.075V379.3a8.29,8.29,0,0,1,2.679.618,5.81,5.81,0,0,1,.547.262,3.836,3.836,0,0,1,.8.571A2.442,2.442,0,0,1,168.867,381.828Z" transform="translate(-157.763 -349.153)" fill="#fff" opacity="0.6"/>
          <path id="Trazado_713038" data-name="Trazado 713038" d="M169.441,381.225a1.288,1.288,0,0,1-.475.955,3.117,3.117,0,0,1-.452.345c-.1.044-.21.1-.313.151a5.157,5.157,0,0,1-1.9.38,4.758,4.758,0,0,1-.832-.063,4.452,4.452,0,0,1-1.439-.468,3.161,3.161,0,0,1-.456-.345,1.293,1.293,0,0,1-.48-.955,1.318,1.318,0,0,1,.48-.971,2.013,2.013,0,0,1,.456-.329,3.707,3.707,0,0,1,1.446-.467,3.426,3.426,0,0,1,.812-.068,4.9,4.9,0,0,1,1.91.369c.1.048.214.115.313.166a1.989,1.989,0,0,1,.452.329A1.313,1.313,0,0,1,169.441,381.225Z" transform="translate(-160.676 -348.879)" fill="#aadbe8" style="mix-blend-mode: multiply;isolation: isolate"/>
          <path id="Trazado_713039" data-name="Trazado 713039" d="M168.607,381.022a1.083,1.083,0,0,1-.4.812,2.186,2.186,0,0,1-.388.281,2.28,2.28,0,0,1-.262.135,4.03,4.03,0,0,1-1.617.317,4.28,4.28,0,0,1-.709-.047,3.468,3.468,0,0,1-1.221-.4,1.976,1.976,0,0,1-.38-.281,1.024,1.024,0,0,1,0-1.637,1.834,1.834,0,0,1,.38-.285,3.2,3.2,0,0,1,1.232-.392,3.267,3.267,0,0,1,.686-.063,4.064,4.064,0,0,1,1.629.321c.087.048.186.087.262.135a2.016,2.016,0,0,1,.388.285A1.087,1.087,0,0,1,168.607,381.022Z" transform="translate(-160.317 -348.676)" fill="#aadbe8" style="mix-blend-mode: multiply;isolation: isolate"/>
          <path id="Trazado_713040" data-name="Trazado 713040" d="M168.607,372.544v29.915a3.117,3.117,0,0,1-.452.345c-.1.044-.21.1-.313.151a5.156,5.156,0,0,1-1.9.38,4.755,4.755,0,0,1-.832-.063,4.452,4.452,0,0,1-1.439-.468,3.166,3.166,0,0,1-.456-.345V372.544c.071.047.139.091.214.135a4.807,4.807,0,0,0,1.74.559,6.717,6.717,0,0,0,.693.044h.052a5.338,5.338,0,0,0,1.926-.337,3.73,3.73,0,0,0,.551-.265A1.551,1.551,0,0,0,168.607,372.544Z" transform="translate(-160.317 -369.158)" fill="#aad0e8" opacity="0.5" style="mix-blend-mode: multiply;isolation: isolate"/>
          <path id="Trazado_713041" data-name="Trazado 713041" d="M169.441,372.146v30.537a1.288,1.288,0,0,1-.475.955,3.116,3.116,0,0,1-.452.345c-.1.044-.21.1-.313.151a5.157,5.157,0,0,1-1.9.38,4.752,4.752,0,0,1-.832-.063,4.452,4.452,0,0,1-1.439-.468,3.161,3.161,0,0,1-.456-.345,1.293,1.293,0,0,1-.48-.955V372.146a1.372,1.372,0,0,0,.567,1.042.844.844,0,0,0,.178.135c.059.044.119.079.19.127a4.072,4.072,0,0,0,1.506.472,5.58,5.58,0,0,0,.686.055,5.023,5.023,0,0,0,1.977-.372c.1-.052.214-.1.313-.155a2.009,2.009,0,0,0,.373-.262A1.407,1.407,0,0,0,169.441,372.146Z" transform="translate(-160.676 -370.337)" fill="#a8efeb" opacity="0.5"/>
          <path id="Trazado_713042" data-name="Trazado 713042" d="M165.18,373.153v.028c0,.1,0,.262-.008.5,0,1.585-.012,6.17-.036,10.731-.008,2.187-.008,13.905-.016,15.768,0,1.419,0,2.647-.008,3.535a4.451,4.451,0,0,1-1.439-.468,3.164,3.164,0,0,1-.456-.345V372.4c.087.056.178.131.266.186.059.044.119.079.19.127A3.9,3.9,0,0,0,165.18,373.153Z" transform="translate(-160.317 -369.596)" fill="#7cd1e8" opacity="0.5" style="mix-blend-mode: multiply;isolation: isolate"/>
          <path id="Trazado_713043" data-name="Trazado 713043" d="M165.863,372.493v30.612a5.156,5.156,0,0,1-1.9.38c0-.931-.008-2.207-.012-3.666-.032-5.726-.059-23.919-.067-26.388v-.686A4.072,4.072,0,0,0,165.863,372.493Z" transform="translate(-158.338 -369.309)" fill="#fff" opacity="0.6"/>
          <path id="Trazado_713044" data-name="Trazado 713044" d="M168.513,372.219a1.373,1.373,0,0,1,0,2.6,4.986,4.986,0,0,1-4.482,0,1.372,1.372,0,0,1,0-2.6A5.011,5.011,0,0,1,168.513,372.219Z" transform="translate(-160.674 -371.69)" fill="#78efff" opacity="0.5"/>
          <path id="Trazado_713045" data-name="Trazado 713045" d="M168.1,374.141a2.117,2.117,0,0,0-.333-.234,4.02,4.02,0,0,0-2.211-.444,4.742,4.742,0,0,0-.539.075.954.954,0,0,0-.19.047,3.194,3.194,0,0,0-.82.321c-.071.044-.139.083-.2.131a1.144,1.144,0,0,0-.131.1,1.071,1.071,0,0,1,.131-1.819c.063-.04.131-.087.2-.127a2.813,2.813,0,0,1,.82-.321c.063-.016.135-.036.19-.048a4.77,4.77,0,0,1,.539-.075,3.986,3.986,0,0,1,2.211.444C168.687,372.722,168.794,373.539,168.1,374.141Z" transform="translate(-160.29 -371.539)" fill="#7cd1e8" style="mix-blend-mode: multiply;isolation: isolate"/>
          <path id="Trazado_713046" data-name="Trazado 713046" d="M167.766,372.856a1.687,1.687,0,0,1-.333.226,4.116,4.116,0,0,1-3.761,0,1.581,1.581,0,0,1-.333-.226,1.952,1.952,0,0,1,.333-.234,4.164,4.164,0,0,1,3.761,0A2.118,2.118,0,0,1,167.766,372.856Z" transform="translate(-159.956 -370.255)" fill="#6fd2e2" style="mix-blend-mode: multiply;isolation: isolate"/>
          <path id="Trazado_713047" data-name="Trazado 713047" d="M167.766,372.856c-.063.047-.131.107-.2.15a.825.825,0,0,0-.131-.083,4.164,4.164,0,0,0-3.761,0,1.455,1.455,0,0,0-.131.083c-.071-.051-.143-.1-.2-.15a1.952,1.952,0,0,1,.333-.234,4.164,4.164,0,0,1,3.761,0A2.118,2.118,0,0,1,167.766,372.856Z" transform="translate(-159.956 -370.255)" fill="#aadbe8" style="mix-blend-mode: multiply;isolation: isolate"/>
          <path id="Trazado_713048" data-name="Trazado 713048" d="M164.4,371.774v1.712a3.194,3.194,0,0,0-.82.321c-.071.044-.139.083-.2.131v-1.716c.063-.04.131-.087.2-.127A2.811,2.811,0,0,1,164.4,371.774Z" transform="translate(-159.858 -371.439)" fill="#fff" opacity="0.4"/>
          <path id="Trazado_713049" data-name="Trazado 713049" d="M164.218,371.743v1.712a4.742,4.742,0,0,0-.539.075v-1.712A4.777,4.777,0,0,1,164.218,371.743Z" transform="translate(-158.951 -371.531)" fill="#fff" opacity="0.4"/>
          <g id="Grupo_1003421" data-name="Grupo 1003421" transform="translate(3.127 9.144)">
            <path id="Trazado_713050" data-name="Trazado 713050" d="M165.645,374.591v-.171a5.1,5.1,0,0,1-2.318-.4l-.052-.024v22.322c.059.032.087.04.143.071v-.04a4.806,4.806,0,0,0,2.227.448v-.162a4.8,4.8,0,0,1-2.227-.452c0-.622,0-.923,0-1.537a4.773,4.773,0,0,0,2.231.448v-.167a4.863,4.863,0,0,1-2.231-.452v-1.533a4.723,4.723,0,0,0,2.231.452v-.17a4.814,4.814,0,0,1-2.231-.456v-1.526a4.815,4.815,0,0,0,2.231.44v-.17a4.668,4.668,0,0,1-2.231-.444v-1.53a4.926,4.926,0,0,0,2.231.436V389.8a4.7,4.7,0,0,1-2.231-.428v-1.53a4.853,4.853,0,0,0,2.231.42V388.1a4.85,4.85,0,0,1-2.231-.432c-.008-.614-.008-.919-.008-1.53a5.01,5.01,0,0,0,2.239.424v-.174a4.9,4.9,0,0,1-2.239-.424v-1.533a4.92,4.92,0,0,0,2.239.416v-.17a4.959,4.959,0,0,1-2.239-.42v-1.53a4.838,4.838,0,0,0,2.239.412v-.174a5.042,5.042,0,0,1-2.247-.408v-1.53a4.932,4.932,0,0,0,2.247.4v-.17a4.986,4.986,0,0,1-2.247-.4v-1.534a5.018,5.018,0,0,0,2.247.388v-.171a5.127,5.127,0,0,1-2.255-.392v-1.533a5.1,5.1,0,0,0,2.255.388v-.167a5.1,5.1,0,0,1-2.255-.392c0-.614,0-.915,0-1.533a5.365,5.365,0,0,0,2.259.392v-.17a5.123,5.123,0,0,1-2.259-.392v-1.526A5.287,5.287,0,0,0,165.645,374.591Z" transform="translate(-163.275 -373.997)" fill="#e6eaf3"/>
          </g>
        </g>
        <g id="Grupo_1003424" data-name="Grupo 1003424" transform="translate(75.418 145.581)">
          <path id="Trazado_713051" data-name="Trazado 713051" d="M177,382.433a2.3,2.3,0,0,1-.844,1.7,3.819,3.819,0,0,1-.809.6,5.065,5.065,0,0,1-.551.269,8.472,8.472,0,0,1-3.349.666c-.293,0-.6-.008-.9-.036-.19-.024-.376-.048-.563-.075a7.271,7.271,0,0,1-2.532-.824,5,5,0,0,1-.543-.369h0a2.072,2.072,0,0,1-.257-.23,2.122,2.122,0,0,1,0-3.388,3.435,3.435,0,0,1,.8-.59,7.16,7.16,0,0,1,2.548-.84,9.244,9.244,0,0,1,4.8.567,3.954,3.954,0,0,1,.551.273,3.67,3.67,0,0,1,.809.59A2.3,2.3,0,0,1,177,382.433Z" transform="translate(-165.805 -349.13)" fill="#aadbe8" style="mix-blend-mode: multiply;isolation: isolate"/>
          <path id="Trazado_713052" data-name="Trazado 713052" d="M175.525,382.077a1.974,1.974,0,0,1-.717,1.446,3.043,3.043,0,0,1-.674.5,5.234,5.234,0,0,1-.471.234,7.235,7.235,0,0,1-2.849.559,6.263,6.263,0,0,1-1.248-.091,6.066,6.066,0,0,1-2.152-.7,3.441,3.441,0,0,1-.685-.5,1.977,1.977,0,0,1-.709-1.446,1.95,1.95,0,0,1,.709-1.442,3.451,3.451,0,0,1,.685-.5,5.89,5.89,0,0,1,2.172-.705,6.431,6.431,0,0,1,1.209-.1,7.077,7.077,0,0,1,2.869.567,5.25,5.25,0,0,1,.471.234,3.051,3.051,0,0,1,.674.5A1.947,1.947,0,0,1,175.525,382.077Z" transform="translate(-165.174 -348.77)" fill="#fff" opacity="0.6"/>
          <path id="Trazado_713053" data-name="Trazado 713053" d="M177,382.313a2.194,2.194,0,0,1-.844,1.629,4.23,4.23,0,0,1-.809.575,5.069,5.069,0,0,1-.551.254,8.754,8.754,0,0,1-3.349.634,8.668,8.668,0,0,1-4-.888,3.923,3.923,0,0,1-.8-.575,2.181,2.181,0,0,1-.844-1.629,2.153,2.153,0,0,1,.844-1.617,4.08,4.08,0,0,1,.8-.579,7.54,7.54,0,0,1,2.548-.793,8.633,8.633,0,0,1,1.438-.1c.226,0,.46.016.686.024a7.991,7.991,0,0,1,2.675.61c.194.087.38.174.551.262a4.411,4.411,0,0,1,.809.579,2.389,2.389,0,0,1,.753,1.074A1.645,1.645,0,0,1,177,382.313Z" transform="translate(-165.805 -349.093)" fill="#a8efeb" opacity="0.5"/>
          <path id="Trazado_713054" data-name="Trazado 713054" d="M169.753,380.844l-.816,1.744-.044.269v.206a6.822,6.822,0,0,1-2.267-.785,4.986,4.986,0,0,1-.543-.369v-.467l1.478-1.165.289-.242a3.733,3.733,0,0,0,1.232.666c.083.024.166.044.234.063h.02C169.487,380.8,169.626,380.825,169.753,380.844Z" transform="translate(-164.981 -346.681)" fill="#7cd1e8" opacity="0.5" style="mix-blend-mode: multiply;isolation: isolate"/>
          <path id="Trazado_713055" data-name="Trazado 713055" d="M167.65,380.543l-.515,1.72-.048.2a5.7,5.7,0,0,0,1.716-.067,9.037,9.037,0,0,0,2.223-.666c-.254-.2-1.494-1.569-1.494-1.569a4.423,4.423,0,0,1-.828.273A5.2,5.2,0,0,1,167.65,380.543Z" transform="translate(-162.007 -346.317)" fill="#fff" opacity="0.6"/>
          <path id="Trazado_713056" data-name="Trazado 713056" d="M172.186,381.752l-.313-.158-4.474-.075v-2.291a7.99,7.99,0,0,1,2.675.61c.194.087.38.174.551.262a4.41,4.41,0,0,1,.808.579A2.389,2.389,0,0,1,172.186,381.752Z" transform="translate(-161.082 -349.075)" fill="#fff" opacity="0.6"/>
          <path id="Trazado_713057" data-name="Trazado 713057" d="M172.76,381.155a1.286,1.286,0,0,1-.479.959,2.609,2.609,0,0,1-.444.341c-.1.048-.214.107-.317.151a4.955,4.955,0,0,1-1.894.38,4.44,4.44,0,0,1-.836-.063,4.265,4.265,0,0,1-1.439-.468,2.54,2.54,0,0,1-.452-.341,1.2,1.2,0,0,1,0-1.926,2.059,2.059,0,0,1,.452-.333,3.8,3.8,0,0,1,1.446-.468,3.621,3.621,0,0,1,.808-.067,4.851,4.851,0,0,1,1.914.381c.1.043.214.1.317.154a2.1,2.1,0,0,1,.444.333A1.289,1.289,0,0,1,172.76,381.155Z" transform="translate(-163.995 -348.807)" fill="#aadbe8" style="mix-blend-mode: multiply;isolation: isolate"/>
          <path id="Trazado_713058" data-name="Trazado 713058" d="M171.919,380.953a1.063,1.063,0,0,1-.408.816,1.829,1.829,0,0,1-.376.281,2.839,2.839,0,0,1-.269.135,4.067,4.067,0,0,1-1.613.321,3.987,3.987,0,0,1-.713-.052,3.525,3.525,0,0,1-1.217-.4,2.109,2.109,0,0,1-.38-.281,1.1,1.1,0,0,1-.4-.816,1.127,1.127,0,0,1,.4-.828,2.078,2.078,0,0,1,.38-.273,3.177,3.177,0,0,1,1.232-.4,3.267,3.267,0,0,1,.686-.067,4.007,4.007,0,0,1,1.625.333,1.2,1.2,0,0,1,.269.131,1.805,1.805,0,0,1,.376.273A1.091,1.091,0,0,1,171.919,380.953Z" transform="translate(-163.633 -348.604)" fill="#aadbe8" style="mix-blend-mode: multiply;isolation: isolate"/>
          <path id="Trazado_713059" data-name="Trazado 713059" d="M171.919,372.476v29.911a2.6,2.6,0,0,1-.444.341c-.1.048-.214.107-.317.151a4.956,4.956,0,0,1-1.894.38,4.432,4.432,0,0,1-.836-.063,4.265,4.265,0,0,1-1.439-.468,2.541,2.541,0,0,1-.452-.341V372.476c.067.048.139.083.214.127a4.481,4.481,0,0,0,1.736.559,6.636,6.636,0,0,0,.7.048h.048a5.454,5.454,0,0,0,1.926-.337,4.457,4.457,0,0,0,.551-.269A1.276,1.276,0,0,0,171.919,372.476Z" transform="translate(-163.633 -369.08)" fill="#aad0e8" opacity="0.5" style="mix-blend-mode: multiply;isolation: isolate"/>
          <path id="Trazado_713060" data-name="Trazado 713060" d="M172.76,372.074v30.545a1.286,1.286,0,0,1-.479.959,2.6,2.6,0,0,1-.444.341c-.1.048-.214.107-.317.151a4.954,4.954,0,0,1-1.894.38,4.438,4.438,0,0,1-.836-.063,4.265,4.265,0,0,1-1.439-.468,2.536,2.536,0,0,1-.452-.341,1.306,1.306,0,0,1-.483-.959V372.074a1.387,1.387,0,0,0,.571,1.058,1.465,1.465,0,0,0,.17.127,1.01,1.01,0,0,0,.194.123,4.061,4.061,0,0,0,1.5.484c.226.028.456.043.693.051a4.961,4.961,0,0,0,1.973-.372c.1-.048.214-.1.317-.163a2.069,2.069,0,0,0,.361-.25A1.414,1.414,0,0,0,172.76,372.074Z" transform="translate(-163.995 -370.271)" fill="#a8efeb" opacity="0.5"/>
          <path id="Trazado_713061" data-name="Trazado 713061" d="M168.492,373.08v.036c0,.095,0,.257,0,.487,0,1.593-.016,6.178-.036,10.735,0,2.184,0,13.9-.016,15.764,0,1.423,0,2.651-.008,3.535a4.265,4.265,0,0,1-1.439-.468,2.542,2.542,0,0,1-.452-.341v-30.5c.079.059.167.123.258.182a1,1,0,0,0,.194.123A3.728,3.728,0,0,0,168.492,373.08Z" transform="translate(-163.633 -369.521)" fill="#7cd1e8" opacity="0.5" style="mix-blend-mode: multiply;isolation: isolate"/>
          <path id="Trazado_713062" data-name="Trazado 713062" d="M169.179,372.425v30.6a4.956,4.956,0,0,1-1.894.38c0-.927-.012-2.2-.02-3.665-.024-5.718-.055-23.919-.059-26.384v-.686A4.161,4.161,0,0,0,169.179,372.425Z" transform="translate(-161.654 -369.231)" fill="#fff" opacity="0.6"/>
          <path id="Trazado_713063" data-name="Trazado 713063" d="M171.836,372.154a1.369,1.369,0,0,1,0,2.6,4.969,4.969,0,0,1-4.486,0,1.369,1.369,0,0,1,0-2.6A4.97,4.97,0,0,1,171.836,372.154Z" transform="translate(-163.993 -371.619)" fill="#78efff" opacity="0.5"/>
          <path id="Trazado_713064" data-name="Trazado 713064" d="M171.423,374.061c-.1-.071-.206-.155-.333-.23a4,4,0,0,0-2.211-.44c-.186.02-.372.048-.539.075a.694.694,0,0,0-.194.044,3.5,3.5,0,0,0-.824.321,1.72,1.72,0,0,0-.194.139.687.687,0,0,0-.131.091,1.059,1.059,0,0,1,.131-1.811,1.642,1.642,0,0,1,.194-.127,3.337,3.337,0,0,1,.824-.325,1.707,1.707,0,0,1,.194-.044,4.443,4.443,0,0,1,.539-.067,3.9,3.9,0,0,1,2.211.436C172.006,372.658,172.117,373.466,171.423,374.061Z" transform="translate(-163.609 -371.461)" fill="#7cd1e8" style="mix-blend-mode: multiply;isolation: isolate"/>
          <path id="Trazado_713065" data-name="Trazado 713065" d="M171.086,372.782a2.076,2.076,0,0,1-.333.234,4.108,4.108,0,0,1-3.769,0,1.4,1.4,0,0,1-.325-.234,2.392,2.392,0,0,1,.325-.23,4.18,4.18,0,0,1,3.769,0C170.88,372.628,170.983,372.711,171.086,372.782Z" transform="translate(-163.272 -370.183)" fill="#6fd2e2" style="mix-blend-mode: multiply;isolation: isolate"/>
          <path id="Trazado_713066" data-name="Trazado 713066" d="M171.086,372.782a.849.849,0,0,1-.206.154c-.04-.024-.083-.047-.127-.071a4.156,4.156,0,0,0-3.769,0c-.036.024-.087.048-.131.071a1.379,1.379,0,0,1-.194-.154,2.392,2.392,0,0,1,.325-.23,4.18,4.18,0,0,1,3.769,0C170.88,372.628,170.983,372.711,171.086,372.782Z" transform="translate(-163.272 -370.183)" fill="#aadbe8" style="mix-blend-mode: multiply;isolation: isolate"/>
          <path id="Trazado_713067" data-name="Trazado 713067" d="M167.711,371.7v1.712a3.5,3.5,0,0,0-.824.321,1.715,1.715,0,0,0-.194.139v-1.72a1.644,1.644,0,0,1,.194-.127A3.334,3.334,0,0,1,167.711,371.7Z" transform="translate(-163.174 -371.367)" fill="#fff" opacity="0.4"/>
          <path id="Trazado_713068" data-name="Trazado 713068" d="M167.538,371.676v1.7c-.186.02-.372.048-.539.075v-1.712A4.431,4.431,0,0,1,167.538,371.676Z" transform="translate(-162.267 -371.45)" fill="#fff" opacity="0.4"/>
          <g id="Grupo_1003423" data-name="Grupo 1003423" transform="translate(3.127 9.154)">
            <path id="Trazado_713069" data-name="Trazado 713069" d="M168.964,374.519v-.17a5.049,5.049,0,0,1-2.322-.408l-.048-.012v22.314c.063.036.087.044.143.071v-.036a4.866,4.866,0,0,0,2.227.448v-.167a4.808,4.808,0,0,1-2.227-.452c0-.618,0-.923,0-1.53a4.779,4.779,0,0,0,2.231.44v-.163a4.821,4.821,0,0,1-2.231-.448v-1.534a4.765,4.765,0,0,0,2.231.444v-.174a4.908,4.908,0,0,1-2.231-.44v-1.538a4.815,4.815,0,0,0,2.231.448v-.17a4.815,4.815,0,0,1-2.231-.448c0-.614,0-.915-.008-1.53a4.855,4.855,0,0,0,2.239.44v-.178a4.854,4.854,0,0,1-2.239-.432v-1.534a4.937,4.937,0,0,0,2.239.424v-.162a4.836,4.836,0,0,1-2.239-.436c0-.614,0-.919,0-1.53a5.047,5.047,0,0,0,2.243.428v-.174a4.941,4.941,0,0,1-2.243-.428v-1.53a4.947,4.947,0,0,0,2.243.416V384.6a4.83,4.83,0,0,1-2.243-.42c0-.61,0-.919,0-1.53a4.836,4.836,0,0,0,2.247.4v-.166a5,5,0,0,1-2.251-.412v-1.53a4.96,4.96,0,0,0,2.251.4v-.166a5.014,5.014,0,0,1-2.251-.4v-1.526a5.209,5.209,0,0,0,2.251.384v-.17a5.264,5.264,0,0,1-2.251-.388v-1.53a5.244,5.244,0,0,0,2.251.388v-.17a5.239,5.239,0,0,1-2.251-.392c0-.618,0-.919-.008-1.534a5.19,5.19,0,0,0,2.259.388v-.17a4.958,4.958,0,0,1-2.259-.4v-1.534A5.036,5.036,0,0,0,168.964,374.519Z" transform="translate(-166.594 -373.929)" fill="#e6eaf3"/>
          </g>
        </g>
        <path id="Trazado_713070" data-name="Trazado 713070" d="M199.631,369.932a2.129,2.129,0,0,1-.321.309c-1.589,1.272-3.8,1.312-5.75,1.339-.594.028-1.181.071-1.8.135-.119.016-.25.024-.38.044-.182.008-.373.04-.547.063a8.3,8.3,0,0,0-.935.194l-.246.055c-.376.1-.773.206-1.165.317a1.621,1.621,0,0,0-.226.182c-.38.309-.773.646-1.193.967-.468.2-.947.416-1.407.634-.408.194-.82.4-1.224.583a1.222,1.222,0,0,1-1.236-.452.479.479,0,0,1-.063-.162c-.46.159-.908.281-1.335.388-1.28.337-2.358.444-3.027,0a5.584,5.584,0,0,1,0-.579,10.437,10.437,0,0,1,.892-3.368c.17-.412.361-.82.567-1.213.23-.38.476-.753.733-1.126s.539-.729.828-1.078.618-.662.931-.975c.044-.036.087-.079.131-.123a15.89,15.89,0,0,1,2.425-1.692c.139-.067.277-.155.416-.23.265-.143.535-.27.785-.412.341-.155.674-.317,1.018-.5a7.758,7.758,0,0,1,1.395-.563,11.522,11.522,0,0,1,1.506-.341,15.617,15.617,0,0,1,1.609-.2c.555-.016,1.1-.024,1.645-.012a35.269,35.269,0,0,1,4.046.515c.281.044.567.091.848.123.329.036.666.079.991.115-.024.059.9.3,1.343.765C203.265,366.167,201.089,368.228,199.631,369.932Z" transform="translate(-51.988 -254.194)" fill="#f2b09e"/>
        <path id="Trazado_713071" data-name="Trazado 713071" d="M196.5,370.821c-.242.024-.483.052-.745.087-.4.04-1.526.036-1.684.032-.594.028-1.181.071-1.8.135-.119.016-.25.024-.38.044-.182.008-.373.04-.547.063a8.3,8.3,0,0,0-.935.194l-.246.055c-.376.1-.773.206-1.165.317a1.626,1.626,0,0,0-.226.182c-.38.309-.773.646-1.193.967-.1.075-.218.162-.333.246a4.505,4.505,0,0,1-1.95.931c-.111.016-.246.036-.349.039a1.222,1.222,0,0,1-1.236-.452.479.479,0,0,1-.063-.162c-.46.159-.908.281-1.336.388-1.28.337-2.358.444-3.027,0a1.207,1.207,0,0,1-.281-.25,2.235,2.235,0,0,1-.4-1.684,8.366,8.366,0,0,1,1.014-3.127,14.87,14.87,0,0,1,1.066-1.641,15.764,15.764,0,0,1,7.723-4.779,19.8,19.8,0,0,1,4.676.277c-.04.012-.234.055-.531.107-.333.095-.8.2-1.343.341-.123.032-.262.063-.4.1a16.683,16.683,0,0,0-2.77,1c-.258.119-.515.234-.773.365s-.519.25-.757.376a14.534,14.534,0,0,0-1.343.721c-.761.487-.975.88-.686,1.343a1.787,1.787,0,0,0,1.6.689,7.663,7.663,0,0,0,2.833-.46c.135-.044.281-.079.424-.131a8.855,8.855,0,0,1,1.363-.19,11.706,11.706,0,0,1,1.973.016,19.342,19.342,0,0,1,2.477.357,2.528,2.528,0,0,1,1.684,1.7A2.34,2.34,0,0,1,196.5,370.821Z" transform="translate(-52.498 -253.554)" fill="#eaa292"/>
        <path id="Trazado_713072" data-name="Trazado 713072" d="M242.279,366.125c.384-.812.626-1.474.8-1.914.174-.456.254-.7.254-.7l.016-.036a7.706,7.706,0,0,0,.337-1.34,11.23,11.23,0,0,0,.115-1.423,9.756,9.756,0,0,0-.42-2.814,7.707,7.707,0,0,0-3.2-4.331c-1.712-1.038-5.976-1.625-11.246,5.512-6.13,6.154-18.1,20.028-16.541,21.431-3.265-.115-5.5-.226-5.5-.226s-1.3,1.169-2.877,2.651c-1.807.111-3.349.206-3.836.274-4.442.571-10.073,2.758-14.333,4.105-2.647.84-2.722,5.068-1.894,7.878.444,1.5,1.886,4.113,3.095,4.87,1.775,1.1,21.982-2.984,24.676-3.424,2.065-.325,4.549-.44,6.4-1.478,2.2-1.232,4.137-3.78,5.94-5.528,2.263-2.215,5.163-7.83,7.264-10.2,3.594-3.943,6.162-5.092,7.363-6.919.832-1.248,1.526-2.453,2.14-3.527C241.415,367.9,241.894,366.934,242.279,366.125Z" transform="translate(-37.995 -281.357)" fill="#cedce0"/>
        <g id="Grupo_1003426" data-name="Grupo 1003426" transform="translate(186.279 136.269)">
          <path id="Trazado_713073" data-name="Trazado 713073" d="M206.806,426.611a19.36,19.36,0,0,1-6.507.86c-3.939-.051-6.2-1.442-5.56-3.907A8.084,8.084,0,0,1,197,420.54a4.418,4.418,0,0,1,.7-.523h0c.452-.281.892-.574,1.343-.844.424-.262.852-.5,1.28-.757l.04-.032c2.54-1.637,3.959-3.828,5.9-7.949a26.453,26.453,0,0,0,2.766-10.616c6.622-.543,9.412-.761,9.412-.761.028.412,3.337,9.879,3.562,10.521v.016l.008.024c.5,1.447-.166,5.722-3.713,7.652a29.91,29.91,0,0,0-7.054,5.247C209.687,424.238,209.672,425.632,206.806,426.611Z" transform="translate(-191.259 -281.011)" fill="#192226"/>
          <path id="Trazado_713074" data-name="Trazado 713074" d="M206.833,426.311a19.813,19.813,0,0,1-6.507.848c-3.939-.052-6.206-1.427-5.56-3.9a8.023,8.023,0,0,1,2.263-3.023,4.549,4.549,0,0,1,.7-.527l.008-.008c.432-.278.88-.567,1.343-.836.424-.25.848-.5,1.272-.757.008,0,.016-.02.036-.02,2.544-1.648,3.971-3.84,5.912-7.969a26.558,26.558,0,0,0,2.762-10.612c6.618-.535,9.4-.765,9.4-.765.036.424,3.349,9.887,3.578,10.525v.008l0,.028c.5,1.45-.155,5.734-3.705,7.664a29.468,29.468,0,0,0-7.058,5.239C209.71,423.933,209.7,425.328,206.833,426.311Z" transform="translate(-191.183 -281.948)" fill="#192226"/>
          <g id="Grupo_1003425" data-name="Grupo 1003425">
            <path id="Trazado_713075" data-name="Trazado 713075" d="M219.231,465.548c-1.565-6.091-3.178-11.254-5.27-17.516-.967-2.893-4.125-6.947-4.2-10.069a37.406,37.406,0,0,1,.4-4.363,94.366,94.366,0,0,1,.991-9.97c.25-1.213.48-2.457.729-3.658s.491-2.421.765-3.622c.254-1.185.491-2.39.769-3.567l.769-3.543.745-3.523c.273-1.161.472-2.35.729-3.507l.729-3.5c.262-1.149.487-2.31.713-3.487.115-.579.246-1.157.369-1.736l.349-1.74c.214-1.185.468-2.294.67-3.436l.642-3.519c.206-1.24.428-2.489.587-3.737a10.5,10.5,0,0,0-20.19-5.14c-.472,1.177-.884,2.37-1.276,3.562l-.293.9-.147.456-.139.484-.531,1.969c-.333,1.308-.689,2.651-.951,3.935s-.547,2.58-.781,3.884c-.21,1.316-.428,2.619-.606,3.939-.194,1.3-.321,2.619-.464,3.943-.091.654-.139,1.32-.182,1.973s-.111,1.312-.151,1.974-.087,1.319-.111,1.985l-.071,1.973c-.043,1.32-.043,2.639-.028,3.947s.876,30.656,1.129,32.087c.281,1.423,7.466,23.21,7.466,23.21.8,1.981,1.581,3.959,2.326,5.936.369.987.721,1.981,1.07,2.968.361,1,.685,2,1.026,3s.662,1.993.955,3,.626,2.005.911,3.035l.769,2.826c-.586,3.65-2.045,7.838,1.316,9.784a8.275,8.275,0,0,0,9.483-1.6,16.27,16.27,0,0,0,2.615-4.494C223.586,488.013,220.646,471.076,219.231,465.548Zm-9.467-27.874-.02.234C209.752,437.809,209.756,437.734,209.764,437.674Z" transform="translate(-193.781 -369.269)" fill="#16375b"/>
          </g>
        </g>
        <path id="Trazado_713076" data-name="Trazado 713076" d="M209.869,416.712c-8.2,2.56-14.151,1.526-13.3-2.318a7.963,7.963,0,0,1,2.168-3.087,5.288,5.288,0,0,1,.674-.547h.008c.848-.575,1.7-1.157,2.564-1.684l.04-.032c3.075-1.9,6.249-3.218,9.408-1.672,5.437,2.659,13.148-7.64,14.658-3.376-.04-.127.047,2.7-.626,3.594C223.113,410.78,216.273,414.719,209.869,416.712Z" transform="translate(0.533 -133.219)" fill="#192226"/>
        <path id="Trazado_713077" data-name="Trazado 713077" d="M226.272,413.336h0V413.3c-.016-.682-.21-10.711-.119-11.108,0,0-2.707-.658-9.178-2.211a26.3,26.3,0,0,1-5.932,9.233,58.581,58.581,0,0,1-9.071,7.68l-.028.028c-.876.527-1.724,1.106-2.576,1.672v.008a5.349,5.349,0,0,0-.678.543,8.022,8.022,0,0,0-2.172,3.1c-.856,3.836,5.1,4.882,13.3,2.318C217.736,422.105,226.327,416.672,226.272,413.336Z" transform="translate(0.37 -141.996)" fill="#253137"/>
        <g id="Grupo_1003428" data-name="Grupo 1003428" transform="translate(199.877 141.076)">
          <g id="Grupo_1003427" data-name="Grupo 1003427">
            <path id="Trazado_713078" data-name="Trazado 713078" d="M212.893,393.252l-15.681-15.819,1.435-6.951,31.52,11.464Z" transform="translate(-197.212 -370.482)" fill="#1b3c68"/>
          </g>
        </g>
        <path id="Trazado_713079" data-name="Trazado 713079" d="M222.938,371.156c-1.359-.634-2.655.341-7.319-1.129a10.5,10.5,0,0,0-13.172,6.872,85.178,85.178,0,0,0-3.364,19.4c-.9,12.392,1.359,24.454,2.358,36.747.04.618.071,1.209.107,1.811.162,2.79.254,5.5.559,8.282.151,1.217.27,2.4.349,3.555.174,2.326.25,4.581.487,6.768C204.055,464.218,207,488.577,206.79,490c-.42,2.885-1.415,3.741.194,5.722,3.86,4.767,7.858,4.993,14.48,1.011.127-4.767.531-22.247.507-24.478a210.061,210.061,0,0,0-2.917-23.234c-.931-3.622-2.279-7.228-2.279-11.021a114.586,114.586,0,0,1,.626-14.337c.745-6.059,1.609-12.106,2.52-18.153q1.32-8.774,2.314-17.591l.388-3.559C224,376.451,222.883,372.416,222.938,371.156Z" transform="translate(7.587 -232.197)" fill="#1b3c68"/>
        <path id="Trazado_713080" data-name="Trazado 713080" d="M233,399.592c-.7,6.788.785,14.108,2.695,25.516,1.807,6.646-9.091,10.034-16.184,10.43-8.988.519-23.186-5.548-22.017-14.678,2.12-16.176-1.6-23.713-1.01-43.313.016-.563-.935-1.53-.919-2.08.111-2.386.3-4.68.61-6.848.634-4.684,1.787-8.734,3.654-11.591.959-1.458,16.354-5.7,18.934-4.775,4.046,1.466,7.272,4.4,10.145,6.293,1.886,1.256,8.932,6.392,10.172,7.731l-1.526,4.91-.559,1.819C234.958,378.9,234.284,387.272,233,399.592Z" transform="translate(-2.23 -283.803)" fill="#8ad8ff"/>
        <path id="Trazado_713081" data-name="Trazado 713081" d="M218.422,352.926c-2.231,3.856,0,18.918,0,18.918s-2.889,42.449-2.37,43.717c.527,1.229-2.524,61.082-2.524,61.082l-20.222-2.718,5.255-66.4,3.313-43.115,3.646-7.85,3.931-1.332,4.839-2.346,4.3-.868Z" transform="translate(-8.908 -284.108)" fill="#e7eff2"/>
        <path id="Trazado_713082" data-name="Trazado 713082" d="M210.412,351.616l.131,17.048a5.479,5.479,0,0,1-10.957.083,5.373,5.373,0,0,1,.048-.769l2.3-16.905a4.26,4.26,0,0,1,8.48.543Z" transform="translate(9.698 -297.832)" fill="#f2b09e"/>
        <path id="Trazado_713083" data-name="Trazado 713083" d="M218.933,369.3c-1.1,1.264-.555,4.034-2.984,6.78a23.059,23.059,0,0,1-7.517,5.5c-2.267,1.379-5.366.472-6.2-.824a36.093,36.093,0,0,1-3.955-8.98c-2.445-7.723-1.629-15.732-1.117-19.552,3.194-8.029,8.421-9.812,17.825-8.663C225.737,344.858,227.853,359.12,218.933,369.3Z" transform="translate(0.865 -310.124)" fill="#ffccbc"/>
        <path id="Trazado_713084" data-name="Trazado 713084" d="M200.331,354.449c1.676,2.2,3.043,5.057,4.589,7.529,1.878.991,3.765,2.132,3.765,2.132,3.119-2.334,3.781-5.029,4.791-9.126.84-3.428.583-8.4-.931-10.319Z" transform="translate(11.906 -305.896)" fill="#263238"/>
        <path id="Trazado_713085" data-name="Trazado 713085" d="M198.391,359.733c10.6,4.577,21.946,2.6,26.333-7.7,0-8.869-14.207-12.408-22.6-6.2C195.554,350.694,194.833,358.2,198.391,359.733Z" transform="translate(-0.116 -311.695)"/>
        <g id="Grupo_1003429" data-name="Grupo 1003429" transform="translate(218.662 50.533)">
          <path id="Trazado_713086" data-name="Trazado 713086" d="M202.435,350.552c2.1-5.144,5.354-2.346,5.465-.242.107,2.5-2.382,5.889-5.148,6.5-.345.067-.84-2.39-.8-3.289A8.816,8.816,0,0,1,202.435,350.552Z" transform="translate(-201.952 -347.634)" fill="#ffccbc"/>
        </g>
        <path id="Trazado_713087" data-name="Trazado 713087" d="M214.083,351.572c2.132,2.774,3.535,4.383,3.535,4.383l13.608,7.339.424,5.944-6.832,37,4.046,25.576,5.564,41.989-32.356,4.034-3.693-58.415,5.013-46.257S214.119,357.306,214.083,351.572Z" transform="translate(6.122 -285.433)" fill="#edf6f9"/>
        <path id="Trazado_713088" data-name="Trazado 713088" d="M223.538,361.395c-2.909,10.64-2.528,37.131-4.787,46.713,1.1-2,1.379-1.229,2.845-2.005-.337,5.6-4.541,10.414-5.037,16.152,2.54-1.264,5.167-3.063,8.013-3.475.844,11.738-7.882,20-11.306,30.557-2.984-5.591-6.725-9.669-8.984-15.922-1.343-3.693-3.975-9.265-3.5-13.267.721-6.107,6.7-12.613,8.968-18.463-3.689,1.74-6.34,6.7-10.791,6.479-2.318-8.524,7.189-21.5,9.439-30.244,1.645-6.356,1.882-19.988,7.735-24.137-2.366,2.742-3.868,9.55-3.665,13.3,3.689-1.946,7.208-3.951,11.068-5.683Z" transform="translate(6.777 -278.885)" fill="#e7eff2"/>
        <path id="Trazado_713089" data-name="Trazado 713089" d="M209.982,356.42c.812.036,1.787-.258,2.6-.218a4.251,4.251,0,0,1-2.2-3.372c-1.4.254-2.794.523-4.185.789a53.133,53.133,0,0,0-5.385,5.473c-3.047,5.322-3.677,48.286-3.677,48.286L193.79,455.6c10.878-7.494,16.228-24.791,16.648-32.9.519-9.99-1.43-20.282-.262-30.185.483-4.185,6-14.25-1.07-14.147a17.16,17.16,0,0,1,5.318-3.115C213.85,368.527,210.723,362.178,209.982,356.42Z" transform="translate(-7.474 -281.705)" fill="#dae6ea"/>
        <g id="Grupo_1003434" data-name="Grupo 1003434" transform="translate(16.967 127.909)">
          <g id="Grupo_1003433" data-name="Grupo 1003433">
            <path id="Trazado_713090" data-name="Trazado 713090" d="M178.156,384.23A13.551,13.551,0,1,1,164.6,370.685,13.551,13.551,0,0,1,178.156,384.23Z" transform="translate(-151.055 -356.714)" fill="#a8efeb" opacity="0.5"/>
            <path id="Trazado_713091" data-name="Trazado 713091" d="M177.474,383.934a13.16,13.16,0,1,1-13.16-13.148A13.159,13.159,0,0,1,177.474,383.934Z" transform="translate(-150.765 -356.418)" fill="#aad0e8" opacity="0.5" style="mix-blend-mode: multiply;isolation: isolate"/>
            <g id="Grupo_1003430" data-name="Grupo 1003430" transform="translate(0.943 18.429)">
              <path id="Trazado_713092" data-name="Trazado 713092" d="M175.5,378.915c0,3.931-5.413,7.109-12.067,7.109s-12.067-3.178-12.067-7.109,5.405-7.105,12.067-7.105S175.5,374.988,175.5,378.915Z" transform="translate(-151.077 -371.81)" fill="url(#linear-gradient-5)"/>
              <path id="Trazado_713093" data-name="Trazado 713093" d="M175.7,373.565c0,.047.012.1.012.15,0,3.931-5.413,7.113-12.067,7.113-6.673,0-12.067-3.182-12.067-7.113,0-.051.008-.1.008-.15a16.081,16.081,0,0,0-.3,2.267,12.4,12.4,0,0,0,24.8,0A12.56,12.56,0,0,0,175.7,373.565Z" transform="translate(-151.293 -366.61)" fill="url(#linear-gradient-6)"/>
            </g>
            <path id="Trazado_713094" data-name="Trazado 713094" d="M164.014,378.891a2.226,2.226,0,0,1-.824,1.645,3.08,3.08,0,0,1-.777.578,4.935,4.935,0,0,1-.539.277,8.44,8.44,0,0,1-3.269.642,6.807,6.807,0,0,1-1.427-.1,6.986,6.986,0,0,1-2.485-.82,3.631,3.631,0,0,1-.785-.578,2.237,2.237,0,0,1-.812-1.645,2.29,2.29,0,0,1,.812-1.664,4.4,4.4,0,0,1,.785-.567,6.851,6.851,0,0,1,2.493-.82,7.355,7.355,0,0,1,1.4-.1,8.173,8.173,0,0,1,3.289.646,4.91,4.91,0,0,1,.539.273,3.614,3.614,0,0,1,.777.567A2.277,2.277,0,0,1,164.014,378.891Z" transform="translate(-145.005 -341.739)" fill="#aadbe8" style="mix-blend-mode: multiply;isolation: isolate"/>
            <path id="Trazado_713095" data-name="Trazado 713095" d="M162.583,378.543a1.934,1.934,0,0,1-.694,1.4,2.867,2.867,0,0,1-.662.487,4.157,4.157,0,0,1-.46.234,7.059,7.059,0,0,1-2.774.555,6.109,6.109,0,0,1-1.213-.1,5.86,5.86,0,0,1-2.12-.69,2.873,2.873,0,0,1-.65-.487,1.75,1.75,0,0,1,0-2.814,3.27,3.27,0,0,1,.65-.487,5.727,5.727,0,0,1,2.128-.69,5.537,5.537,0,0,1,1.177-.1,6.947,6.947,0,0,1,2.8.555,3.542,3.542,0,0,1,.46.23,3.255,3.255,0,0,1,.662.487A1.924,1.924,0,0,1,162.583,378.543Z" transform="translate(-144.398 -341.39)" fill="#aadbe8" style="mix-blend-mode: multiply;isolation: isolate"/>
            <path id="Trazado_713096" data-name="Trazado 713096" d="M162.389,370.989c0,1.3,0,2.437-.008,3.249l-.052.024a10.229,10.229,0,0,0-3.852,3.991c-4.95,8.258.357,16.568.519,16.826-.1-.063-1.736-1.153-3.079-2.073A13.436,13.436,0,0,1,151.6,381.99a12.663,12.663,0,0,1,9.039-10.676A10.507,10.507,0,0,1,162.389,370.989Z" transform="translate(-149.573 -355.861)" fill="#7cd1e8" opacity="0.5" style="mix-blend-mode: multiply;isolation: isolate"/>
            <g id="Grupo_1003431" data-name="Grupo 1003431" transform="translate(14.262 15.104)" opacity="0.7">
              <path id="Trazado_713097" data-name="Trazado 713097" d="M157.317,395.259c7.751-4.569,8-17.571-1.331-21.482.143-.325-1.458-2.481-1.324-2.806C169,372.318,170.794,391.459,157.317,395.259Z" transform="translate(-154.654 -370.971)" fill="#fff"/>
            </g>
            <g id="Grupo_1003432" data-name="Grupo 1003432" transform="translate(12.792 18.04)" opacity="0.6">
              <path id="Trazado_713098" data-name="Trazado 713098" d="M156.625,371.712a2.879,2.879,0,0,1-2.314.21l-.028,0c8.017,3.491,9.927,14.377,3.606,20.293C164.832,387.016,164.1,376.075,156.625,371.712Z" transform="translate(-154.283 -371.712)" fill="#fff"/>
            </g>
            <path id="Trazado_713099" data-name="Trazado 713099" d="M159.5,372.635a1.182,1.182,0,0,1-.44.868,1.339,1.339,0,0,1-.408.3,1.871,1.871,0,0,1-.281.147,4.278,4.278,0,0,1-1.716.349,3.928,3.928,0,0,1-.757-.059,3.559,3.559,0,0,1-1.312-.436,1.666,1.666,0,0,1-.4-.3,1.168,1.168,0,0,1-.44-.868,1.15,1.15,0,0,1,.44-.868,1.962,1.962,0,0,1,.4-.309,3.571,3.571,0,0,1,1.32-.424,3.721,3.721,0,0,1,.725-.063,4.27,4.27,0,0,1,1.74.341,3.1,3.1,0,0,1,.281.146,1.518,1.518,0,0,1,.408.309A1.163,1.163,0,0,1,159.5,372.635Z" transform="translate(-143.076 -355.867)" fill="#aadbe8" style="mix-blend-mode: multiply;isolation: isolate"/>
            <path id="Trazado_713100" data-name="Trazado 713100" d="M158.733,372.446a1.016,1.016,0,0,1-.361.741,2.408,2.408,0,0,1-.349.262c-.075.028-.151.079-.242.119a3.809,3.809,0,0,1-1.466.281,3.384,3.384,0,0,1-.634-.048,3.015,3.015,0,0,1-1.114-.353,2.77,2.77,0,0,1-.357-.262,1.051,1.051,0,0,1-.353-.741,1.032,1.032,0,0,1,.353-.745,2.185,2.185,0,0,1,.357-.258,3.8,3.8,0,0,1,1.736-.408,3.723,3.723,0,0,1,1.478.285,2.3,2.3,0,0,1,.242.123,1.945,1.945,0,0,1,.349.258A1,1,0,0,1,158.733,372.446Z" transform="translate(-142.747 -355.677)" fill="#aadbe8" style="mix-blend-mode: multiply;isolation: isolate"/>
            <path id="Trazado_713101" data-name="Trazado 713101" d="M158.854,367.953v14.516a1.7,1.7,0,0,1-.424.309,1.5,1.5,0,0,1-.289.147,4.879,4.879,0,0,1-2.532.3,3.9,3.9,0,0,1-1.343-.448,1.86,1.86,0,0,1-.424-.309V367.953a1.427,1.427,0,0,0,.214.123,4.079,4.079,0,0,0,1.6.515,5.147,5.147,0,0,0,.65.052h.052a5.042,5.042,0,0,0,1.783-.313,3.64,3.64,0,0,0,.515-.254A1.489,1.489,0,0,0,158.854,367.953Z" transform="translate(-142.801 -364.809)" fill="#aad0e8" opacity="0.5" style="mix-blend-mode: multiply;isolation: isolate"/>
            <path id="Trazado_713102" data-name="Trazado 713102" d="M159.632,367.585v15.082a1.209,1.209,0,0,1-.452.892,1.7,1.7,0,0,1-.424.309,1.5,1.5,0,0,1-.289.147,4.879,4.879,0,0,1-2.532.3,3.894,3.894,0,0,1-1.343-.448,1.859,1.859,0,0,1-.424-.309,1.231,1.231,0,0,1-.436-.892V367.585a1.27,1.27,0,0,0,.527.967c.044.036.1.083.151.119a1.627,1.627,0,0,0,.182.111,3.775,3.775,0,0,0,1.4.452,3.854,3.854,0,0,0,.642.051,4.548,4.548,0,0,0,1.835-.353,1.518,1.518,0,0,0,.289-.151,1.4,1.4,0,0,0,.349-.23A1.3,1.3,0,0,0,159.632,367.585Z" transform="translate(-143.127 -365.899)" fill="#a8efeb" opacity="0.5"/>
            <path id="Trazado_713103" data-name="Trazado 713103" d="M155.666,368.525v.024c0,.087,0,.246-.016.448,0,1.371-.024,8.437-.04,10.854v.491c0,1.3,0,2.437-.008,3.249v.04l-.051-.016a3.633,3.633,0,0,1-1.292-.432,1.8,1.8,0,0,1-.416-.309V367.816a2.349,2.349,0,0,0,.234.171,1.624,1.624,0,0,0,.182.111A3.6,3.6,0,0,0,155.666,368.525Z" transform="translate(-142.795 -365.214)" fill="#7cd1e8" opacity="0.5" style="mix-blend-mode: multiply;isolation: isolate"/>
            <path id="Trazado_713104" data-name="Trazado 713104" d="M156.3,367.908v15.15a4.508,4.508,0,0,1-1.759.353c0-.86-.012-2.037-.024-3.4-.02-5.318-.044-8.932-.052-11.23v-.638A3.826,3.826,0,0,0,156.3,367.908Z" transform="translate(-140.958 -364.942)" fill="#fff" opacity="0.6"/>
            <path id="Trazado_713105" data-name="Trazado 713105" d="M158.763,367.653a1.271,1.271,0,0,1,0,2.409,4.576,4.576,0,0,1-4.169,0,1.271,1.271,0,0,1,0-2.409A4.65,4.65,0,0,1,158.763,367.653Z" transform="translate(-143.13 -367.16)" fill="#78efff" opacity="0.5"/>
            <path id="Trazado_713106" data-name="Trazado 713106" d="M158.382,369.432a1.891,1.891,0,0,0-.3-.218,3.932,3.932,0,0,0-2.073-.412,3.02,3.02,0,0,0-.487.071c-.059.016-.123.028-.178.04a2.935,2.935,0,0,0-.765.3c-.067.04-.139.075-.194.115l-.119.1a1,1,0,0,1,.119-1.688,1.833,1.833,0,0,1,.194-.119,2.57,2.57,0,0,1,.765-.3,1.3,1.3,0,0,1,.178-.04,3.494,3.494,0,0,1,.487-.063,3.713,3.713,0,0,1,2.073.4C158.924,368.117,159.024,368.878,158.382,369.432Z" transform="translate(-142.772 -367.013)" fill="#7cd1e8" style="mix-blend-mode: multiply;isolation: isolate"/>
            <path id="Trazado_713107" data-name="Trazado 713107" d="M158.072,368.244c-.091.067-.19.143-.3.21a3.822,3.822,0,0,1-3.5,0,2.14,2.14,0,0,1-.313-.21,1.362,1.362,0,0,1,.313-.218,3.894,3.894,0,0,1,3.5,0A1.888,1.888,0,0,1,158.072,368.244Z" transform="translate(-142.463 -365.825)" fill="#6fd2e2" style="mix-blend-mode: multiply;isolation: isolate"/>
            <path id="Trazado_713108" data-name="Trazado 713108" d="M158.072,368.244c-.059.048-.131.1-.19.139-.04-.028-.079-.048-.119-.071a3.894,3.894,0,0,0-3.5,0,1.213,1.213,0,0,0-.123.071c-.063-.048-.127-.091-.182-.139a1.362,1.362,0,0,1,.313-.218,3.894,3.894,0,0,1,3.5,0A1.888,1.888,0,0,1,158.072,368.244Z" transform="translate(-142.463 -365.825)" fill="#aadbe8" style="mix-blend-mode: multiply;isolation: isolate"/>
            <path id="Trazado_713109" data-name="Trazado 713109" d="M154.944,367.238v1.589a2.935,2.935,0,0,0-.765.3c-.067.04-.139.075-.194.115v-1.585a1.825,1.825,0,0,1,.194-.119A2.57,2.57,0,0,1,154.944,367.238Z" transform="translate(-142.374 -366.927)" fill="#fff" opacity="0.4"/>
            <path id="Trazado_713110" data-name="Trazado 713110" d="M154.759,367.212v1.581a3.02,3.02,0,0,0-.487.071v-1.589A3.485,3.485,0,0,1,154.759,367.212Z" transform="translate(-141.524 -367.004)" fill="#fff" opacity="0.4"/>
            <path id="Trazado_713111" data-name="Trazado 713111" d="M168.716,375.137c1.217,2.98-1.181,6.776-5.346,8.477-4.165,1.684-8.536.642-9.752-2.35s1.185-6.788,5.346-8.48S167.5,372.141,168.716,375.137Z" transform="translate(-144.396 -352.904)" fill="#fff" opacity="0.4"/>
            <path id="Trazado_713112" data-name="Trazado 713112" d="M152.316,376.739c1.256-2.984,5.635-3.975,9.78-2.219,4.145,1.74,6.487,5.58,5.235,8.548s-5.639,3.967-9.784,2.219S151.056,379.719,152.316,376.739Z" transform="translate(-148.329 -347.924)" fill="#fff" opacity="0.2"/>
          </g>
          <path id="Trazado_713113" data-name="Trazado 713113" d="M156.345,374.254a1.328,1.328,0,0,0,1.815.214c.729-.4,1.078-1.137.8-1.645a1.322,1.322,0,0,0-1.815-.222C156.417,373,156.064,373.735,156.345,374.254Z" transform="translate(-135.668 -351.76)" fill="#fff"/>
        </g>
        <g id="Grupo_1003439" data-name="Grupo 1003439" transform="translate(166.582 133.168)">
          <g id="Grupo_1003438" data-name="Grupo 1003438">
            <path id="Trazado_713114" data-name="Trazado 713114" d="M210.74,382.29a10.965,10.965,0,1,1-10.965-10.949A10.967,10.967,0,0,1,210.74,382.29Z" transform="translate(-188.81 -360.029)" fill="#a8efeb" opacity="0.5"/>
            <path id="Trazado_713115" data-name="Trazado 713115" d="M210.189,382.056a10.65,10.65,0,1,1-10.648-10.636A10.649,10.649,0,0,1,210.189,382.056Z" transform="translate(-188.576 -359.795)" fill="#aad0e8" opacity="0.5" style="mix-blend-mode: multiply;isolation: isolate"/>
            <g id="Grupo_1003435" data-name="Grupo 1003435" transform="translate(0.765 14.906)">
              <path id="Trazado_713116" data-name="Trazado 713116" d="M208.594,378.006c0,3.178-4.383,5.742-9.772,5.742s-9.76-2.564-9.76-5.742,4.375-5.758,9.76-5.758S208.594,374.82,208.594,378.006Z" transform="translate(-188.831 -372.248)" fill="url(#linear-gradient-7)"/>
              <path id="Trazado_713117" data-name="Trazado 713117" d="M208.753,373.669c0,.044.012.079.012.127,0,3.178-4.383,5.75-9.772,5.75s-9.76-2.572-9.76-5.75c0-.047.008-.083.008-.127A13.211,13.211,0,0,0,189,375.5a10.065,10.065,0,1,0,19.75-1.831Z" transform="translate(-189.003 -368.038)" fill="url(#linear-gradient-8)"/>
            </g>
            <path id="Trazado_713118" data-name="Trazado 713118" d="M199.3,377.979a1.842,1.842,0,0,1-.67,1.339,3,3,0,0,1-.622.464,4.729,4.729,0,0,1-.444.226,6.768,6.768,0,0,1-2.639.515,5.111,5.111,0,0,1-1.161-.083,5.717,5.717,0,0,1-2.009-.658,3.287,3.287,0,0,1-.63-.464,1.69,1.69,0,0,1,0-2.683,3.451,3.451,0,0,1,.63-.464,5.474,5.474,0,0,1,2.017-.654,5.348,5.348,0,0,1,1.133-.087,6.646,6.646,0,0,1,2.659.523c.155.063.3.143.444.218a3.133,3.133,0,0,1,.622.464A1.85,1.85,0,0,1,199.3,377.979Z" transform="translate(-183.916 -347.919)" fill="#aadbe8" style="mix-blend-mode: multiply;isolation: isolate"/>
            <path id="Trazado_713119" data-name="Trazado 713119" d="M198.135,377.7a1.557,1.557,0,0,1-.563,1.141,2.529,2.529,0,0,1-.531.392c-.119.071-.246.127-.369.19a5.744,5.744,0,0,1-2.251.44,5.162,5.162,0,0,1-.991-.071,4.806,4.806,0,0,1-1.7-.559,2.557,2.557,0,0,1-.535-.392,1.576,1.576,0,0,1-.567-1.141,1.555,1.555,0,0,1,.567-1.137,2.719,2.719,0,0,1,.535-.4,4.662,4.662,0,0,1,1.712-.559,5.081,5.081,0,0,1,.959-.079,5.693,5.693,0,0,1,2.271.456,3.572,3.572,0,0,1,.369.182,2.689,2.689,0,0,1,.531.4A1.536,1.536,0,0,1,198.135,377.7Z" transform="translate(-183.421 -347.636)" fill="#aadbe8" style="mix-blend-mode: multiply;isolation: isolate"/>
            <path id="Trazado_713120" data-name="Trazado 713120" d="M197.978,371.583c0,1.058,0,1.977-.008,2.635l-.04.02a8.327,8.327,0,0,0-3.119,3.23c-4.006,6.677.289,13.406.42,13.612-.083-.052-1.407-.931-2.489-1.672a10.874,10.874,0,0,1-3.491-8.92,10.237,10.237,0,0,1,7.307-8.635A9.518,9.518,0,0,1,197.978,371.583Z" transform="translate(-187.607 -359.348)" fill="#7cd1e8" opacity="0.5" style="mix-blend-mode: multiply;isolation: isolate"/>
            <g id="Grupo_1003436" data-name="Grupo 1003436" transform="translate(11.54 12.219)" opacity="0.7">
              <path id="Trazado_713121" data-name="Trazado 713121" d="M193.877,391.229c6.265-3.7,6.475-14.223-1.074-17.385.107-.27-1.189-2.005-1.074-2.275C203.328,372.664,204.787,388.15,193.877,391.229Z" transform="translate(-191.722 -371.57)" fill="#fff"/>
            </g>
            <g id="Grupo_1003437" data-name="Grupo 1003437" transform="translate(10.351 14.601)" opacity="0.6">
              <path id="Trazado_713122" data-name="Trazado 713122" d="M193.32,372.171a2.342,2.342,0,0,1-1.874.17h-.024a10.077,10.077,0,0,1,2.913,16.414A10.064,10.064,0,0,0,193.32,372.171Z" transform="translate(-191.422 -372.171)" fill="#fff"/>
            </g>
            <path id="Trazado_713123" data-name="Trazado 713123" d="M195.645,372.913a.96.96,0,0,1-.353.709,1.274,1.274,0,0,1-.329.238,1.069,1.069,0,0,1-.23.119,3.484,3.484,0,0,1-1.391.277,3.339,3.339,0,0,1-.606-.04,2.925,2.925,0,0,1-1.062-.357,1.13,1.13,0,0,1-.325-.238.931.931,0,0,1-.361-.709.921.921,0,0,1,.361-.7,1.558,1.558,0,0,1,.325-.25,2.955,2.955,0,0,1,1.066-.341,2.884,2.884,0,0,1,.586-.056,3.486,3.486,0,0,1,1.407.281c.079.032.151.075.23.115a1.838,1.838,0,0,1,.329.25A.95.95,0,0,1,195.645,372.913Z" transform="translate(-182.354 -359.351)" fill="#aadbe8" style="mix-blend-mode: multiply;isolation: isolate"/>
            <path id="Trazado_713124" data-name="Trazado 713124" d="M195.023,372.762a.826.826,0,0,1-.293.6,1.721,1.721,0,0,1-.289.21,2.085,2.085,0,0,1-.19.1,3.268,3.268,0,0,1-1.185.23,3.542,3.542,0,0,1-.511-.04,2.628,2.628,0,0,1-.907-.293,1.641,1.641,0,0,1-.281-.21.77.77,0,0,1,0-1.2,1.44,1.44,0,0,1,.281-.21,2.448,2.448,0,0,1,.907-.293,2.644,2.644,0,0,1,.5-.043,2.956,2.956,0,0,1,1.193.242,1.064,1.064,0,0,1,.19.1,1.506,1.506,0,0,1,.289.21A.823.823,0,0,1,195.023,372.762Z" transform="translate(-182.084 -359.2)" fill="#aadbe8" style="mix-blend-mode: multiply;isolation: isolate"/>
            <path id="Trazado_713125" data-name="Trazado 713125" d="M195.119,369.13v11.746a1.542,1.542,0,0,1-.341.246,1.462,1.462,0,0,1-.238.115,3.594,3.594,0,0,1-1.423.293,3.673,3.673,0,0,1-.626-.051,3.1,3.1,0,0,1-1.09-.357,1.612,1.612,0,0,1-.337-.246V369.13c.059.032.1.067.166.1a3.483,3.483,0,0,0,1.3.416,2.866,2.866,0,0,0,.515.048h.044a4.116,4.116,0,0,0,1.446-.262,2.719,2.719,0,0,0,.42-.2C195.016,369.2,195.067,369.162,195.119,369.13Z" transform="translate(-182.129 -366.58)" fill="#aad0e8" opacity="0.5" style="mix-blend-mode: multiply;isolation: isolate"/>
            <path id="Trazado_713126" data-name="Trazado 713126" d="M195.75,368.832v12.193a.994.994,0,0,1-.365.733,1.543,1.543,0,0,1-.341.246,1.463,1.463,0,0,1-.238.115,3.6,3.6,0,0,1-1.423.293,3.67,3.67,0,0,1-.626-.051,3.1,3.1,0,0,1-1.09-.357,1.613,1.613,0,0,1-.337-.246.983.983,0,0,1-.357-.733V368.832a1.025,1.025,0,0,0,.42.773,1.645,1.645,0,0,0,.131.1l.143.1a3.048,3.048,0,0,0,1.133.357,2.9,2.9,0,0,0,.515.047,3.612,3.612,0,0,0,1.49-.293,1.464,1.464,0,0,0,.238-.111,2.213,2.213,0,0,0,.281-.2A1.018,1.018,0,0,0,195.75,368.832Z" transform="translate(-182.396 -367.463)" fill="#a8efeb" opacity="0.5"/>
            <path id="Trazado_713127" data-name="Trazado 713127" d="M192.536,369.585v.024c0,.071,0,.2,0,.365,0,1.11-.02,6.828-.036,8.782v.392c0,1.058,0,1.977-.008,2.635v.028l-.04-.008a2.994,2.994,0,0,1-1.042-.349,1.542,1.542,0,0,1-.341-.246V369.018a1.936,1.936,0,0,0,.19.139l.151.1A2.765,2.765,0,0,0,192.536,369.585Z" transform="translate(-182.126 -366.912)" fill="#7cd1e8" opacity="0.5" style="mix-blend-mode: multiply;isolation: isolate"/>
            <path id="Trazado_713128" data-name="Trazado 713128" d="M193.056,369.092v12.257a3.6,3.6,0,0,1-1.423.293c0-.7-.008-1.656-.016-2.758-.02-4.3-.044-7.228-.051-9.083v-.527A3.008,3.008,0,0,0,193.056,369.092Z" transform="translate(-180.645 -366.693)" fill="#fff" opacity="0.6"/>
            <path id="Trazado_713129" data-name="Trazado 713129" d="M195.05,368.885a1.035,1.035,0,0,1,0,1.954,3.735,3.735,0,0,1-3.38,0,1.034,1.034,0,0,1,0-1.954A3.785,3.785,0,0,1,195.05,368.885Z" transform="translate(-182.397 -368.486)" fill="#78efff" opacity="0.5"/>
            <path id="Trazado_713130" data-name="Trazado 713130" d="M194.737,370.325a1.689,1.689,0,0,0-.246-.174,2.984,2.984,0,0,0-1.672-.325,1.934,1.934,0,0,0-.4.047l-.147.032a2.8,2.8,0,0,0-.622.246,1.543,1.543,0,0,0-.147.1.4.4,0,0,0-.1.075.8.8,0,0,1,.1-1.367c.04-.028.1-.055.147-.1a2.308,2.308,0,0,1,.622-.238.547.547,0,0,1,.147-.032,3.41,3.41,0,0,1,.4-.059,3.054,3.054,0,0,1,1.672.329C195.177,369.263,195.26,369.873,194.737,370.325Z" transform="translate(-182.108 -368.37)" fill="#7cd1e8" style="mix-blend-mode: multiply;isolation: isolate"/>
            <path id="Trazado_713131" data-name="Trazado 713131" d="M194.483,369.366a1.416,1.416,0,0,1-.246.171,3.116,3.116,0,0,1-2.837,0,1.136,1.136,0,0,1-.242-.171,1.308,1.308,0,0,1,.242-.174,3.116,3.116,0,0,1,2.837,0A1.689,1.689,0,0,1,194.483,369.366Z" transform="translate(-181.853 -367.41)" fill="#6fd2e2" style="mix-blend-mode: multiply;isolation: isolate"/>
            <path id="Trazado_713132" data-name="Trazado 713132" d="M194.483,369.366a1.423,1.423,0,0,1-.155.115.264.264,0,0,0-.091-.051,3.123,3.123,0,0,0-2.841,0,.248.248,0,0,0-.1.051c-.048-.04-.1-.075-.143-.115a1.308,1.308,0,0,1,.242-.174,3.116,3.116,0,0,1,2.837,0A1.689,1.689,0,0,1,194.483,369.366Z" transform="translate(-181.853 -367.41)" fill="#aadbe8" style="mix-blend-mode: multiply;isolation: isolate"/>
            <path id="Trazado_713133" data-name="Trazado 713133" d="M191.951,368.551v1.28a2.8,2.8,0,0,0-.622.246,1.537,1.537,0,0,0-.147.1v-1.292c.04-.028.1-.055.147-.1A2.308,2.308,0,0,1,191.951,368.551Z" transform="translate(-181.782 -368.296)" fill="#fff" opacity="0.4"/>
            <path id="Trazado_713134" data-name="Trazado 713134" d="M191.809,368.528v1.292a1.93,1.93,0,0,0-.4.047v-1.28A3.405,3.405,0,0,1,191.809,368.528Z" transform="translate(-181.098 -368.364)" fill="#fff" opacity="0.4"/>
            <path id="Trazado_713135" data-name="Trazado 713135" d="M203.1,374.935c.991,2.425-.955,5.492-4.323,6.868s-6.907.527-7.89-1.9.955-5.488,4.323-6.864S202.113,372.509,203.1,374.935Z" transform="translate(-183.42 -356.953)" fill="#fff" opacity="0.4"/>
            <path id="Trazado_713136" data-name="Trazado 713136" d="M189.832,376.229c1.014-2.4,4.553-3.206,7.906-1.791s5.255,4.514,4.24,6.919-4.565,3.214-7.918,1.8S188.809,378.647,189.832,376.229Z" transform="translate(-186.602 -352.922)" fill="#fff" opacity="0.2"/>
          </g>
          <path id="Trazado_713137" data-name="Trazado 713137" d="M193.091,374.225a1.07,1.07,0,0,0,1.466.17c.583-.325.872-.911.642-1.332a1.078,1.078,0,0,0-1.466-.174C193.147,373.211,192.865,373.8,193.091,374.225Z" transform="translate(-176.356 -356.022)" fill="#fff"/>
        </g>
        <g id="Grupo_1003441" data-name="Grupo 1003441" transform="translate(37.466 143.728)">
          <path id="Trazado_713138" data-name="Trazado 713138" d="M172.444,381.945a3.348,3.348,0,0,1-1.213,2.453,5.738,5.738,0,0,1-1.149.84,6.778,6.778,0,0,1-.8.4,12.4,12.4,0,0,1-4.819.963,12.586,12.586,0,0,1-2.12-.158,10.111,10.111,0,0,1-3.654-1.2,5.519,5.519,0,0,1-1.149-.84,3.077,3.077,0,0,1,0-4.9,5.38,5.38,0,0,1,1.149-.84,9.907,9.907,0,0,1,3.681-1.2,10.585,10.585,0,0,1,2.053-.163,12.03,12.03,0,0,1,4.858.963,6.768,6.768,0,0,1,.8.4,5.588,5.588,0,0,1,1.149.84A3.333,3.333,0,0,1,172.444,381.945Z" transform="translate(-155.935 -352.962)" fill="#aadbe8" style="mix-blend-mode: multiply;isolation: isolate"/>
          <path id="Trazado_713139" data-name="Trazado 713139" d="M170.321,381.42A2.864,2.864,0,0,1,169.3,383.5a6.221,6.221,0,0,1-.979.725c-.214.111-.448.23-.685.329a10.4,10.4,0,0,1-4.09.816,8.817,8.817,0,0,1-1.8-.139,9.177,9.177,0,0,1-3.111-1.007,6.611,6.611,0,0,1-.979-.725,2.638,2.638,0,0,1,0-4.165,5.619,5.619,0,0,1,.979-.713,8.673,8.673,0,0,1,3.131-1.022,9.845,9.845,0,0,1,1.748-.135,10.074,10.074,0,0,1,4.125.816,5.515,5.515,0,0,1,.685.341,5.335,5.335,0,0,1,.979.713A2.856,2.856,0,0,1,170.321,381.42Z" transform="translate(-155.025 -352.437)" fill="#aadbe8" style="mix-blend-mode: multiply;isolation: isolate"/>
          <path id="Trazado_713140" data-name="Trazado 713140" d="M167.548,379v-6.8a1.824,1.824,0,0,1-.269.166,4.7,4.7,0,0,1-.682.321,6.456,6.456,0,0,1-2.35.42h-.071a7.5,7.5,0,0,1-.848-.063,5.7,5.7,0,0,1-2.124-.678,1.592,1.592,0,0,1-.266-.166V379l-4.561,17.088a3.884,3.884,0,0,0,1.133,2.663c.1.1.194.2.289.293a5.047,5.047,0,0,0,1.042.761,9.79,9.79,0,0,0,3.464,1.129,10.393,10.393,0,0,0,1.779.147h.23a11.781,11.781,0,0,0,4.589-.907,5.653,5.653,0,0,0,.737-.377,4.829,4.829,0,0,0,1.05-.765,3.671,3.671,0,0,0,.741-.943l.02-.036a3.818,3.818,0,0,0,.583-1.966Z" transform="translate(-155.787 -368.044)" fill="#aad0e8" opacity="0.5" style="mix-blend-mode: multiply;isolation: isolate"/>
          <path id="Trazado_713141" data-name="Trazado 713141" d="M168.572,380.105h0l0-.127v-8.266a1.661,1.661,0,0,1-.689,1.276,2.277,2.277,0,0,1-.456.325c-.119.063-.25.127-.388.19a5.9,5.9,0,0,1-2.421.456c-.293-.008-.563-.028-.844-.055a5.27,5.27,0,0,1-1.847-.591c-.075-.051-.155-.1-.234-.154a1.682,1.682,0,0,1-.206-.17,1.665,1.665,0,0,1-.7-1.276v8.266c0,.04.012.079.012.127h-.012l-4.557,17.361a4.395,4.395,0,0,0,1.284,3.123c.1.107.206.226.325.337a5.521,5.521,0,0,0,1.149.84,10.111,10.111,0,0,0,3.654,1.2,12.593,12.593,0,0,0,2.12.158,12.4,12.4,0,0,0,4.819-.963,6.773,6.773,0,0,0,.8-.4,5.742,5.742,0,0,0,1.149-.84,4.018,4.018,0,0,0,.868-1.11,4.387,4.387,0,0,0,.682-2.35Z" transform="translate(-156.228 -369.49)" fill="#a8efeb" opacity="0.5"/>
          <g id="Grupo_1003440" data-name="Grupo 1003440" transform="translate(1.153 17.739)">
            <path id="Trazado_713142" data-name="Trazado 713142" d="M171.051,385.825a3.439,3.439,0,0,1-.547,1.811l-.024.036a2.9,2.9,0,0,1-.682.868,4.668,4.668,0,0,1-.971.717,6.073,6.073,0,0,1-.682.341,10.749,10.749,0,0,1-4.252.844,1.438,1.438,0,0,1-.23.012,10,10,0,0,1-1.641-.143,9.143,9.143,0,0,1-3.206-1.054,4.373,4.373,0,0,1-.979-.709,3.419,3.419,0,0,1-.258-.269,3.577,3.577,0,0,1-1.062-2.453l1.973-7.387a1.057,1.057,0,0,1,.091-.349,3.08,3.08,0,0,1,1.462-1.561,8.394,8.394,0,0,1,7.565,0,3.412,3.412,0,0,1,1.339,1.284l.23.892v.012Z" transform="translate(-156.519 -375.628)" fill="url(#linear-gradient-9)"/>
            <path id="Trazado_713143" data-name="Trazado 713143" d="M167.722,378.7v.012a2.665,2.665,0,0,1-1.569,2.176,8.3,8.3,0,0,1-7.565,0,2.479,2.479,0,0,1-1.553-2.453,1.057,1.057,0,0,1,.091-.349,3.08,3.08,0,0,1,1.462-1.561,8.394,8.394,0,0,1,7.565,0,3.412,3.412,0,0,1,1.339,1.284A1.858,1.858,0,0,1,167.722,378.7Z" transform="translate(-155.061 -375.628)" fill="url(#linear-gradient-10)"/>
          </g>
          <path id="Trazado_713144" data-name="Trazado 713144" d="M164.023,371.808c1.514.884,1.514,2.3,0,3.182a6.078,6.078,0,0,1-5.508,0c-1.514-.88-1.514-2.3,0-3.182A6.1,6.1,0,0,1,164.023,371.808Z" transform="translate(-152.816 -371.151)" fill="#78efff" opacity="0.5"/>
          <path id="Trazado_713145" data-name="Trazado 713145" d="M163.515,374.148a2.586,2.586,0,0,0-.4-.285,5,5,0,0,0-2.718-.539c-.222.02-.44.052-.654.091l-.242.055a3.649,3.649,0,0,0-1.011.392,1.269,1.269,0,0,0-.242.17.759.759,0,0,0-.162.115,1.3,1.3,0,0,1,.162-2.215,1.73,1.73,0,0,1,.242-.167,4.228,4.228,0,0,1,1.011-.4c.083-.012.162-.036.242-.051a3.971,3.971,0,0,1,.654-.087,4.96,4.96,0,0,1,2.718.535C164.236,372.412,164.367,373.419,163.515,374.148Z" transform="translate(-152.348 -370.955)" fill="#7cd1e8" style="mix-blend-mode: multiply;isolation: isolate"/>
          <path id="Trazado_713146" data-name="Trazado 713146" d="M163.105,372.584a2.57,2.57,0,0,1-.4.281,5.089,5.089,0,0,1-4.625,0,2.809,2.809,0,0,1-.4-.281,2.825,2.825,0,0,1,.4-.285,5.113,5.113,0,0,1,4.625,0A2.585,2.585,0,0,1,163.105,372.584Z" transform="translate(-151.938 -369.391)" fill="#6fd2e2" style="mix-blend-mode: multiply;isolation: isolate"/>
          <path id="Trazado_713147" data-name="Trazado 713147" d="M163.105,372.584a1.219,1.219,0,0,1-.254.19,1.636,1.636,0,0,0-.147-.1,5.112,5.112,0,0,0-4.625,0,.687.687,0,0,0-.147.1,1.61,1.61,0,0,1-.258-.19,2.825,2.825,0,0,1,.4-.285,5.113,5.113,0,0,1,4.625,0A2.585,2.585,0,0,1,163.105,372.584Z" transform="translate(-151.938 -369.391)" fill="#aadbe8" style="mix-blend-mode: multiply;isolation: isolate"/>
          <path id="Trazado_713148" data-name="Trazado 713148" d="M158.969,371.256v2.1a3.65,3.65,0,0,0-1.011.392,1.268,1.268,0,0,0-.242.17v-2.1a1.731,1.731,0,0,1,.242-.167A4.231,4.231,0,0,1,158.969,371.256Z" transform="translate(-151.816 -370.841)" fill="#fff" opacity="0.4"/>
          <path id="Trazado_713149" data-name="Trazado 713149" d="M158.748,371.221v2.092c-.222.02-.44.052-.654.091v-2.1A3.981,3.981,0,0,1,158.748,371.221Z" transform="translate(-150.699 -370.945)" fill="#fff" opacity="0.4"/>
          <path id="Trazado_713150" data-name="Trazado 713150" d="M160.659,380.228a10.888,10.888,0,0,0,.127-1.811c-.032-1.676-.012-6.424-.055-6.439a3.709,3.709,0,0,0,2.441,1.121s-.1,7.375-.258,8.286-.472,1.831-.717,2.738c-.269.955-.515,1.93-.765,2.9-.468,1.787-.943,3.586-1.411,5.37q-.452,1.742-.915,3.483c-.365,1.387-.571,2.346.178,3.65l.02.044a3.6,3.6,0,0,0,.757.963,5.313,5.313,0,0,0,1.07.785,7.5,7.5,0,0,0,.733.369,10.816,10.816,0,0,1-3.4-.848l-.25-.115a6.266,6.266,0,0,1-.547-.456,3.4,3.4,0,0,1-.761-.963l-.02-.036a4.267,4.267,0,0,1-.21-3.535c.333-1.24.658-2.465.983-3.7.388-1.546.808-3.083,1.209-4.625.365-1.407.737-2.821,1.114-4.216A24.974,24.974,0,0,0,160.659,380.228Z" transform="translate(-155.737 -368.702)" fill="#7cd1e8" opacity="0.5" style="mix-blend-mode: multiply;isolation: isolate"/>
          <path id="Trazado_713151" data-name="Trazado 713151" d="M168.245,387.671c0,5.159-2.52,5.793-5.631,5.793s-5.647-.634-5.647-5.793,2.524-12.9,5.647-12.9S168.245,382.515,168.245,387.671Z" transform="translate(-154.038 -360.424)" fill="#fff" opacity="0.2"/>
          <path id="Trazado_713152" data-name="Trazado 713152" d="M163.8,383.8c0,2.829-1.395,3.17-3.091,3.17-1.712,0-3.095-.341-3.095-3.17s1.383-7.066,3.095-7.066C162.4,376.736,163.8,380.972,163.8,383.8Z" transform="translate(-152.131 -354.605)" fill="#fff" opacity="0.2"/>
          <path id="Trazado_713153" data-name="Trazado 713153" d="M160.17,374.363l-.04-.147-.608.163-.1-.391-.143.039.1.395-.6.158.035.144.6-.159.35,1.285-.617.159.041.147.606-.166.338,1.285-.6.17.04.143.606-.162.346,1.293-.615.151.046.147.6-.166.354,1.289-.615.159.035.147.61-.162.342,1.285-.606.162.044.147.6-.17.34,1.292-.605.163.044.143.6-.162.348,1.3-.606.155.041.139.6-.162.346,1.285-.608.17.041.143.608-.166.342,1.292-.611.159.041.139.6-.158.346,1.285-.6.163.035.147.605-.162.35,1.285-.607.163.035.139.606-.159.107.418.145-.031-.111-.418.608-.167-.043-.139-.6.159-.341-1.285.6-.166-.039-.147-.607.17-.346-1.293.611-.163-.037-.139-.6.155-.343-1.281.608-.159-.041-.151-.611.166-.335-1.285.6-.162-.039-.147-.6.167-.346-1.289.607-.159-.035-.147-.613.167-.334-1.285.6-.167-.043-.143-.6.151-.346-1.277.611-.166-.035-.139-.609.163-.342-1.289.6-.159-.037-.139-.606.155-.342-1.288.609-.155-.044-.147-.606.158-.346-1.281.609-.162-.025-.151-.614.159-.346-1.281Z" transform="translate(-148.665 -362.749)" fill="#15baff" style="mix-blend-mode: multiply;isolation: isolate"/>
          <path id="Trazado_713154" data-name="Trazado 713154" d="M160.948,379.666a9.753,9.753,0,0,1-.135-1.811c.032-1.676-.02-5.667.032-5.686a5.236,5.236,0,0,1-2.425.44s.1,7.3.27,8.215.468,1.831.717,2.738c.265.955.515,1.93.765,2.9.464,1.787.935,3.586,1.4,5.37l.915,3.483c.349,1.324.594,2.425-.17,3.65L162.3,399a3.618,3.618,0,0,1-.761.963,4.9,4.9,0,0,1-1.07.785,6.7,6.7,0,0,1-.733.369,11.053,11.053,0,0,0,3.42-.848,2.327,2.327,0,0,1,.246-.115,6.084,6.084,0,0,0,.535-.456,3.266,3.266,0,0,0,.761-.963l.02-.036a4.3,4.3,0,0,0,.206-3.535c-.325-1.24-.642-2.465-.979-3.7-.392-1.546-.8-3.083-1.2-4.625-.376-1.407-.741-2.821-1.117-4.216A24.971,24.971,0,0,1,160.948,379.666Z" transform="translate(-149.734 -368.139)" fill="#fff" opacity="0.6"/>
        </g>
        <path id="Trazado_713155" data-name="Trazado 713155" d="M213.29,372.479c.155-3.9-1.934-5.136-4.541-4.85-4.193-.682-5.817.147-9.071,2.005a15.68,15.68,0,0,1-6.705,2.045c0,1.308.923,1.958,2.18,2.223a13.356,13.356,0,0,0,4-.052c-1.347.836-3,1.684-4.522,2.5a35.748,35.748,0,0,0-3.757,2.1,2.34,2.34,0,0,0-.511.416,1.66,1.66,0,0,0-.317.44,1.977,1.977,0,0,0-.048,1.117,3.63,3.63,0,0,0,.856,1.573,6.628,6.628,0,0,0,1.014.892,11.131,11.131,0,0,0,1.609.836,10.573,10.573,0,0,0,2.6.618,17.2,17.2,0,0,0,2.75.016,20.2,20.2,0,0,0,5.7-1.744,14.706,14.706,0,0,0,8.151-7.664A7.507,7.507,0,0,0,213.29,372.479Z" transform="translate(-18.882 -238.561)" fill="#ffccbc"/>
        <path id="Trazado_713156" data-name="Trazado 713156" d="M243.967,369.642c1.49-4.664-.662-14.5-2.96-14.7-5.052-3.61-12.075,5.207-13.648,10.343-.475,1.561-8.4,22.746-7.533,22.54a33.665,33.665,0,0,0-4.7,1.51,4.9,4.9,0,0,0-.127,2.885c-6.626,1.137-14.742,9.094-14.742,9.094l-5.817,3.658L199.5,419.09l12.5-6.289,19.957-11.254S241.125,384.649,243.967,369.642Z" transform="translate(-5.548 -277.943)" fill="#edf6f9"/>
        <path id="Trazado_713157" data-name="Trazado 713157" d="M183.037,379.511l-.008-16.9a.77.77,0,0,0-.44-.646,2.472,2.472,0,0,0-2.219,0,.781.781,0,0,0-.444.63h0l.008,16.913a.768.768,0,0,0,.448.658,2.519,2.519,0,0,0,2.211,0,.765.765,0,0,0,.448-.65Z" transform="translate(-48.562 -255.428)" fill="url(#linear-gradient-11)"/>
      </g>
      <g id="Grupo_1003443" data-name="Grupo 1003443" transform="translate(195.047 88.667)">
        <path id="Trazado_713158" data-name="Trazado 713158" d="M203.456,368.035l-7.463-4.315v-6.087l7.463,4.307Z" transform="translate(-195.993 -356.143)" fill="#fff"/>
        <path id="Trazado_713159" data-name="Trazado 713159" d="M199.506,362.961l-2.943-1.707v-4l2.947,1.7Z" transform="translate(-194.306 -357.257)" fill="#78909c"/>
        <path id="Trazado_713160" data-name="Trazado 713160" d="M198.108,362.1l-1.968-1.138.006-2.663,1.962,1.13Z" transform="translate(-195.559 -354.17)" fill="#d1ebed"/>
      </g>
    </g>
  </g>
</svg>
