<svg xmlns="http://www.w3.org/2000/svg" width="400" height="330" viewBox="0 0 400 330">
  <g id="Grupo_1003368" data-name="Grupo 1003368" transform="translate(-180 -9664)">
    <path id="Rectángulo_346799" data-name="Rectángulo 346799" d="M0,0H276A124,124,0,0,1,400,124v95a0,0,0,0,1,0,0H0a0,0,0,0,1,0,0V0A0,0,0,0,1,0,0Z" transform="translate(180 9775)" fill="#4db1f0" opacity="0.3"/>
    <g id="Grupo_1003367" data-name="Grupo 1003367" transform="translate(206.974 9526.764)">
      <g id="Grupo_1003246" data-name="Grupo 1003246" transform="translate(211.811 183.459)">
        <g id="Grupo_1003240" data-name="Grupo 1003240" opacity="0">
          <path id="Trazado_712809" data-name="Trazado 712809" d="M177.493,194.782a41.956,41.956,0,1,1-41.966-41.948A41.97,41.97,0,0,1,177.493,194.782Z" transform="translate(-93.582 -152.834)" fill="#b174ee" opacity="0.732"/>
        </g>
        <g id="Grupo_1003241" data-name="Grupo 1003241" transform="translate(6.546 6.991)" opacity="0.167">
          <path id="Trazado_712810" data-name="Trazado 712810" d="M166.609,190.6a35.409,35.409,0,1,1-35.42-35.4A35.419,35.419,0,0,1,166.609,190.6Z" transform="translate(-95.791 -155.193)" fill="#be8bf1" opacity="0.66"/>
        </g>
        <g id="Grupo_1003242" data-name="Grupo 1003242" transform="translate(13.09 13.982)" opacity="0.333">
          <path id="Trazado_712811" data-name="Trazado 712811" d="M155.728,186.413a28.864,28.864,0,1,1-28.873-28.861A28.871,28.871,0,0,1,155.728,186.413Z" transform="translate(-97.999 -157.552)" fill="#cba2f4" opacity="0.588"/>
        </g>
        <g id="Grupo_1003243" data-name="Grupo 1003243" transform="translate(19.636 20.976)" opacity="0.5">
          <path id="Trazado_712812" data-name="Trazado 712812" d="M144.844,182.227a22.318,22.318,0,1,1-22.327-22.315A22.322,22.322,0,0,1,144.844,182.227Z" transform="translate(-100.208 -159.912)" fill="#d8baf7" opacity="0.516"/>
        </g>
        <g id="Grupo_1003244" data-name="Grupo 1003244" transform="translate(26.182 27.966)" opacity="0.667">
          <path id="Trazado_712813" data-name="Trazado 712813" d="M133.96,178.043a15.772,15.772,0,1,1-15.781-15.772A15.772,15.772,0,0,1,133.96,178.043Z" transform="translate(-102.417 -162.271)" fill="#e5d1f9" opacity="0.444"/>
        </g>
        <g id="Grupo_1003245" data-name="Grupo 1003245" transform="translate(32.729 34.957)" opacity="0.833">
          <path id="Trazado_712814" data-name="Trazado 712814" d="M123.077,173.858a9.225,9.225,0,1,1-9.234-9.228A9.223,9.223,0,0,1,123.077,173.858Z" transform="translate(-104.626 -164.63)" fill="#f2e8fc" opacity="0.372"/>
        </g>
        <path id="Trazado_712815" data-name="Trazado 712815" d="M112.193,169.674a2.679,2.679,0,1,1-2.688-2.685A2.675,2.675,0,0,1,112.193,169.674Z" transform="translate(-67.56 -125.041)" fill="#fff" opacity="0.3"/>
      </g>
      <g id="Grupo_1003253" data-name="Grupo 1003253" transform="translate(99.747 248.543)">
        <g id="Grupo_1003247" data-name="Grupo 1003247" opacity="0">
          <path id="Trazado_712816" data-name="Trazado 712816" d="M139.678,216.744A41.956,41.956,0,1,1,97.712,174.8,41.962,41.962,0,0,1,139.678,216.744Z" transform="translate(-55.767 -174.796)" fill="#fff"/>
        </g>
        <g id="Grupo_1003248" data-name="Grupo 1003248" transform="translate(6.546 6.991)" opacity="0.167">
          <path id="Trazado_712817" data-name="Trazado 712817" d="M128.794,212.56a35.409,35.409,0,1,1-35.42-35.4A35.416,35.416,0,0,1,128.794,212.56Z" transform="translate(-57.976 -177.155)" fill="#fff" opacity="0.883"/>
        </g>
        <g id="Grupo_1003249" data-name="Grupo 1003249" transform="translate(13.09 13.982)" opacity="0.333">
          <path id="Trazado_712818" data-name="Trazado 712818" d="M117.913,208.372a28.864,28.864,0,1,1-28.873-28.858A28.867,28.867,0,0,1,117.913,208.372Z" transform="translate(-60.184 -179.514)" fill="#fff" opacity="0.767"/>
        </g>
        <g id="Grupo_1003250" data-name="Grupo 1003250" transform="translate(19.636 20.973)" opacity="0.5">
          <path id="Trazado_712819" data-name="Trazado 712819" d="M107.029,204.188A22.318,22.318,0,1,1,84.7,181.873,22.32,22.32,0,0,1,107.029,204.188Z" transform="translate(-62.393 -181.873)" fill="#fff" opacity="0.65"/>
        </g>
        <g id="Grupo_1003251" data-name="Grupo 1003251" transform="translate(26.182 27.966)" opacity="0.667">
          <path id="Trazado_712820" data-name="Trazado 712820" d="M96.145,200a15.772,15.772,0,1,1-15.781-15.769A15.774,15.774,0,0,1,96.145,200Z" transform="translate(-64.602 -184.233)" fill="#fff" opacity="0.533"/>
        </g>
        <g id="Grupo_1003252" data-name="Grupo 1003252" transform="translate(32.726 34.957)" opacity="0.833">
          <path id="Trazado_712821" data-name="Trazado 712821" d="M85.264,195.817a9.227,9.227,0,1,1-9.234-9.225A9.226,9.226,0,0,1,85.264,195.817Z" transform="translate(-66.81 -186.592)" fill="#fff" opacity="0.417"/>
        </g>
        <path id="Trazado_712822" data-name="Trazado 712822" d="M74.378,191.63a2.679,2.679,0,1,1-2.688-2.679A2.68,2.68,0,0,1,74.378,191.63Z" transform="translate(-29.745 -147.003)" fill="#fff" opacity="0.3"/>
      </g>
      <path id="Trazado_712823" data-name="Trazado 712823" d="M33.368,290.021l108.419,56.434,153.624-93.246-102.877-60.23Z" transform="translate(0 109.448)" fill="#4db1f0" opacity="0.22"/>
      <g id="Grupo_1003275" data-name="Grupo 1003275" transform="translate(38.409 137.236)">
        <g id="Grupo_1003254" data-name="Grupo 1003254" transform="translate(11.139 21.272)">
          <path id="Trazado_712824" data-name="Trazado 712824" d="M44.435,212.41c-7.438,4.3-7.48,11.264-.095,15.552L113.22,268c7.391,4.3,19.411,4.288,26.849-.006l112.206-64.785c7.432-4.288,7.486-11.252.092-15.546L183.49,147.628c-7.385-4.285-19.414-4.285-26.843,0Z" transform="translate(-38.828 -144.415)" fill="#0ecfd8"/>
        </g>
        <path id="Trazado_712825" data-name="Trazado 712825" d="M242.495,200.792,177.6,163.079c-6.958-4.039-18.291-4.039-25.287,0L46.6,224.115c-4.792,2.765-6.943,6.739-5.219,10.248l3.135,24.223a28.705,28.705,0,0,0,6.057,5.423l62.2,36.146c6.674,3.879,17.532,3.876,24.25-.006l101.324-58.5c3.183-1.837,6.022-5.963,6.022-5.963l3.325-24.944S247.447,203.673,242.495,200.792Z" transform="translate(-23.835 -92.443)" fill="#7dd4f2" opacity="0.2"/>
        <path id="Trazado_712826" data-name="Trazado 712826" d="M253.483,177.975,181.616,154.05c-7.183-4.173-18.883-4.173-26.111,0L42.116,205.342c-4.946,2.857-1.873,21.284-1.873,21.284L44.2,252.669a29.514,29.514,0,0,0,6.253,5.6l64.225,37.325c6.893,4,18.1,4,25.038-.009l104.626-60.4c3.292-1.9,6.22-6.161,6.22-6.161l3.429-25.753S258.6,180.947,253.483,177.975Z" transform="translate(-26.763 -110.367)" fill="#7dd4f2" opacity="0.5"/>
        <rect id="Rectángulo_346797" data-name="Rectángulo 346797" width="9.267" height="15.697" transform="translate(230.194 55.058)" fill="#0467d8"/>
        <g id="Grupo_1003255" data-name="Grupo 1003255" transform="translate(29.682 165.763)" opacity="0.4">
          <path id="Trazado_712827" data-name="Trazado 712827" d="M49.749,249.739c-6.191,3.574-6.22,9.371-.08,12.936l57.3,33.3c6.149,3.571,16.148,3.568,22.339-.006l93.338-53.888c6.179-3.568,6.223-9.362.074-12.936l-57.3-33.3c-6.14-3.565-16.148-3.565-22.33,0Z" transform="translate(-45.085 -193.172)" fill="#7dd4f2"/>
        </g>
        <g id="Grupo_1003264" data-name="Grupo 1003264" transform="translate(108.69 102.919)">
          <path id="Trazado_712828" data-name="Trazado 712828" d="M111.032,182.939c-.018.2-.036.406-.071.61-.03.154-.074.3-.113.453a6.191,6.191,0,0,1-.175.6c-.047.145-.121.29-.181.439-.089.2-.178.406-.287.608-.074.139-.169.279-.249.418-.139.222-.282.442-.445.661s-.317.418-.5.622c-.047.047-.086.1-.13.148a9.831,9.831,0,0,1-.791.776c-.184.169-.391.329-.593.492-.175.139-.335.276-.522.409-.21.154-.447.3-.673.453s-.468.314-.726.465c-.569.329-1.171.622-1.781.9-.181.077-.362.151-.545.225-.48.2-.975.388-1.479.563-.184.065-.365.133-.551.19-.317.1-.64.187-.96.27-.249.074-.5.145-.753.21-.347.083-.7.148-1.052.219-.234.047-.465.1-.705.142-.705.13-1.422.228-2.149.3-.231.024-.462.038-.693.059-.415.036-.833.062-1.254.083-.279.012-.551.018-.83.024-.344.006-.69.009-1.034,0-.282,0-.572-.012-.862-.024-.317-.012-.634-.03-.954-.05-.293-.021-.59-.044-.883-.077-.311-.027-.625-.059-.931-.1-.287-.039-.572-.074-.856-.119-.338-.056-.667-.113-1-.175-.261-.05-.519-.1-.782-.16-.394-.089-.788-.184-1.174-.29-.219-.053-.433-.107-.649-.169-.7-.2-1.375-.433-2.03-.687-.32-.124-.637-.264-.942-.4-.169-.074-.341-.145-.5-.219-.477-.225-.945-.465-1.39-.723-3.728-2.154-5.6-4.976-5.583-7.8L73.1,238.324c-.009,2.821,1.852,5.645,5.58,7.8.445.258.913.5,1.387.726.163.071.317.133.474.2.285.13.572.261.865.379a1.109,1.109,0,0,1,.107.036c.655.255,1.334.48,2.027.688.056.012.107.036.166.05.154.047.329.077.489.121.385.1.771.2,1.168.287.1.024.21.053.317.077.151.03.308.053.462.083.338.062.673.121,1.016.175.133.021.261.047.394.068s.284.027.427.047c.323.042.646.077.972.11.148.012.29.033.439.047s.273.012.409.024c.329.021.646.039.972.047.16.009.323.024.48.03.127,0,.258-.006.379,0,.356,0,.7,0,1.049-.006.172,0,.338,0,.5,0,.107,0,.2-.018.3-.024.433-.015.868-.044,1.3-.083.163-.018.332-.018.495-.033a1.442,1.442,0,0,1,.157-.021c.72-.08,1.443-.178,2.151-.3.036-.006.068-.006.1-.015.207-.039.406-.089.608-.127.35-.071.708-.142,1.052-.228.246-.059.483-.127.723-.2.335-.089.667-.181,1-.279.068-.024.139-.042.2-.062.119-.036.222-.086.338-.127.5-.169,1-.359,1.485-.56.178-.074.365-.151.542-.231.61-.276,1.212-.575,1.784-.9.071-.05.151-.092.231-.139.175-.1.323-.219.492-.329.228-.148.459-.293.676-.447.187-.136.359-.282.53-.424.2-.16.4-.314.581-.474.036-.036.08-.065.116-.1.243-.222.468-.45.676-.682.047-.047.089-.1.133-.154.124-.139.252-.279.362-.424.053-.062.083-.127.13-.193.163-.213.3-.436.442-.655.062-.095.136-.187.193-.285.027-.047.041-.095.068-.148.1-.19.187-.385.27-.578a3.116,3.116,0,0,0,.163-.35.623.623,0,0,0,.033-.116,5.244,5.244,0,0,0,.16-.56c.039-.13.086-.258.113-.391.009-.033.009-.068.015-.1.036-.2.053-.391.074-.587.009-.13.033-.264.036-.394,0-.05,0-.11,0-.166l.163-56.034C111.079,182.578,111.049,182.755,111.032,182.939Z" transform="translate(-69.083 -151.688)" fill="#dae5f8"/>
          <path id="Trazado_712829" data-name="Trazado 712829" d="M106.082,240.8c.228-.148.459-.293.676-.447.187-.136.359-.282.53-.424.2-.16.4-.314.581-.474.036-.036.08-.065.116-.1.243-.222.468-.45.676-.682.047-.047.089-.1.133-.154.124-.139.252-.279.362-.424.053-.062.083-.127.13-.193.163-.213.3-.436.442-.655.062-.095.136-.187.193-.285.027-.047.041-.095.068-.148.1-.19.187-.385.27-.578a3.116,3.116,0,0,0,.163-.35.622.622,0,0,0,.033-.116,5.244,5.244,0,0,0,.16-.56c.039-.13.086-.258.113-.391.009-.033.009-.068.015-.1.036-.2.053-.391.074-.587.009-.13.033-.264.036-.394,0-.05,0-.11,0-.166l.136-46.93-4.747-1.87c-.24.154-.468.314-.726.465-.569.329-1.171.622-1.781.9-.181.077-.362.151-.545.225-.48.2-.975.388-1.479.563-.184.065-.365.133-.551.19-.317.1-.64.187-.96.27-.249.074-.5.145-.753.21-.347.083-.7.148-1.052.219-.234.047-.465.1-.705.142-.705.13-1.422.228-2.149.3-.231.024-.462.038-.693.059-.062.006-.122.006-.184.015L73.149,194.95l-.015,6.17c4.931,4.688,14.5,10.639,29.741,7.711,0,0,3.017-.688,2.552,5.96-.305,4.5-.175,18.128-.056,26.467l.219-.13C105.765,241.023,105.913,240.907,106.082,240.8Z" transform="translate(-69.02 -146.83)" fill="#c0d3ed"/>
          <g id="Grupo_1003256" data-name="Grupo 1003256" transform="translate(4.177 29.328)">
            <path id="Trazado_712830" data-name="Trazado 712830" d="M105.395,185.066c7.406,4.279,7.441,11.214.08,15.493s-19.328,4.276-26.737,0-7.45-11.208-.086-15.484S97.989,180.792,105.395,185.066Z" transform="translate(-73.155 -181.862)" fill="#fffffe"/>
          </g>
          <g id="Grupo_1003257" data-name="Grupo 1003257" transform="translate(4.177 29.328)">
            <path id="Trazado_712831" data-name="Trazado 712831" d="M105.395,185.066c7.406,4.279,7.441,11.214.08,15.493s-19.328,4.276-26.737,0-7.45-11.208-.086-15.484S97.989,180.792,105.395,185.066Z" transform="translate(-73.155 -181.862)" fill="#fffffe"/>
          </g>
          <g id="Grupo_1003258" data-name="Grupo 1003258" transform="translate(0 29.328)">
            <path id="Trazado_712832" data-name="Trazado 712832" d="M111.1,185.774c9.042,5.222,9.083,13.694.1,18.916s-23.6,5.219-32.64,0S69.468,191,78.456,185.783,102.063,180.552,111.1,185.774Z" transform="translate(-71.746 -181.862)" fill="#dae8fa"/>
          </g>
          <g id="Grupo_1003259" data-name="Grupo 1003259" transform="translate(0 25.203)">
            <path id="Trazado_712833" data-name="Trazado 712833" d="M111.1,184.385c9.042,5.219,9.083,13.688.1,18.91s-23.6,5.225-32.64,0-9.095-13.685-.107-18.907S102.063,179.16,111.1,184.385Z" transform="translate(-71.746 -180.47)" fill="#fffffe"/>
          </g>
          <path id="Trazado_712834" data-name="Trazado 712834" d="M109.462,199.534a6.254,6.254,0,0,0,0-2.673V178.44H73.429v21.094H73.6c.516,2.214,2.223,4.35,5.165,6.054,7.092,4.09,18.545,4.09,25.59,0,2.928-1.7,4.614-3.841,5.1-6.054Z" transform="translate(-68.441 -159.253)" fill="#dae5f7"/>
          <path id="Trazado_712835" data-name="Trazado 712835" d="M109.462,199.534h0a6.254,6.254,0,0,0,0-2.673V178.44H73.429v10.434c4.158,3.387,12.07,6.955,25.616,3.509,0,0,11.392-2.427,4.433,4.807-3.953,4.1-1.719,8-3.452,10.254a21,21,0,0,0,4.333-1.855C107.287,203.884,108.973,201.748,109.462,199.534Z" transform="translate(-68.441 -159.253)" fill="#c0d3ed"/>
          <g id="Grupo_1003260" data-name="Grupo 1003260" transform="translate(4.986 8.707)">
            <path id="Trazado_712836" data-name="Trazado 712836" d="M104.286,177.972c7.089,4.093,7.118,10.731.074,14.823s-18.5,4.1-25.59,0-7.127-10.728-.083-14.82S97.2,173.879,104.286,177.972Z" transform="translate(-73.428 -174.904)" fill="#fffffe"/>
          </g>
          <g id="Grupo_1003261" data-name="Grupo 1003261" transform="translate(12.318 11.739)">
            <path id="Trazado_712837" data-name="Trazado 712837" d="M94.263,177.75c4.214,2.439,4.232,6.389.041,8.825a16.788,16.788,0,0,1-15.223,0c-4.22-2.436-4.241-6.386-.05-8.819A16.8,16.8,0,0,1,94.263,177.75Z" transform="translate(-75.902 -175.927)" fill="#dae5f7"/>
          </g>
          <rect id="Rectángulo_346798" data-name="Rectángulo 346798" width="21.433" height="12.549" transform="translate(12.318 6.238)" fill="#dae5f7"/>
          <g id="Grupo_1003262" data-name="Grupo 1003262" transform="translate(12.318)">
            <path id="Trazado_712838" data-name="Trazado 712838" d="M94.263,173.79c4.214,2.436,4.232,6.386.041,8.825a16.788,16.788,0,0,1-15.223,0c-4.22-2.439-4.241-6.386-.05-8.819A16.788,16.788,0,0,1,94.263,173.79Z" transform="translate(-75.902 -171.966)" fill="#fffffe"/>
          </g>
          <g id="Grupo_1003263" data-name="Grupo 1003263" transform="translate(15.564 1.879)">
            <path id="Trazado_712839" data-name="Trazado 712839" d="M89.824,173.875c2.943,1.7,2.958,4.46.03,6.161a11.7,11.7,0,0,1-10.636,0c-2.946-1.7-2.963-4.457-.036-6.161A11.734,11.734,0,0,1,89.824,173.875Z" transform="translate(-76.998 -172.6)" fill="#c7d7f2"/>
          </g>
        </g>
        <path id="Trazado_712840" data-name="Trazado 712840" d="M257.158,198.677c1.793-3.7.213-7.827-4.792-10.728l-68.874-40.031c-7.388-4.288-19.42-4.288-26.846,0L44.439,212.7c-4.662,2.691-6.416,6.422-5.269,9.892L60.19,373.748c0,.027,0,.053.009.083h0c.329,1.968,1.781,3.879,4.368,5.379l55.482,32.243a22.027,22.027,0,0,0,11.027,2.584l.012.009.012-.009a22.066,22.066,0,0,0,10.583-2.584l90.386-52.187c2.735-1.579,4.214-3.607,4.463-5.675h0Z" transform="translate(-27.685 -122.576)" fill="#defdff" opacity="0.5"/>
        <g id="Grupo_1003265" data-name="Grupo 1003265" transform="translate(1.878 14.21)">
          <path id="Trazado_712841" data-name="Trazado 712841" d="M41.787,215.782c-8.073,4.659-8.114,12.215-.11,16.868l74.706,43.418c8.019,4.656,21.056,4.65,29.122-.012L267.2,205.8c8.058-4.653,8.117-12.2.095-16.868l-74.7-43.412c-8-4.65-21.056-4.65-29.107,0Z" transform="translate(-35.703 -142.031)" fill="#0467d8"/>
        </g>
        <path id="Trazado_712842" data-name="Trazado 712842" d="M35.724,165.234v14.213l9.2-4.654Z" transform="translate(-33.785 -82.263)" fill="#0467d8"/>
        <g id="Grupo_1003266" data-name="Grupo 1003266" transform="translate(1.878)">
          <path id="Trazado_712843" data-name="Trazado 712843" d="M41.787,210.984c-8.073,4.659-8.114,12.218-.11,16.871l74.706,43.418c8.019,4.656,21.056,4.647,29.122-.012L267.2,201c8.058-4.65,8.117-12.2.095-16.859l-74.7-43.415c-8-4.653-21.056-4.653-29.107,0Z" transform="translate(-35.703 -137.236)" fill="#298bed"/>
        </g>
        <g id="Grupo_1003267" data-name="Grupo 1003267" transform="translate(52.826 23.638)">
          <path id="Trazado_712844" data-name="Trazado 712844" d="M56.368,187.333c-4.608,2.658-4.632,6.973-.065,9.634L98.971,221.76c4.579,2.658,12.023,2.658,16.634-.006l69.5-40.129c4.6-2.652,4.635-6.97.056-9.628L142.493,147.2c-4.567-2.655-12.023-2.655-16.622,0Z" transform="translate(-52.895 -145.213)" fill="#0467d8"/>
        </g>
        <g id="Grupo_1003269" data-name="Grupo 1003269" transform="translate(88.197 29.979)">
          <path id="Trazado_712845" data-name="Trazado 712845" d="M65.056,173.916c.018.053.03.107.044.154a5.471,5.471,0,0,0,.634,1.233,2.094,2.094,0,0,0,.142.216,7.353,7.353,0,0,0,1.055,1.165,9.929,9.929,0,0,0,.9.664c.285.2.525.418.853.61a15.148,15.148,0,0,0,2.6,1.144c.332.119.679.216,1.025.314.427.119.853.231,1.289.32.548.113,1.088.213,1.648.284.122.015.243.038.367.05.741.08,1.5.122,2.249.127h.326a21.67,21.67,0,0,0,2.2-.124c.116-.009.231-.024.347-.039a20.791,20.791,0,0,0,2.125-.364c.124-.03.246-.059.373-.092a17.9,17.9,0,0,0,1.837-.56c.11-.038.222-.065.329-.11a14.913,14.913,0,0,0,2.021-.951L126.5,155.395c2.614-1.508,3.924-3.485,3.918-5.465l.036,12.251c.006,1.974-1.3,3.956-3.921,5.465L87.463,190.2a14.342,14.342,0,0,1-1.92.922l-.1.036c-.107.039-.216.068-.323.107-.391.145-.779.287-1.185.4-.216.059-.439.107-.658.16l-.373.095c-.119.024-.231.056-.35.083-.436.089-.871.166-1.316.231-.157.018-.317.033-.48.05-.1.015-.2.024-.305.036-.169.018-.332.042-.5.056-.433.039-.865.056-1.3.068-.133,0-.27,0-.406,0-.119,0-.237,0-.353,0-.2,0-.4,0-.6,0-.489-.018-.978-.047-1.464-.1-.053-.009-.107-.018-.163-.024-.136-.015-.27-.036-.409-.053-.376-.047-.75-.092-1.117-.16-.166-.03-.32-.086-.477-.119-.456-.092-.895-.207-1.337-.329-.228-.068-.474-.1-.7-.175-.107-.036-.19-.095-.3-.13a14.371,14.371,0,0,1-2.614-1.153l-.16-.092c-.246-.148-.424-.32-.646-.477a11.008,11.008,0,0,1-.945-.7c-.024-.024-.062-.044-.089-.068a7.614,7.614,0,0,1-.821-.886c-.05-.065-.089-.136-.139-.207s-.1-.148-.151-.219c-.077-.119-.172-.24-.24-.362a5.983,5.983,0,0,1-.359-.753.73.73,0,0,0-.03-.116c-.015-.05-.027-.1-.041-.151a3.664,3.664,0,0,1-.139-.48,3.951,3.951,0,0,1-.086-.765c0-.039,0-.074,0-.119l-.036-12.248A4.536,4.536,0,0,0,65.056,173.916Z" transform="translate(-64.83 -142.292)" fill="#298bed"/>
          <g id="Grupo_1003268" data-name="Grupo 1003268">
            <path id="Trazado_712846" data-name="Trazado 712846" d="M68.741,172.158c-5.2,3-5.207,7.865-.056,10.861s13.543,3,18.741,0L126.5,160.455c5.2-3,5.225-7.853.059-10.855-5.148-2.99-13.546-3-18.747,0Z" transform="translate(-64.831 -147.353)" fill="#0359ba"/>
          </g>
        </g>
        <path id="Trazado_712847" data-name="Trazado 712847" d="M227.111,221.9s-.13,2.617-4.466,5.139c-8.39,4.878-11.54,6.62-11.54,6.62l-46.74-30.21c-5.945-3.482-15.632-3.482-21.619,0L58.705,253s-6.463-3.953-8.642-5.073a15.378,15.378,0,0,1-4.979-4.706l2.833,20.392.1-.044c.4,1.9,1.778,3.74,4.264,5.195l55.482,32.542c5.957,3.494,15.638,3.488,21.63-.006l90.392-52.667c2.546-1.488,3.95-3.369,4.339-5.311l.124.05Z" transform="translate(-15.404 -12.363)" fill="#7dd4f2" opacity="0.5"/>
        <g id="Grupo_1003274" data-name="Grupo 1003274" transform="translate(0 132.242)">
          <g id="Grupo_1003273" data-name="Grupo 1003273" style="isolation: isolate">
            <g id="Grupo_1003270" data-name="Grupo 1003270" transform="translate(0 19.474)">
              <path id="Trazado_712848" data-name="Trazado 712848" d="M52.422,280.928,35.069,270.839l14.349-82.408,17.35,10.086Z" transform="translate(-35.069 -188.432)" fill="#298bed"/>
            </g>
            <g id="Grupo_1003271" data-name="Grupo 1003271" transform="translate(14.349)">
              <path id="Trazado_712849" data-name="Trazado 712849" d="M57.261,211.42l-17.35-10.086L73.424,181.86l17.353,10.083Z" transform="translate(-39.911 -181.86)" fill="#298bed"/>
            </g>
            <g id="Grupo_1003272" data-name="Grupo 1003272" transform="translate(17.353 10.083)">
              <path id="Trazado_712850" data-name="Trazado 712850" d="M88.786,185.263l.061,21.118L65.912,219.618,54.475,285.292l-13.55,1.858L55.27,204.74Z" transform="translate(-40.925 -185.263)" fill="#0467d8"/>
            </g>
          </g>
        </g>
        <path id="Trazado_712851" data-name="Trazado 712851" d="M92.945,143.677s33.428-5.589,40.389,0c4.688,3.767,5.589,26.348,5.589,26.348Z" transform="translate(78.569 -129.468)" fill="#298bed"/>
        <path id="Trazado_712852" data-name="Trazado 712852" d="M97.383,144.645s19.162-4.7,22.92-.19,2.252,15.028,2.252,15.028Z" transform="translate(87.283 -126.901)" fill="#0467d8"/>
      </g>
      <g id="Grupo_1003366" data-name="Grupo 1003366" transform="translate(181.328 204.612)">
        <g id="Grupo_1003346" data-name="Grupo 1003346">
          <g id="Grupo_1003345" data-name="Grupo 1003345" style="isolation: isolate">
            <g id="Grupo_1003276" data-name="Grupo 1003276" transform="translate(106.674 195.121)">
              <path id="Trazado_712853" data-name="Trazado 712853" d="M122.421,225.814l-3.129.1,1.673,4.587,3.129-.1Z" transform="translate(-119.292 -225.814)" fill="#a2c4c5"/>
            </g>
            <g id="Grupo_1003277" data-name="Grupo 1003277" transform="translate(106.24 199.714)">
              <path id="Trazado_712854" data-name="Trazado 712854" d="M124.381,227.363l-3.129.1-2.107,1.215,3.129-.1Z" transform="translate(-119.146 -227.363)" fill="#9fc0c1"/>
            </g>
            <g id="Grupo_1003278" data-name="Grupo 1003278" transform="translate(106.24 200.926)">
              <path id="Trazado_712855" data-name="Trazado 712855" d="M122.274,227.773l-3.129.1,2.055,5.646,3.137-.1Z" transform="translate(-119.146 -227.773)" fill="#147f91"/>
            </g>
            <g id="Grupo_1003279" data-name="Grupo 1003279" transform="translate(104.57 195.121)">
              <path id="Trazado_712856" data-name="Trazado 712856" d="M123.815,225.814l-3.129.1-2.1,1.213,3.126-.1Z" transform="translate(-118.582 -225.814)" fill="#9fc0c1"/>
            </g>
            <g id="Grupo_1003280" data-name="Grupo 1003280" transform="translate(97.468 169.839)">
              <path id="Trazado_712857" data-name="Trazado 712857" d="M119.314,217.282l-3.129.1,1.676,4.607,3.131-.1Z" transform="translate(-116.186 -217.282)" fill="#a2c4c5"/>
            </g>
            <g id="Grupo_1003281" data-name="Grupo 1003281" transform="translate(97.04 174.449)">
              <path id="Trazado_712858" data-name="Trazado 712858" d="M121.276,218.838l-3.131.1-2.1,1.218,3.129-.1Z" transform="translate(-116.041 -218.838)" fill="#9fc0c1"/>
            </g>
            <g id="Grupo_1003282" data-name="Grupo 1003282" transform="translate(97.04 175.664)">
              <path id="Trazado_712859" data-name="Trazado 712859" d="M119.17,219.248l-3.129.1,7.53,20.669,3.126-.1Z" transform="translate(-116.041 -219.248)" fill="#147f91"/>
            </g>
            <g id="Grupo_1003283" data-name="Grupo 1003283" transform="translate(95.355 169.839)">
              <path id="Trazado_712860" data-name="Trazado 712860" d="M120.714,217.282l-3.129.1-2.112,1.215,3.134-.1Z" transform="translate(-115.473 -217.282)" fill="#9fc0c1"/>
            </g>
            <g id="Grupo_1003284" data-name="Grupo 1003284" transform="translate(86.586 139.99)">
              <path id="Trazado_712861" data-name="Trazado 712861" d="M115.651,207.21l-3.137.1,1.679,4.59,3.131-.1Z" transform="translate(-112.514 -207.21)" fill="#a2c4c5"/>
            </g>
            <g id="Grupo_1003285" data-name="Grupo 1003285" transform="translate(86.161 145.795)">
              <path id="Trazado_712862" data-name="Trazado 712862" d="M115.5,209.169l-3.129.1,9.194,25.262,3.134-.1Z" transform="translate(-112.37 -209.169)" fill="#147f91"/>
            </g>
            <g id="Grupo_1003286" data-name="Grupo 1003286" transform="translate(86.161 144.577)">
              <path id="Trazado_712863" data-name="Trazado 712863" d="M117.605,208.758l-3.131.1-2.1,1.215,3.129-.1Z" transform="translate(-112.37 -208.758)" fill="#9fc0c1"/>
            </g>
            <g id="Grupo_1003287" data-name="Grupo 1003287" transform="translate(84.488 139.99)">
              <path id="Trazado_712864" data-name="Trazado 712864" d="M117.041,207.21l-3.137.1-2.1,1.216,3.131-.1Z" transform="translate(-111.806 -207.21)" fill="#9fc0c1"/>
            </g>
            <g id="Grupo_1003288" data-name="Grupo 1003288" transform="translate(72.374 100.941)">
              <path id="Trazado_712865" data-name="Trazado 712865" d="M110.84,194.033l-3.123.1,1.664,4.59,3.137-.1Z" transform="translate(-107.718 -194.033)" fill="#a2c4c5"/>
            </g>
            <g id="Grupo_1003289" data-name="Grupo 1003289" transform="translate(71.934 106.746)">
              <path id="Trazado_712866" data-name="Trazado 712866" d="M110.706,195.992l-3.137.1,12.555,34.462,3.131-.1Z" transform="translate(-107.569 -195.992)" fill="#147f91"/>
            </g>
            <g id="Grupo_1003290" data-name="Grupo 1003290" transform="translate(71.934 105.528)">
              <path id="Trazado_712867" data-name="Trazado 712867" d="M112.811,195.581l-3.137.1-2.1,1.213,3.137-.1Z" transform="translate(-107.569 -195.581)" fill="#9fc0c1"/>
            </g>
            <g id="Grupo_1003291" data-name="Grupo 1003291" transform="translate(74.837 196.339)">
              <path id="Trazado_712868" data-name="Trazado 712868" d="M141.408,226.225l-3.126.1-29.733,17.165,3.129-.1Z" transform="translate(-108.549 -226.225)" fill="#147f91"/>
            </g>
            <g id="Grupo_1003292" data-name="Grupo 1003292" transform="translate(74.402 218.091)">
              <path id="Trazado_712869" data-name="Trazado 712869" d="M113.644,233.565l-3.137.1-2.1,1.219,3.129-.1Z" transform="translate(-108.402 -233.565)" fill="#9fc0c1"/>
            </g>
            <g id="Grupo_1003293" data-name="Grupo 1003293" transform="translate(70.261 100.941)">
              <path id="Trazado_712870" data-name="Trazado 712870" d="M112.24,194.033l-3.123.1L107,195.35l3.134-.1Z" transform="translate(-107.005 -194.033)" fill="#9fc0c1"/>
            </g>
            <g id="Grupo_1003294" data-name="Grupo 1003294" transform="translate(75.858 195.121)">
              <path id="Trazado_712871" data-name="Trazado 712871" d="M108.894,245.412l1.673,4.59,2.113-1.218L142.4,231.619l2.107-1.213-1.673-4.593-2.107,1.218L111,244.2Z" transform="translate(-108.894 -225.814)" fill="#29b2dc"/>
            </g>
            <g id="Grupo_1003295" data-name="Grupo 1003295" transform="translate(72.73 214.719)">
              <path id="Trazado_712872" data-name="Trazado 712872" d="M110.966,232.427l-3.129.1,1.673,4.593,3.129-.1Z" transform="translate(-107.838 -232.427)" fill="#a2c4c5"/>
            </g>
            <g id="Grupo_1003296" data-name="Grupo 1003296" transform="translate(72.73 213.504)">
              <path id="Trazado_712873" data-name="Trazado 712873" d="M113.073,232.017l-3.129.1-2.107,1.216,3.129-.1Z" transform="translate(-107.838 -232.017)" fill="#9fc0c1"/>
            </g>
            <g id="Grupo_1003297" data-name="Grupo 1003297" transform="translate(65.628 171.057)">
              <path id="Trazado_712874" data-name="Trazado 712874" d="M138.3,217.693l-3.134.1-29.728,17.167,3.129-.1Z" transform="translate(-105.441 -217.693)" fill="#147f91"/>
            </g>
            <g id="Grupo_1003298" data-name="Grupo 1003298" transform="translate(61.501 71.092)">
              <path id="Trazado_712875" data-name="Trazado 712875" d="M107.171,183.961l-3.123.1,1.664,4.59,3.128-.1Z" transform="translate(-104.049 -183.961)" fill="#a2c4c5"/>
            </g>
            <g id="Grupo_1003299" data-name="Grupo 1003299" transform="translate(65.203 192.832)">
              <path id="Trazado_712876" data-name="Trazado 712876" d="M110.533,225.041l-3.132.1-2.1,1.213,3.125-.1Z" transform="translate(-105.298 -225.041)" fill="#9fc0c1"/>
            </g>
            <g id="Grupo_1003300" data-name="Grupo 1003300" transform="translate(61.061 75.679)">
              <path id="Trazado_712877" data-name="Trazado 712877" d="M109.133,185.509l-3.128.1-2.1,1.215,3.129-.1Z" transform="translate(-103.9 -185.509)" fill="#9fc0c1"/>
            </g>
            <g id="Grupo_1003301" data-name="Grupo 1003301" transform="translate(61.061 76.897)">
              <path id="Trazado_712878" data-name="Trazado 712878" d="M107.029,185.92l-3.129.1,9.2,25.265,3.134-.1Z" transform="translate(-103.9 -185.92)" fill="#147f91"/>
            </g>
            <g id="Grupo_1003302" data-name="Grupo 1003302" transform="translate(63.521 189.44)">
              <path id="Trazado_712879" data-name="Trazado 712879" d="M107.862,223.9l-3.131.1,1.681,4.607,3.125-.1Z" transform="translate(-104.731 -223.897)" fill="#a2c4c5"/>
            </g>
            <g id="Grupo_1003303" data-name="Grupo 1003303" transform="translate(66.652 169.839)">
              <path id="Trazado_712880" data-name="Trazado 712880" d="M105.787,236.884l1.676,4.6,2.11-1.213,29.73-17.167,2.107-1.215-1.679-4.61-2.107,1.219-29.733,17.164Z" transform="translate(-105.787 -217.282)" fill="#29b2dc"/>
            </g>
            <g id="Grupo_1003304" data-name="Grupo 1003304" transform="translate(63.521 188.222)">
              <path id="Trazado_712881" data-name="Trazado 712881" d="M109.966,223.485l-3.129.1-2.107,1.213,3.131-.1Z" transform="translate(-104.731 -223.485)" fill="#9fc0c1"/>
            </g>
            <g id="Grupo_1003305" data-name="Grupo 1003305" transform="translate(59.394 71.092)">
              <path id="Trazado_712882" data-name="Trazado 712882" d="M108.567,183.961l-3.123.1-2.107,1.218,3.123-.1Z" transform="translate(-103.338 -183.961)" fill="#9fc0c1"/>
            </g>
            <g id="Grupo_1003306" data-name="Grupo 1003306" transform="translate(54.758 141.208)">
              <path id="Trazado_712883" data-name="Trazado 712883" d="M134.635,207.621l-3.131.1-29.731,17.161,3.129-.1Z" transform="translate(-101.773 -207.621)" fill="#147f91"/>
            </g>
            <g id="Grupo_1003307" data-name="Grupo 1003307" transform="translate(54.324 162.96)">
              <path id="Trazado_712884" data-name="Trazado 712884" d="M106.859,214.961l-3.129.1-2.1,1.216,3.128-.1Z" transform="translate(-101.627 -214.961)" fill="#9fc0c1"/>
            </g>
            <g id="Grupo_1003308" data-name="Grupo 1003308" transform="translate(49.78 38.922)">
              <path id="Trazado_712885" data-name="Trazado 712885" d="M103.222,173.106l-3.128.1,1.673,4.587,3.129-.1Z" transform="translate(-100.094 -173.106)" fill="#a2c4c5"/>
            </g>
            <g id="Grupo_1003309" data-name="Grupo 1003309" transform="translate(49.346 43.515)">
              <path id="Trazado_712886" data-name="Trazado 712886" d="M105.183,174.655l-3.129.1-2.107,1.218,3.128-.1Z" transform="translate(-99.947 -174.655)" fill="#9fc0c1"/>
            </g>
            <g id="Grupo_1003310" data-name="Grupo 1003310" transform="translate(49.346 44.727)">
              <path id="Trazado_712887" data-name="Trazado 712887" d="M103.076,175.065l-3.128.1L110,202.743l3.123-.1Z" transform="translate(-99.947 -175.065)" fill="#147f91"/>
            </g>
            <g id="Grupo_1003311" data-name="Grupo 1003311" transform="translate(52.648 159.585)">
              <path id="Trazado_712888" data-name="Trazado 712888" d="M104.193,213.822l-3.131.1,1.676,4.587,3.128-.1Z" transform="translate(-101.062 -213.822)" fill="#a2c4c5"/>
            </g>
            <g id="Grupo_1003312" data-name="Grupo 1003312" transform="translate(52.648 158.373)">
              <path id="Trazado_712889" data-name="Trazado 712889" d="M106.3,213.413l-3.129.1-2.11,1.218,3.131-.1Z" transform="translate(-101.062 -213.413)" fill="#9fc0c1"/>
            </g>
            <g id="Grupo_1003313" data-name="Grupo 1003313" transform="translate(55.78 139.99)">
              <path id="Trazado_712890" data-name="Trazado 712890" d="M102.118,226.805l1.673,4.59,2.1-1.216,29.733-17.164,2.107-1.218-1.673-4.587-2.1,1.218-29.733,17.164Z" transform="translate(-102.118 -207.21)" fill="#29b2dc"/>
            </g>
            <g id="Grupo_1003314" data-name="Grupo 1003314" transform="translate(47.676 38.922)">
              <path id="Trazado_712891" data-name="Trazado 712891" d="M104.616,173.106l-3.128.1-2.1,1.213,3.129-.1Z" transform="translate(-99.384 -173.106)" fill="#9fc0c1"/>
            </g>
            <g id="Grupo_1003315" data-name="Grupo 1003315" transform="translate(38.907 9.073)">
              <path id="Trazado_712892" data-name="Trazado 712892" d="M99.553,163.033l-3.129.1,1.673,4.59,3.128-.1Z" transform="translate(-96.425 -163.033)" fill="#a2c4c5"/>
            </g>
            <g id="Grupo_1003316" data-name="Grupo 1003316" transform="translate(38.473 14.878)">
              <path id="Trazado_712893" data-name="Trazado 712893" d="M99.407,164.992l-3.129.1,9.2,25.262,3.129-.1Z" transform="translate(-96.278 -164.992)" fill="#147f91"/>
            </g>
            <g id="Grupo_1003317" data-name="Grupo 1003317" transform="translate(38.473 13.66)">
              <path id="Trazado_712894" data-name="Trazado 712894" d="M101.514,164.581l-3.128.1L96.278,165.9l3.129-.1Z" transform="translate(-96.278 -164.581)" fill="#9fc0c1"/>
            </g>
            <g id="Grupo_1003318" data-name="Grupo 1003318" transform="translate(40.534 102.156)">
              <path id="Trazado_712895" data-name="Trazado 712895" d="M129.835,194.443l-3.134.1L96.974,211.709l3.129-.1Z" transform="translate(-96.974 -194.443)" fill="#147f91"/>
            </g>
            <g id="Grupo_1003319" data-name="Grupo 1003319" transform="translate(36.803 9.073)">
              <path id="Trazado_712896" data-name="Trazado 712896" d="M100.947,163.033l-3.129.1-2.1,1.213,3.129-.1Z" transform="translate(-95.715 -163.033)" fill="#9fc0c1"/>
            </g>
            <g id="Grupo_1003320" data-name="Grupo 1003320" transform="translate(40.099 123.908)">
              <path id="Trazado_712897" data-name="Trazado 712897" d="M102.063,201.783l-3.129.1L96.827,203.1l3.131-.1Z" transform="translate(-96.827 -201.783)" fill="#9fc0c1"/>
            </g>
            <g id="Grupo_1003321" data-name="Grupo 1003321" transform="translate(38.43 119.321)">
              <path id="Trazado_712898" data-name="Trazado 712898" d="M101.5,200.235l-3.129.1-2.1,1.216,3.128-.1Z" transform="translate(-96.264 -200.235)" fill="#9fc0c1"/>
            </g>
            <g id="Grupo_1003322" data-name="Grupo 1003322" transform="translate(41.558 100.941)">
              <path id="Trazado_712899" data-name="Trazado 712899" d="M97.319,213.629l1.673,4.59L101.1,217l29.736-17.162,2.1-1.218-1.678-4.587-2.1,1.216L99.423,212.413Z" transform="translate(-97.319 -194.033)" fill="#29b2dc"/>
            </g>
            <g id="Grupo_1003323" data-name="Grupo 1003323" transform="translate(38.43 120.536)">
              <path id="Trazado_712900" data-name="Trazado 712900" d="M99.392,200.645l-3.128.1,1.67,4.59,3.131-.1Z" transform="translate(-96.264 -200.645)" fill="#a2c4c5"/>
            </g>
            <g id="Grupo_1003324" data-name="Grupo 1003324" transform="translate(33.938 2.431)">
              <path id="Trazado_712901" data-name="Trazado 712901" d="M97.885,160.792l-3.137.1,2.865,7.854,3.129-.1Z" transform="translate(-94.748 -160.792)" fill="#147f91"/>
            </g>
            <g id="Grupo_1003325" data-name="Grupo 1003325" transform="translate(33.938)">
              <path id="Trazado_712902" data-name="Trazado 712902" d="M102.1,159.972l-3.131.1L94.748,162.5l3.137-.1Z" transform="translate(-94.748 -159.972)" fill="#29b2dc"/>
            </g>
            <g id="Grupo_1003326" data-name="Grupo 1003326" transform="translate(37.075)">
              <path id="Trazado_712903" data-name="Trazado 712903" d="M95.807,162.4l2.857,7.854,2.1-1.213,1.673,4.587-2.107,1.218,9.2,25.262,2.1-1.218,1.673,4.593-2.107,1.213,10.042,27.577,2.107-1.213,1.67,4.587-2.1,1.218,9.206,25.259,2.1-1.216,1.679,4.587-2.1,1.218,12.549,34.462,2.1-1.218,1.673,4.587-2.107,1.218,9.2,25.262,2.107-1.219,1.679,4.61-2.107,1.215,7.527,20.675,2.107-1.218,1.673,4.593L168.1,360.9l2.063,5.643,4.2-2.428L100.017,159.972Z" transform="translate(-95.807 -159.972)" fill="#29b2dc"/>
            </g>
            <g id="Grupo_1003327" data-name="Grupo 1003327" transform="translate(29.664 72.304)">
              <path id="Trazado_712904" data-name="Trazado 712904" d="M126.159,184.37l-3.123.1-29.73,17.164,3.126-.1Z" transform="translate(-93.306 -184.37)" fill="#147f91"/>
            </g>
            <g id="Grupo_1003328" data-name="Grupo 1003328" transform="translate(29.23 94.059)">
              <path id="Trazado_712905" data-name="Trazado 712905" d="M98.394,191.711l-3.132.1-2.1,1.216,3.128-.1Z" transform="translate(-93.159 -191.711)" fill="#9fc0c1"/>
            </g>
            <g id="Grupo_1003329" data-name="Grupo 1003329" transform="translate(30.685 71.092)">
              <path id="Trazado_712906" data-name="Trazado 712906" d="M93.65,203.551l1.673,4.6,2.107-1.219,29.725-17.161,2.1-1.218-1.67-4.587-2.107,1.213L95.754,202.341Z" transform="translate(-93.65 -183.961)" fill="#29b2dc"/>
            </g>
            <g id="Grupo_1003330" data-name="Grupo 1003330" transform="translate(27.551 90.681)">
              <path id="Trazado_712907" data-name="Trazado 712907" d="M95.727,190.571l-3.134.1,1.679,4.59,3.128-.1Z" transform="translate(-92.593 -190.571)" fill="#a2c4c5"/>
            </g>
            <g id="Grupo_1003331" data-name="Grupo 1003331" transform="translate(27.551 89.472)">
              <path id="Trazado_712908" data-name="Trazado 712908" d="M97.831,190.163l-3.126.1-2.113,1.215,3.134-.1Z" transform="translate(-92.593 -190.163)" fill="#9fc0c1"/>
            </g>
            <g id="Grupo_1003332" data-name="Grupo 1003332" transform="translate(17.949 40.14)">
              <path id="Trazado_712909" data-name="Trazado 712909" d="M122.209,173.517l-3.129.1L89.353,190.782l3.129-.1Z" transform="translate(-89.353 -173.517)" fill="#147f91"/>
            </g>
            <g id="Grupo_1003333" data-name="Grupo 1003333" transform="translate(17.506 61.889)">
              <path id="Trazado_712910" data-name="Trazado 712910" d="M94.447,180.855l-3.137.1L89.2,182.178l3.137-.1Z" transform="translate(-89.203 -180.855)" fill="#9fc0c1"/>
            </g>
            <g id="Grupo_1003334" data-name="Grupo 1003334" transform="translate(15.842 57.302)">
              <path id="Trazado_712911" data-name="Trazado 712911" d="M93.877,179.308l-3.129.1-2.107,1.215,3.129-.1Z" transform="translate(-88.642 -179.308)" fill="#9fc0c1"/>
            </g>
            <g id="Grupo_1003335" data-name="Grupo 1003335" transform="translate(18.97 38.922)">
              <path id="Trazado_712912" data-name="Trazado 712912" d="M89.7,192.7l1.673,4.587,2.107-1.218L123.2,178.911l2.107-1.213-1.673-4.593-2.1,1.218L91.8,191.485Z" transform="translate(-89.697 -173.106)" fill="#29b2dc"/>
            </g>
            <g id="Grupo_1003336" data-name="Grupo 1003336" transform="translate(15.842 58.52)">
              <path id="Trazado_712913" data-name="Trazado 712913" d="M91.77,179.719l-3.129.1,1.664,4.59,3.137-.1Z" transform="translate(-88.642 -179.719)" fill="#a2c4c5"/>
            </g>
            <g id="Grupo_1003337" data-name="Grupo 1003337" transform="translate(7.07 10.285)">
              <path id="Trazado_712914" data-name="Trazado 712914" d="M118.543,163.442l-3.129.1L85.682,180.708l3.137-.1Z" transform="translate(-85.682 -163.442)" fill="#147f91"/>
            </g>
            <g id="Grupo_1003338" data-name="Grupo 1003338" transform="translate(6.636 32.04)">
              <path id="Trazado_712915" data-name="Trazado 712915" d="M90.776,170.783l-3.134.1L85.535,172.1l3.128-.1Z" transform="translate(-85.535 -170.783)" fill="#9fc0c1"/>
            </g>
            <g id="Grupo_1003339" data-name="Grupo 1003339" transform="translate(4.963 28.671)">
              <path id="Trazado_712916" data-name="Trazado 712916" d="M88.1,169.646l-3.131.1,1.673,4.59,3.128-.1Z" transform="translate(-84.971 -169.646)" fill="#a2c4c5"/>
            </g>
            <g id="Grupo_1003340" data-name="Grupo 1003340" transform="translate(4.963 27.453)">
              <path id="Trazado_712917" data-name="Trazado 712917" d="M90.215,169.235l-3.137.1-2.107,1.218,3.131-.1Z" transform="translate(-84.971 -169.235)" fill="#9fc0c1"/>
            </g>
            <g id="Grupo_1003341" data-name="Grupo 1003341" transform="translate(8.094 9.073)">
              <path id="Trazado_712918" data-name="Trazado 712918" d="M86.027,182.632l1.67,4.587L89.81,186l29.725-17.162,2.107-1.218-1.673-4.587-2.1,1.213L88.14,181.413Z" transform="translate(-86.027 -163.033)" fill="#29b2dc"/>
            </g>
            <g id="Grupo_1003342" data-name="Grupo 1003342" transform="translate(3.131 19.595)">
              <path id="Trazado_712919" data-name="Trazado 712919" d="M84.353,169.018l74.353,204.142,4.211-2.431-2.052-5.649-2.113,1.218-1.673-4.59,2.107-1.216-7.527-20.672-2.11,1.213-1.676-4.6,2.1-1.218-9.2-25.262-2.1,1.216L137,306.574l2.107-1.213L126.556,270.9l-2.1,1.218-1.673-4.59,2.1-1.215-9.2-25.262-2.107,1.219-1.673-4.6,2.1-1.21-10.039-27.583-2.107,1.218-1.673-4.587,2.107-1.219-9.2-25.262-2.113,1.218-1.67-4.587,2.113-1.218-2.868-7.857Z" transform="translate(-84.353 -166.584)" fill="#29b2dc"/>
            </g>
            <g id="Grupo_1003343" data-name="Grupo 1003343" transform="translate(0 22.029)">
              <path id="Trazado_712920" data-name="Trazado 712920" d="M86.427,167.405l-3.131.1,74.348,204.136,3.137-.1Z" transform="translate(-83.296 -167.405)" fill="#147f91"/>
            </g>
            <g id="Grupo_1003344" data-name="Grupo 1003344" transform="translate(0 19.595)">
              <path id="Trazado_712921" data-name="Trazado 712921" d="M90.635,166.584l-3.126.1L83.3,169.119l3.131-.1Z" transform="translate(-83.296 -166.584)" fill="#29b2dc"/>
            </g>
          </g>
        </g>
        <g id="Grupo_1003365" data-name="Grupo 1003365" transform="translate(10.682 4.07)">
          <path id="Trazado_712922" data-name="Trazado 712922" d="M107.014,175.071s-3.038-11.178-7.53-11.756-6.179,2.966-5.334,3.814,7.2,4.91,8.929,9.548C103.078,176.678,105.855,177.27,107.014,175.071Z" transform="translate(-73.08 -157.602)" fill="#efb185"/>
          <path id="Trazado_712923" data-name="Trazado 712923" d="M132.869,169.839c2.753,1.242,5.1,6.8-3.1,10.583s-25.347,12.55-28.449,10.846c-2.507-1.387-5.4-5.3,4.531-10.87S126.082,166.772,132.869,169.839Z" transform="translate(-63.347 -145.993)" fill="#f9f9f9"/>
          <path id="Trazado_712924" data-name="Trazado 712924" d="M112.374,195.566s-5.3,4.158-8.722-.412-7.246-26.185-7.246-26.185,5.213-.367,5.678-3.088C102.085,165.881,114.837,190.158,112.374,195.566Z" transform="translate(-68.234 -152.439)" fill="#f9f9f9"/>
          <g id="Grupo_1003347" data-name="Grupo 1003347" transform="translate(65.055 158.357)">
            <path id="Trazado_712925" data-name="Trazado 712925" d="M111.663,214.854s-3.71.892-2.6,2.987,5.717,4.993,6.407,6.318,4.65,5.9,5.749,5.349,4.119-.136,3.284-5.693S116.651,214.179,111.663,214.854Z" transform="translate(-108.853 -214.781)" fill="#111114"/>
          </g>
          <g id="Grupo_1003348" data-name="Grupo 1003348" transform="translate(47.252 168.684)">
            <path id="Trazado_712926" data-name="Trazado 712926" d="M128.367,219.908s2.827,4.919-1.408,7.032-3.461-.957-12.731,3.435-11.386-.43-11.383-1.6,6.114-4.478,8.135-5.45,5.856-2.789,5.856-2.789l11.578-2.273Z" transform="translate(-102.845 -218.266)" fill="#111114"/>
          </g>
          <g id="Grupo_1003349" data-name="Grupo 1003349" transform="translate(56.684 83.905)">
            <path id="Trazado_712927" data-name="Trazado 712927" d="M122.28,189.658s2.913,32.332,3.233,35.974,6.911,31.985,5.577,44.734c0,0-6.431,7.687-13.288,1.168,0,0-5.156-35.751-7.681-43.693-2.507-7.954-4.093-32.8-4.093-32.8Z" transform="translate(-106.028 -189.658)" fill="#632bee"/>
          </g>
          <g id="Grupo_1003350" data-name="Grupo 1003350" transform="translate(42.658 77.014)">
            <path id="Trazado_712928" data-name="Trazado 712928" d="M120.341,191.34s2.469,20.878,4.842,41.6c0,0,6.949,40.677,7.136,46.707,0,0-12.42,5.788-14.936-.095,0,0-6.68-35.7-8.473-43.071s-8.167-30.367-7.578-42.929S120.341,191.34,120.341,191.34Z" transform="translate(-101.295 -187.333)" fill="#632bee"/>
          </g>
          <g id="Grupo_1003351" data-name="Grupo 1003351" transform="translate(53.363 84.666)">
            <path id="Trazado_712929" data-name="Trazado 712929" d="M125.227,274.576c-.187-6.031-7.136-46.707-7.136-46.707-1.6-13.949-3.518-30.281-4.413-37.953l-8.517,3.455a143.766,143.766,0,0,0,3.69,41.539c4.164,17.579,7.886,34.954,9.353,41.918A33.8,33.8,0,0,0,125.227,274.576Z" transform="translate(-104.907 -189.915)" fill="#471bce"/>
          </g>
          <g id="Grupo_1003352" data-name="Grupo 1003352" transform="translate(66.319 84.139)">
            <path id="Trazado_712930" data-name="Trazado 712930" d="M124.707,270.21c1.334-12.749-5.257-41.092-5.577-44.734-.308-3.467-2.963-32.939-3.2-35.74l-6.644,6.1s-.216,23.32,3.2,36.291c3.115,11.8,3.844,35.248,5.432,41.838C121.844,273.618,124.707,270.21,124.707,270.21Z" transform="translate(-109.279 -189.737)" fill="#471bce"/>
          </g>
          <g id="Grupo_1003353" data-name="Grupo 1003353" transform="translate(38.188 23.965)">
            <path id="Trazado_712931" data-name="Trazado 712931" d="M130.561,169.432s7.2,2.643,4.638,14.669-3.31,25.75-1.123,29.5c14.663,25.062,11.738,51.76,11.738,51.76s.741,10.645-17.894,13.182c-6.226.848-25.24-1.046-23.619-13.182,1.624-12.159-2.116-57.752-3.082-62.245s-4.724-13.279,5.954-20.694S123.238,169.8,130.561,169.432Z" transform="translate(-99.787 -169.432)" fill="#e5eeff"/>
          </g>
          <g id="Grupo_1003360" data-name="Grupo 1003360" transform="translate(41.583)">
            <g id="Grupo_1003354" data-name="Grupo 1003354" transform="translate(6.498 19.151)">
              <path id="Trazado_712932" data-name="Trazado 712932" d="M115.293,167.809s-.044,6.134,2.46,9.688c2.276,3.227-11.635,7.978-12.331,4.828a13.754,13.754,0,0,0-2.072-11.652C101.19,167.64,115.293,167.809,115.293,167.809Z" transform="translate(-103.125 -167.807)" fill="#efb185"/>
            </g>
            <g id="Grupo_1003355" data-name="Grupo 1003355" transform="translate(8.818 20.439)">
              <path id="Trazado_712933" data-name="Trazado 712933" d="M116.171,176.869c-1.864-2.643-2.323-6.709-2.43-8.627l-9.833,6.342.009.027c.385.044,7.622,1.04,9.717,5.93C115.676,179.417,116.995,178.042,116.171,176.869Z" transform="translate(-103.908 -168.242)" fill="#dd9569"/>
            </g>
            <g id="Grupo_1003356" data-name="Grupo 1003356" transform="translate(0.887 1.79)">
              <path id="Trazado_712934" data-name="Trazado 712934" d="M102.172,164.921s-1.6,5.743-.622,10.428c1.046,5.044.4,6.161.978,8.39.246.951.483,2.406,1.538,3.209,1.737,1.34,5.041,1.535,9.258-.566,5.094-2.543,9.865-10.482,6.849-16.791S109.56,158.665,102.172,164.921Z" transform="translate(-101.232 -161.949)" fill="#efb185"/>
            </g>
            <g id="Grupo_1003357" data-name="Grupo 1003357" transform="translate(1.119 1.935)">
              <path id="Trazado_712935" data-name="Trazado 712935" d="M120.582,176.626c-2.8-5.672-8.876-12.162-8.867-12.544,0-.234-1.885-1.135-4.007-2.083a11.981,11.981,0,0,0-5.69,2.827,29.116,29.116,0,0,0-.708,3.669c1.428,1.268,4.187,2.593,4.709,3.752a15.4,15.4,0,0,1,.575,9.056c-.631,1.991,3.094,4.38,2.563,6.143a.374.374,0,0,0,0,.228,15.305,15.305,0,0,0,4.01-1.387A15.467,15.467,0,0,0,120.582,176.626Z" transform="translate(-101.31 -161.998)" fill="#e6a376"/>
            </g>
            <g id="Grupo_1003358" data-name="Grupo 1003358" transform="translate(0)">
              <path id="Trazado_712936" data-name="Trazado 712936" d="M100.934,164.027a6.846,6.846,0,0,0,4.665,6.552c2.943,1.049,3.2,5.574,3.156,6.422s-.43,4.733-.03,5.18c.756.865,2.6-2.3,3.66-2.217,2.706.213,1.956,2.792-.157,5.648-2.24,3.029,4.605,3.4,7.453.782,1.514-1.387,2.042-2.175,3.728-6.733,2.442-6.641,1.757-14.207-6.134-17.4S105.753,165.331,100.934,164.027Z" transform="translate(-100.932 -161.345)" fill="#221101"/>
            </g>
            <g id="Grupo_1003359" data-name="Grupo 1003359">
              <path id="Trazado_712937" data-name="Trazado 712937" d="M119.681,186.4c1.514-1.387,2.042-2.175,3.728-6.733,2.442-6.641,1.757-14.207-6.134-17.4s-11.522,3.07-16.341,1.766a6.6,6.6,0,0,0,.255,1.891c2.392.113,8.979.655,10.947,3.239,2.433,3.186,4.579,1.826,4.881,6.087.305,4.1,1.965,9.332-4.632,12.414C115.141,189.2,118.576,187.415,119.681,186.4Z" transform="translate(-100.932 -161.345)" fill="#341c09"/>
            </g>
          </g>
          <g id="Grupo_1003361" data-name="Grupo 1003361" transform="translate(46.763 26.378)">
            <path id="Trazado_712938" data-name="Trazado 712938" d="M106.885,175.557l-4.205,4.433s14.93,2.519,18.374-5.053c.477-1.067-.622-4.35-3.224-4.691C117.829,170.246,118,176.069,106.885,175.557Z" transform="translate(-102.68 -170.246)" fill="#17a89f"/>
          </g>
          <g id="Grupo_1003364" data-name="Grupo 1003364" transform="translate(0 38.307)">
            <path id="Trazado_712939" data-name="Trazado 712939" d="M118.2,174.276c3.02-.148,7.643,3.722,2.066,10.835s-16.827,22.739-20.362,22.635c-2.863-.092-7.225-2.246-.928-11.738S110.766,174.646,118.2,174.276Z" transform="translate(-69.521 -174.272)" fill="#f9f9f9"/>
            <g id="Grupo_1003363" data-name="Grupo 1003363" transform="translate(0 0.512)">
              <g id="Grupo_1003362" data-name="Grupo 1003362">
                <path id="Trazado_712940" data-name="Trazado 712940" d="M97.079,186.131s-4.585-2.237-5.811-2.394-3.4-2.768-3.853-4.279-1.227-5.687.963-4.919,3.064,1.606,4.507,1.882a10,10,0,0,1,4.478,2.729c.587.865,2.463,3.666,2.463,3.666Z" transform="translate(-86.9 -174.445)" fill="#efb185"/>
              </g>
            </g>
            <path id="Trazado_712941" data-name="Trazado 712941" d="M116.131,198.365s-2.818,6.114-7.954,3.612-18.391-20-18.391-20,4.472-2.7,3.648-5.334C93.434,176.643,115.859,192.426,116.131,198.365Z" transform="translate(-81.235 -169.615)" fill="#f9f9f9"/>
          </g>
        </g>
      </g>
    </g>
  </g>
</svg>
