<svg xmlns="http://www.w3.org/2000/svg" xmlns:xlink="http://www.w3.org/1999/xlink" width="85" height="85" viewBox="0 0 85 85">
  <defs>
    <clipPath id="clip-path">
      <rect id="Rectángulo_346613" data-name="Rectángulo 346613" width="85" height="85" transform="translate(180 1982)" fill="#ffa031"/>
    </clipPath>
  </defs>
  <g id="Enmascarar_grupo_998583" data-name="Enmascarar grupo 998583" transform="translate(-180 -1982)" clip-path="url(#clip-path)">
    <g id="prueba-de-sangre" transform="translate(181.545 1982.32)">
      <g id="flat_final" data-name="flat final">
        <path id="Trazado_711699" data-name="Trazado 711699" d="M41.591,38.6c.13-.157.395-.01.568-.029,1.233-.138,2.7-1.249,3.921-2.97s1.791-3.468,1.518-4.668a50.368,50.368,0,0,0-3.018-7.288l-.164-.33s-.753-.058-1.751-.058c-.707,0-1.565.013-2.55.038-2.611.067-6.734.608-7.936.772a1.726,1.726,0,0,0-.873.384c-.429.359-1.863,1.553-3.7,3.081l-2.884,4.741s-7.649,7.58-8.924,9.543a3.474,3.474,0,0,0,.642,4.632c1.143.794,3.624.706,5.709-1.693,1.255-1.444,1.735-1.5,1.735-1.5s-2.19,3.234-2.506,5.145a3.228,3.228,0,0,0,1.653,3.736c1.191.57,3.316.091,4.89-2.082l.126-.174a4.518,4.518,0,0,0-.353,1.484,2.894,2.894,0,0,0,2.131,3.075c1.19.3,3.071-.524,4.167-2.777.875-1.8,2.487-4.687,2.487-4.687A72.439,72.439,0,0,1,41.591,38.6Z" fill="#ffc7b5"/>
        <path id="Trazado_711700" data-name="Trazado 711700" d="M64.987,36.78S53.174,17.549,51.552,15.46c-1.034-1.332-2.354-1.279-4.66-1.186S30.364,16.137,29.667,16.2a7.547,7.547,0,0,0-2.764,1.6c-.768.63-13.225,11.5-14.515,12.941s-3.159,3.477-1.835,5.775c1.42,2.463,3.9,2.594,5.5,1.3,1.523-1.234,13.819-11.33,15.673-12.875a1.068,1.068,0,0,1,.543-.239c1.152-.157,5.277-.7,7.864-.766,3.032-.078,3.865-.012,3.865-.012a50.877,50.877,0,0,1,2.967,7.142c.494,2.165-2.626,6.593-4.876,6.846s-7.543-1.439-10.25-2.78L27.2,43.93c2.887.839,7.3,2.093,8.056,2.331,2.271.713,3.484,1.194,4.165,2.225,1.35,2.044,3.552,6.359,6.613,8.557,4.456,3.2,13.044,3.379,13.044,3.379h.792l12.3-17.114Z" fill="#fcd3c4"/>
        <path id="Trazado_711701" data-name="Trazado 711701" d="M59.87,60.422l12.3-17.113-2.438-2.217L56.046,60.187c1.787.209,3.031.235,3.031.235Z" fill="#ffc7b5"/>
        <path id="Trazado_711702" data-name="Trazado 711702" d="M82.151,47.517,72.991,41,57.529,62.582,66.6,69.223H82.151Z" fill="#d0e5ff"/>
        <path id="Trazado_711703" data-name="Trazado 711703" d="M22.215,22.681l-1.993,3.8,11.147,5.88,1.994-3.808a.606.606,0,0,0-.254-.817L23.034,22.426a.606.606,0,0,0-.819.255Z" fill="#34507d"/>
        <path id="Trazado_711704" data-name="Trazado 711704" d="M7.72,26.667H23.762v35.52a8.021,8.021,0,1,1-16.041,0V26.667Z" transform="translate(24.423 -1.749) rotate(27.847)" fill="#d0e5ff"/>
        <path id="Trazado_711705" data-name="Trazado 711705" d="M2.233,56.87a8.023,8.023,0,0,0,14.192,7.487l10-18.967H8.288Z" fill="#4db1f0"/>
        <path id="Trazado_711706" data-name="Trazado 711706" d="M31.813,35.128c-1.937-.964-6.685-2.983-8.94-3-1.451-.01-4.461-.019-5.5,3.488a4.379,4.379,0,0,0,.6,3.98,10.915,10.915,0,0,0,4.41,3.161c1.638.748,3.457.727,5.324,1.319l4.6-8.713c-.174-.08-.34-.159-.5-.237Z" fill="#fcd3c4"/>
      </g>
      <g id="outline">
        <path id="Trazado_711707" data-name="Trazado 711707" d="M82.907,46.455l-9.161-6.512a1.3,1.3,0,0,0-1.815.3l-.472.658L66,35.94C64.788,33.966,54.168,16.7,52.582,14.661c-1.446-1.863-3.341-1.786-5.743-1.69-1.112.045-4.309.353-6.93.626a1.3,1.3,0,1,0,.27,2.594c3.244-.338,5.9-.579,6.764-.614,2.4-.1,3.013-.045,3.578.683,1.248,1.608,9.281,14.572,13.353,21.2a1.3,1.3,0,0,0,.234.282l5.821,5.293-2.254,3.146A1.3,1.3,0,0,0,69.8,47.7l3.5-4.883,8.1,5.76a1.3,1.3,0,1,0,1.512-2.125Z"/>
        <path id="Trazado_711708" data-name="Trazado 711708" d="M67.367,68.171,59.34,62.292l8.209-11.455a1.3,1.3,0,1,0-2.12-1.519l-7,9.769c-2.047-.118-8.245-.671-11.635-3.1-2.239-1.607-4.041-4.567-5.357-6.727-.333-.547-.648-1.064-.929-1.489-1.041-1.577-2.793-2.116-5.972-3.095-.473-.145-9.239-1.943-11.606-3.1a10.257,10.257,0,0,1-3.888-2.73,3.088,3.088,0,0,1-.415-2.857c.7-2.378,2.478-2.563,4.237-2.553,1.731.012,5.972,1.67,8.368,2.862,2.446,1.217,8.213,3.231,11,2.92,2.039-.229,3.742-2.343,4.38-3.241.5-.7,2.086-3.148,1.622-5.191a50.917,50.917,0,0,0-3.07-7.433,1.3,1.3,0,0,0-1.064-.72c-.092-.008-.989-.07-4,.008-3.072.079-8.109.792-8.322.822a1.3,1.3,0,0,0-.652.289l-1.079.9-5.626-2.967c1.7-1.488,3-2.614,3.311-2.869a9.166,9.166,0,0,1,2.282-1.354c.4-.109,2.278-.391,6.366-.856a1.3,1.3,0,0,0-.295-2.592c-3.813.433-6.089.747-6.763.932A11.156,11.156,0,0,0,26.074,16.8c-.676.554-13.281,11.536-14.66,13.08-1.356,1.518-3.626,4.059-2.027,7.23a5.34,5.34,0,0,0,1.038,1.432L1.079,56.261a9.327,9.327,0,1,0,16.5,8.7l5.974-11.325a3.711,3.711,0,0,0,.663.06,4.928,4.928,0,0,0,2.422-.692,3.56,3.56,0,0,0,2.639,2.572,3.414,3.414,0,0,0,.826.1,6.192,6.192,0,0,0,5.108-3.4c.6-1.065,1.564-2.761,2.179-3.836a2.352,2.352,0,0,1,.945.767c.254.385.543.859.877,1.408,1.432,2.352,3.394,5.573,6.064,7.489,3.255,2.337,8.38,3.17,11.38,3.465l-.184.256a1.3,1.3,0,0,0,.289,1.812l9.069,6.641a1.3,1.3,0,1,0,1.539-2.1Zm-21.7-36.193a6.952,6.952,0,0,1-1.18,2.487,5.031,5.031,0,0,1-2.545,2.159c-1.559.175-5.513-.932-8.3-2.1l.1-.2,2.673-1.655Zm-5.5-6.732c1.49-.039,2.438-.041,3-.035.526,1.1,1.3,2.771,1.863,4.2l-9.133.683a1.3,1.3,0,0,0-.589.192l-2.057,1.274L34.8,28.631a1.3,1.3,0,0,0-.545-1.762l-1.679-.886c1.287-.173,5.169-.675,7.591-.737Zm-8.282,3.322-.949,1.8L22.093,25.7l.949-1.8ZM11.718,35.934c-.742-1.472.212-2.718,1.643-4.319.2-.221.72-.719,1.455-1.395L11.76,36.013C11.746,35.987,11.731,35.961,11.718,35.934Zm3.553,27.813A6.719,6.719,0,1,1,3.386,57.478L19.354,27.207,30.5,33.089c-2.293-1-5.631-2.249-7.622-2.263-1.487-.01-5.44-.037-6.756,4.423a5.656,5.656,0,0,0,.79,5.1,12.259,12.259,0,0,0,4.931,3.592c.107.049.214.095.321.141H12.907a1.3,1.3,0,1,0,0,2.608h11.36ZM26.883,49.323a4.867,4.867,0,0,1-1.89,1.584l2.8-5.31,1.611.34S27.458,48.563,26.883,49.323ZM32.933,51c-.963,1.719-2.47,2.189-3.026,2.051-.256-.064-.937-.234-.834-1.615a4.054,4.054,0,0,1,.221-.977c.81-1.08,2.824-3.8,2.824-3.8l2.79.865S33.468,50.043,32.933,51Z"/>
      </g>
    </g>
  </g>
</svg>
