<svg xmlns="http://www.w3.org/2000/svg" width="400" height="229" viewBox="0 0 400 229">
  <g id="Grupo_1002595" data-name="Grupo 1002595" transform="translate(-180 -11636)">
    <path id="Rectángulo_346667" data-name="Rectángulo 346667" d="M0,0H278A122,122,0,0,1,400,122v70a0,0,0,0,1,0,0H0a0,0,0,0,1,0,0V0A0,0,0,0,1,0,0Z" transform="translate(180 11673)" fill="#4db1f0" opacity="0.15"/>
    <g id="Grupo_1002594" data-name="Grupo 1002594" transform="translate(94.295 11551.273)">
      <g id="Grupo_1002453" data-name="Grupo 1002453" transform="translate(311.886 232.863)">
        <g id="Grupo_1002452" data-name="Grupo 1002452">
          <path id="Trazado_711778" data-name="Trazado 711778" d="M1551.472,1193.854a2.4,2.4,0,1,0-4.788-.461l-7.376,76.552h4.833Z" transform="translate(-1539.308 -1191.217)" fill="#223554"/>
        </g>
      </g>
      <g id="Grupo_1002454" data-name="Grupo 1002454" transform="translate(296.201 254.963)">
        <path id="Trazado_711779" data-name="Trazado 711779" d="M1493.137,1361.1h-68.582a2.406,2.406,0,0,1,0-4.812h68.582a2.406,2.406,0,0,1,0,4.812Z" transform="translate(-1422.15 -1356.29)" fill="#223554"/>
      </g>
      <g id="Grupo_1002457" data-name="Grupo 1002457" transform="translate(201.109 242.948)">
        <g id="Grupo_1002455" data-name="Grupo 1002455" transform="translate(0 0)">
          <path id="Trazado_711780" data-name="Trazado 711780" d="M725.8,1290.175h0a8.161,8.161,0,0,0,1.816-8.778l-5.263-13.276a2.5,2.5,0,0,0-4.644,0l-5.263,13.276a8.16,8.16,0,0,0,1.816,8.778h0A8.16,8.16,0,0,0,725.8,1290.175Z" transform="translate(-711.87 -1266.544)" fill="#94d9d4"/>
        </g>
        <g id="Grupo_1002456" data-name="Grupo 1002456" transform="translate(4.551 9.205)">
          <path id="Trazado_711781" data-name="Trazado 711781" d="M752.027,1345.749h0a3.61,3.61,0,0,0,.8-3.882L750.5,1336a1.1,1.1,0,0,0-2.054,0l-2.328,5.871a3.609,3.609,0,0,0,.8,3.882h0A3.61,3.61,0,0,0,752.027,1345.749Z" transform="translate(-745.867 -1335.299)" fill="#fff"/>
        </g>
      </g>
      <g id="Grupo_1002458" data-name="Grupo 1002458" transform="translate(140.434 203.457)">
        <path id="Trazado_711782" data-name="Trazado 711782" d="M296.488,977.987H261.867a3.208,3.208,0,0,1,0-6.416h34.621a3.208,3.208,0,0,1,0,6.416Z" transform="translate(-258.66 -971.571)" fill="#4569a9"/>
      </g>
      <g id="Grupo_1002459" data-name="Grupo 1002459" transform="translate(291.641 165.63)">
        <path id="Trazado_711783" data-name="Trazado 711783" d="M1388.545,700.909h0a2.359,2.359,0,0,0,2.756,1.232l1.461-.409a26.362,26.362,0,0,1,4.574,14.842v57.143a4.661,4.661,0,0,0,4.658,4.661l52.672.042a4.662,4.662,0,0,0,4.665-4.661V696.815a9.482,9.482,0,0,1,1.592-5.258h0a1.781,1.781,0,0,0-1.615-2.532h-54.257a21.43,21.43,0,0,0-15.51,6.638h0A4.446,4.446,0,0,0,1388.545,700.909Z" transform="translate(-1388.09 -689.025)" fill="#d9ecf6"/>
      </g>
      <g id="Grupo_1002460" data-name="Grupo 1002460" transform="translate(300.887 215.513)">
        <path id="Trazado_711784" data-name="Trazado 711784" d="M1461.811,1101.091l52.672.042a4.662,4.662,0,0,0,4.665-4.661V1069.53c-22.722-.319-38.111-10-62-7.5v34.4A4.661,4.661,0,0,0,1461.811,1101.091Z" transform="translate(-1457.153 -1061.621)" fill="#4569a9"/>
      </g>
      <g id="Grupo_1002461" data-name="Grupo 1002461" transform="translate(300.887 215.513)">
        <path id="Trazado_711785" data-name="Trazado 711785" d="M1457.153,1069.53v26.9a4.661,4.661,0,0,0,4.658,4.661l52.672.042a4.662,4.662,0,0,0,4.665-4.661V1062C1495.336,1059.61,1479.948,1069.3,1457.153,1069.53Z" transform="translate(-1457.153 -1061.62)" fill="#86a7e0"/>
      </g>
      <g id="Grupo_1002462" data-name="Grupo 1002462" transform="translate(344.475 174.109)">
        <path id="Trazado_711786" data-name="Trazado 711786" d="M1793.747,826.989V754.044a1.688,1.688,0,0,0-1.688-1.688h-7.641a1.688,1.688,0,0,0-1.688,1.688v72.944a2.206,2.206,0,0,0,2.206,2.206h6.606A2.206,2.206,0,0,0,1793.747,826.989Z" transform="translate(-1782.729 -752.356)" fill="#fff"/>
      </g>
      <g id="Grupo_1002463" data-name="Grupo 1002463" transform="translate(338.742 167.5)">
        <path id="Trazado_711787" data-name="Trazado 711787" d="M1761.671,706.12h-20.2a1.564,1.564,0,0,1-1.564-1.564h0a1.564,1.564,0,0,1,1.564-1.564h20.2a1.564,1.564,0,0,1,1.564,1.564h0A1.563,1.563,0,0,1,1761.671,706.12Z" transform="translate(-1739.905 -702.992)" fill="#fff"/>
      </g>
      <g id="Grupo_1002464" data-name="Grupo 1002464" transform="translate(167.033 87.936)">
        <path id="Trazado_711788" data-name="Trazado 711788" d="M628.209,146.633a3.333,3.333,0,0,1-4.162,2.359l-81.354-23.811q-.685-.2-1.37-.364c-21.738-5.2-38.6,19.221-26.764,38.183l20.561,32.944a42.08,42.08,0,0,1-5.943,52.034h0a42.08,42.08,0,0,1-59.509,0h0a42.08,42.08,0,0,1-5.943-52.034l7.419-11.886q.831-1.331,1.643-2.675a4.521,4.521,0,0,0-2.745-6.7l-8.637-2.252a3.554,3.554,0,0,1-2.18-5.217l6.935-12a3.554,3.554,0,0,1,5.609-.715l5.732,5.82a4.529,4.529,0,0,0,7.318-1.229,187.123,187.123,0,0,0,8.815-22.111,40.766,40.766,0,0,1,51.441-26.309l82.368,26.4a3.334,3.334,0,0,1,2.209,4.014Z" transform="translate(-457.343 -108.696)" fill="#d9ecf6"/>
      </g>
      <g id="Grupo_1002465" data-name="Grupo 1002465" transform="translate(167.039 187.695)">
        <path id="Trazado_711789" data-name="Trazado 711789" d="M540.837,855.966a42.077,42.077,0,0,1-11.624,37.4h0a42.08,42.08,0,0,1-59.509,0h0a42.052,42.052,0,0,1-12.247-32.245C490.26,865.189,506.7,848.026,540.837,855.966Z" transform="translate(-457.384 -853.841)" fill="#2f9b96"/>
      </g>
      <g id="Grupo_1002466" data-name="Grupo 1002466" transform="translate(167.037 187.694)">
        <path id="Trazado_711790" data-name="Trazado 711790" d="M541.45,861.137A42.053,42.053,0,0,1,529.2,893.354h0a42.08,42.08,0,0,1-59.509,0h0a42.078,42.078,0,0,1-11.635-37.338C492.284,847.948,508.729,865.1,541.45,861.137Z" transform="translate(-457.371 -853.829)" fill="#94d9d4"/>
      </g>
      <g id="Grupo_1002469" data-name="Grupo 1002469" transform="translate(176.077 91.224)">
        <g id="Grupo_1002468" data-name="Grupo 1002468" transform="translate(0 0)">
          <g id="Grupo_1002467" data-name="Grupo 1002467">
            <path id="Trazado_711791" data-name="Trazado 711791" d="M532.367,221.811l6.69-11.785c2.256-3.973,4.43-8.009,6.488-12.1a229.73,229.73,0,0,0,10.918-25.191q1.161-3.232,2.22-6.5l1.021-3.28c.326-1.069.647-2.265.975-3.226a34.351,34.351,0,0,1,5.8-11.215,31.755,31.755,0,0,1,21.748-12.129h.007a1.569,1.569,0,0,0-.248-3.128,35.516,35.516,0,0,0-24.87,12.5,39.007,39.007,0,0,0-7.141,12.407l-2.264,6.354q-1.168,3.13-2.439,6.219a223.4,223.4,0,0,1-11.711,24.013q-3.271,5.833-6.842,11.491l-7.21,11.474a3.995,3.995,0,1,0,6.765,4.25C532.3,221.917,532.34,221.858,532.367,221.811Z" transform="translate(-524.897 -133.255)" fill="#fff"/>
          </g>
        </g>
      </g>
      <g id="Grupo_1002470" data-name="Grupo 1002470" transform="translate(160.941 129.123)">
        <path id="Trazado_711792" data-name="Trazado 711792" d="M422.642,434.7l-8.279-2.81a3.717,3.717,0,0,1-2.023-5.379l4.806-8.317a3.717,3.717,0,0,1,5.679-.925l6.512,5.755a4.937,4.937,0,0,1,1.044,6.1l-1.84,3.305A4.935,4.935,0,0,1,422.642,434.7Z" transform="translate(-411.84 -416.337)" fill="#223554"/>
      </g>
      <g id="Grupo_1002471" data-name="Grupo 1002471" transform="translate(168.523 133.216)">
        <path id="Trazado_711793" data-name="Trazado 711793" d="M472.737,462.428c-1.359,2.351-5.121.675-4.094-1.839a3.6,3.6,0,0,1,.217-.443l6.935-12a3.529,3.529,0,0,1,.276-.41c1.666-2.145,5,.278,3.637,2.629Z" transform="translate(-468.467 -446.908)" fill="#fff"/>
      </g>
      <g id="Grupo_1002473" data-name="Grupo 1002473" transform="translate(165.322 202.423)">
        <g id="Grupo_1002472" data-name="Grupo 1002472" transform="translate(0 0)">
          <path id="Trazado_711794" data-name="Trazado 711794" d="M448.8,972.329h79.344a4.243,4.243,0,0,0,4.243-4.243h0a4.243,4.243,0,0,0-4.243-4.243H448.8a4.243,4.243,0,0,0-4.243,4.243h0A4.243,4.243,0,0,0,448.8,972.329Z" transform="translate(-444.559 -963.843)" fill="#334668"/>
        </g>
      </g>
      <g id="Grupo_1002474" data-name="Grupo 1002474" transform="translate(154.009 84.727)">
        <path id="Trazado_711795" data-name="Trazado 711795" d="M363.268,294.061a3.208,3.208,0,0,1-3.207-3.208V87.935a3.207,3.207,0,1,1,6.413,0V290.852A3.208,3.208,0,0,1,363.268,294.061Z" transform="translate(-360.061 -84.727)" fill="#86a7e0"/>
      </g>
      <g id="Grupo_1002475" data-name="Grupo 1002475" transform="translate(154.009 290.852)">
        <rect id="Rectángulo_346661" data-name="Rectángulo 346661" width="6.413" height="8.671" transform="translate(0)" fill="#4569a9"/>
      </g>
      <g id="Grupo_1002476" data-name="Grupo 1002476" transform="translate(152.241 201.691)">
        <path id="Trazado_711796" data-name="Trazado 711796" d="M346.852,963.351a4.975,4.975,0,1,1,4.975,4.975A4.975,4.975,0,0,1,346.852,963.351Z" transform="translate(-346.852 -958.376)" fill="#334668"/>
      </g>
      <g id="Grupo_1002478" data-name="Grupo 1002478" transform="translate(122.159 298.203)">
        <g id="Grupo_1002477" data-name="Grupo 1002477" transform="translate(0 0)">
          <path id="Trazado_711797" data-name="Trazado 711797" d="M122.159,1692.654H253.324v-5.571a7.818,7.818,0,0,0-7.818-7.817H129.977a7.818,7.818,0,0,0-7.818,7.817Z" transform="translate(-122.159 -1679.266)" fill="#86a7e0"/>
        </g>
      </g>
      <g id="Grupo_1002480" data-name="Grupo 1002480" transform="translate(186.627 286.421)">
        <g id="Grupo_1002479" data-name="Grupo 1002479">
          <path id="Trazado_711798" data-name="Trazado 711798" d="M603.694,1603.044h45.22v-5.768a6.014,6.014,0,0,0-6.014-6.014H609.708a6.014,6.014,0,0,0-6.014,6.014Z" transform="translate(-603.694 -1591.262)" fill="#ffd26b"/>
        </g>
      </g>
      <g id="Grupo_1002482" data-name="Grupo 1002482" transform="translate(198.788 272.374)">
        <g id="Grupo_1002481" data-name="Grupo 1002481" transform="translate(0 0)">
          <rect id="Rectángulo_346662" data-name="Rectángulo 346662" width="20.898" height="14.047" fill="#ffd26b"/>
        </g>
      </g>
      <g id="Grupo_1002484" data-name="Grupo 1002484" transform="translate(198.788 281.047)">
        <g id="Grupo_1002483" data-name="Grupo 1002483" transform="translate(0 0)">
          <rect id="Rectángulo_346663" data-name="Rectángulo 346663" width="20.898" height="5.374" fill="#ffb746"/>
        </g>
      </g>
      <g id="Grupo_1002486" data-name="Grupo 1002486" transform="translate(186.627 292.83)">
        <g id="Grupo_1002485" data-name="Grupo 1002485" transform="translate(0 0)">
          <rect id="Rectángulo_346664" data-name="Rectángulo 346664" width="45.22" height="5.374" fill="#ffb746"/>
        </g>
      </g>
      <g id="Grupo_1002487" data-name="Grupo 1002487" transform="translate(138.521 198.439)">
        <path id="Trazado_711799" data-name="Trazado 711799" d="M247.579,950.543a3.209,3.209,0,0,1-3-4.351l3.824-10.039a3.206,3.206,0,1,1,5.992,2.286l-3.824,10.039A3.206,3.206,0,0,1,247.579,950.543Z" transform="translate(-244.371 -934.089)" fill="#86a7e0"/>
      </g>
      <g id="Grupo_1002493" data-name="Grupo 1002493" transform="translate(327.054 180.954)">
        <g id="Grupo_1002488" data-name="Grupo 1002488" transform="translate(0 62.49)">
          <path id="Trazado_711800" data-name="Trazado 711800" d="M1661.059,1272.651H1653.8a1.2,1.2,0,1,1,0-2.4h7.255a1.2,1.2,0,1,1,0,2.4Z" transform="translate(-1652.601 -1270.248)" fill="#334668"/>
        </g>
        <g id="Grupo_1002489" data-name="Grupo 1002489" transform="translate(0 46.867)">
          <path id="Trazado_711801" data-name="Trazado 711801" d="M1661.059,1155.959H1653.8a1.2,1.2,0,1,1,0-2.4h7.255a1.2,1.2,0,1,1,0,2.4Z" transform="translate(-1652.601 -1153.556)" fill="#334668"/>
        </g>
        <g id="Grupo_1002490" data-name="Grupo 1002490" transform="translate(0 31.245)">
          <path id="Trazado_711802" data-name="Trazado 711802" d="M1661.059,1039.271H1653.8a1.2,1.2,0,1,1,0-2.4h7.255a1.2,1.2,0,1,1,0,2.4Z" transform="translate(-1652.601 -1036.868)" fill="#334668"/>
        </g>
        <g id="Grupo_1002491" data-name="Grupo 1002491" transform="translate(0 15.622)">
          <path id="Trazado_711803" data-name="Trazado 711803" d="M1661.059,922.579H1653.8a1.2,1.2,0,1,1,0-2.4h7.255a1.2,1.2,0,1,1,0,2.4Z" transform="translate(-1652.601 -920.176)" fill="#334668"/>
        </g>
        <g id="Grupo_1002492" data-name="Grupo 1002492">
          <path id="Trazado_711804" data-name="Trazado 711804" d="M1661.059,805.89H1653.8a1.2,1.2,0,1,1,0-2.4h7.255a1.2,1.2,0,1,1,0,2.4Z" transform="translate(-1652.601 -803.487)" fill="#334668"/>
        </g>
      </g>
      <g id="Grupo_1002494" data-name="Grupo 1002494" transform="translate(332.397 132.822)">
        <path id="Trazado_711805" data-name="Trazado 711805" d="M1700.429,457.395h0a4.637,4.637,0,0,0,1.031-4.988l-2.991-7.544a1.42,1.42,0,0,0-2.639,0l-2.991,7.544a4.636,4.636,0,0,0,1.032,4.988h0A4.637,4.637,0,0,0,1700.429,457.395Z" transform="translate(-1692.512 -443.966)" fill="#86a7e0"/>
      </g>
      <g id="Grupo_1002496" data-name="Grupo 1002496" transform="translate(293.186 232.865)">
        <g id="Grupo_1002495" data-name="Grupo 1002495">
          <path id="Trazado_711806" data-name="Trazado 711806" d="M1419.15,1194.092a2.405,2.405,0,1,0-4.724-.91l-14.794,76.776h4.9Z" transform="translate(-1399.632 -1191.232)" fill="#4569a9"/>
        </g>
      </g>
      <g id="Grupo_1002498" data-name="Grupo 1002498" transform="translate(361.11 232.865)">
        <g id="Grupo_1002497" data-name="Grupo 1002497" transform="translate(0 0)">
          <path id="Trazado_711807" data-name="Trazado 711807" d="M1911.749,1193.18a2.405,2.405,0,1,0-4.723.91l14.618,75.866h4.9Z" transform="translate(-1906.982 -1191.23)" fill="#4569a9"/>
        </g>
      </g>
      <g id="Grupo_1002499" data-name="Grupo 1002499" transform="translate(298.483 232.863)">
        <path id="Trazado_711808" data-name="Trazado 711808" d="M1504.225,1196.026H1441.6a2.406,2.406,0,0,1,0-4.812h62.627a2.406,2.406,0,0,1,0,4.812Z" transform="translate(-1439.193 -1191.214)" fill="#4569a9"/>
      </g>
      <g id="Grupo_1002593" data-name="Grupo 1002593" transform="translate(367.603 183.588)">
        <g id="Grupo_1002501" data-name="Grupo 1002501" transform="translate(50.687 6.814)">
          <g id="Grupo_1002500" data-name="Grupo 1002500">
            <path id="Trazado_711809" data-name="Trazado 711809" d="M2343.208,874.066l-6.818.423a2.454,2.454,0,0,0-2.3,2.408,46.81,46.81,0,0,0,.869,9.894l.773,3.928a4.93,4.93,0,0,0,5.066,3.974h0a9.278,9.278,0,0,0,8.708-7.664l.093-.527-.244-5.117-1.656-.71.031-.3a9.115,9.115,0,0,0-.265-3.3A4.131,4.131,0,0,0,2343.208,874.066Z" transform="translate(-2334.085 -874.058)" fill="#f89a82"/>
          </g>
        </g>
        <g id="Grupo_1002503" data-name="Grupo 1002503" transform="translate(23.3 26.096)">
          <g id="Grupo_1002502" data-name="Grupo 1002502">
            <path id="Trazado_711810" data-name="Trazado 711810" d="M2134.648,1033.295l-1.43-15.191c-1.193-.4-4.019,5.2-3.674,9.721h0l.01.086q.024.276.063.545l.536,4.6Z" transform="translate(-2129.515 -1018.083)" fill="#f89a82"/>
          </g>
        </g>
        <g id="Grupo_1002505" data-name="Grupo 1002505" transform="translate(23.633 18.617)">
          <g id="Grupo_1002504" data-name="Grupo 1002504">
            <path id="Trazado_711811" data-name="Trazado 711811" d="M2155.625,988.844h-16.189a3,3,0,0,1-2.938-2.4l-4.458-22.075a1.791,1.791,0,0,1,1.755-2.144h16.189a3,3,0,0,1,2.938,2.4l4.457,22.075A1.79,1.79,0,0,1,2155.625,988.844Z" transform="translate(-2132.004 -962.221)" fill="#4569a9"/>
          </g>
        </g>
        <g id="Grupo_1002536" data-name="Grupo 1002536" transform="translate(26.401 21.187)">
          <g id="Grupo_1002507" data-name="Grupo 1002507" transform="translate(9.827 2.617)">
            <g id="Grupo_1002506" data-name="Grupo 1002506">
              <path id="Trazado_711812" data-name="Trazado 711812" d="M2226.672,1002.146h6.373a.592.592,0,0,0,0-1.184h-6.373a.592.592,0,0,0,0,1.184Z" transform="translate(-2226.08 -1000.962)" fill="#fff"/>
            </g>
          </g>
          <g id="Grupo_1002509" data-name="Grupo 1002509" transform="translate(11.73)">
            <g id="Grupo_1002508" data-name="Grupo 1002508">
              <path id="Trazado_711813" data-name="Trazado 711813" d="M2240.883,982.6h1.5a.592.592,0,0,0,0-1.185h-1.5a.592.592,0,0,0,0,1.185Z" transform="translate(-2240.291 -981.415)" fill="#fff"/>
            </g>
          </g>
          <g id="Grupo_1002511" data-name="Grupo 1002511" transform="translate(9.226)">
            <g id="Grupo_1002510" data-name="Grupo 1002510">
              <path id="Trazado_711814" data-name="Trazado 711814" d="M2222.186,982.6h.284a.592.592,0,0,0,0-1.185h-.284a.592.592,0,0,0,0,1.185Z" transform="translate(-2221.594 -981.415)" fill="#fff"/>
            </g>
          </g>
          <g id="Grupo_1002513" data-name="Grupo 1002513" transform="translate(10.452 5.343)">
            <g id="Grupo_1002512" data-name="Grupo 1002512">
              <path id="Trazado_711815" data-name="Trazado 711815" d="M2231.344,1022.511h2.623a.592.592,0,0,0,0-1.185h-2.623a.592.592,0,0,0,0,1.185Z" transform="translate(-2230.752 -1021.326)" fill="#fff"/>
            </g>
          </g>
          <g id="Grupo_1002515" data-name="Grupo 1002515" transform="translate(11.43 10.362)">
            <g id="Grupo_1002514" data-name="Grupo 1002514">
              <path id="Trazado_711816" data-name="Trazado 711816" d="M2238.643,1060h3.982a.592.592,0,0,0,0-1.184h-3.982a.592.592,0,0,0,0,1.184Z" transform="translate(-2238.051 -1058.813)" fill="#fff"/>
            </g>
          </g>
          <g id="Grupo_1002517" data-name="Grupo 1002517" transform="translate(12.056 13.088)">
            <g id="Grupo_1002516" data-name="Grupo 1002516">
              <path id="Trazado_711817" data-name="Trazado 711817" d="M2243.317,1080.362h4.906a.592.592,0,0,0,0-1.185h-4.906a.592.592,0,0,0,0,1.185Z" transform="translate(-2242.726 -1079.177)" fill="#fff"/>
            </g>
          </g>
          <g id="Grupo_1002519" data-name="Grupo 1002519" transform="translate(0.6 2.617)">
            <g id="Grupo_1002518" data-name="Grupo 1002518">
              <path id="Trazado_711818" data-name="Trazado 711818" d="M2157.753,1002.146h5.2a.592.592,0,0,0,0-1.184h-5.2a.592.592,0,0,0,0,1.184Z" transform="translate(-2157.161 -1000.962)" fill="#fff"/>
            </g>
          </g>
          <g id="Grupo_1002521" data-name="Grupo 1002521">
            <g id="Grupo_1002520" data-name="Grupo 1002520">
              <path id="Trazado_711819" data-name="Trazado 711819" d="M2153.27,982.6h4a.592.592,0,0,0,0-1.185h-4a.592.592,0,0,0,0,1.185Z" transform="translate(-2152.678 -981.415)" fill="#fff"/>
            </g>
          </g>
          <g id="Grupo_1002523" data-name="Grupo 1002523" transform="translate(4.853 5.343)">
            <g id="Grupo_1002522" data-name="Grupo 1002522">
              <path id="Trazado_711820" data-name="Trazado 711820" d="M2189.522,1022.511h1.84a.592.592,0,0,0,0-1.185h-1.84a.592.592,0,0,0,0,1.185Z" transform="translate(-2188.93 -1021.326)" fill="#fff"/>
            </g>
          </g>
          <g id="Grupo_1002525" data-name="Grupo 1002525" transform="translate(1.226 5.343)">
            <g id="Grupo_1002524" data-name="Grupo 1002524">
              <path id="Trazado_711821" data-name="Trazado 711821" d="M2162.428,1022.511h1.408a.592.592,0,0,0,0-1.185h-1.408a.592.592,0,0,0,0,1.185Z" transform="translate(-2161.836 -1021.326)" fill="#fff"/>
            </g>
          </g>
          <g id="Grupo_1002527" data-name="Grupo 1002527" transform="translate(3.364 15.743)">
            <g id="Grupo_1002526" data-name="Grupo 1002526">
              <path id="Trazado_711822" data-name="Trazado 711822" d="M2178.4,1100.191h5.548a.592.592,0,0,0,0-1.185H2178.4a.592.592,0,0,0,0,1.185Z" transform="translate(-2177.803 -1099.006)" fill="#fff"/>
            </g>
          </g>
          <g id="Grupo_1002529" data-name="Grupo 1002529" transform="translate(7.96 18.469)">
            <g id="Grupo_1002528" data-name="Grupo 1002528">
              <path id="Trazado_711823" data-name="Trazado 711823" d="M2212.729,1120.555h1.11a.592.592,0,0,0,0-1.185h-1.11a.592.592,0,0,0,0,1.185Z" transform="translate(-2212.137 -1119.37)" fill="#fff"/>
            </g>
          </g>
          <g id="Grupo_1002531" data-name="Grupo 1002531" transform="translate(3.934 18.469)">
            <g id="Grupo_1002530" data-name="Grupo 1002530">
              <path id="Trazado_711824" data-name="Trazado 711824" d="M2182.657,1120.555h1.807a.592.592,0,0,0,0-1.185h-1.807a.592.592,0,0,0,0,1.185Z" transform="translate(-2182.066 -1119.37)" fill="#fff"/>
            </g>
          </g>
          <g id="Grupo_1002533" data-name="Grupo 1002533" transform="translate(2.203 10.362)">
            <g id="Grupo_1002532" data-name="Grupo 1002532">
              <path id="Trazado_711825" data-name="Trazado 711825" d="M2169.727,1060h2.714a.592.592,0,0,0,0-1.184h-2.714a.592.592,0,0,0,0,1.184Z" transform="translate(-2169.135 -1058.813)" fill="#fff"/>
            </g>
          </g>
          <g id="Grupo_1002535" data-name="Grupo 1002535" transform="translate(2.829 13.088)">
            <g id="Grupo_1002534" data-name="Grupo 1002534">
              <path id="Trazado_711826" data-name="Trazado 711826" d="M2174.4,1080.362h4.625a.592.592,0,0,0,0-1.185H2174.4a.592.592,0,0,0,0,1.185Z" transform="translate(-2173.807 -1079.177)" fill="#fff"/>
            </g>
          </g>
        </g>
        <g id="Grupo_1002538" data-name="Grupo 1002538" transform="translate(23.633 30.855)">
          <g id="Grupo_1002537" data-name="Grupo 1002537">
            <path id="Trazado_711827" data-name="Trazado 711827" d="M2135.631,1063.02l-3.626-3.814,2.074-5.576.519,2.569a.9.9,0,0,0,1.615.348l.767-1.068a.98.98,0,0,1,1.348-.237h0a.98.98,0,0,1,.336,1.221Z" transform="translate(-2132.005 -1053.63)" fill="#f89a82"/>
          </g>
        </g>
        <g id="Grupo_1002541" data-name="Grupo 1002541" transform="translate(34.722 84.893)">
          <g id="Grupo_1002540" data-name="Grupo 1002540">
            <g id="Grupo_1002539" data-name="Grupo 1002539">
              <path id="Trazado_711828" data-name="Trazado 711828" d="M2215.479,1497.726a50.322,50.322,0,0,0,.693-6.664c.094-2-1.408-33.1-1.335-33.749l9.45-.051-2.708,34.285a52.907,52.907,0,0,0,.026,5.681Z" transform="translate(-2214.834 -1457.262)" fill="#223554"/>
            </g>
          </g>
        </g>
        <g id="Grupo_1002543" data-name="Grupo 1002543" transform="translate(33.956 120.234)">
          <g id="Grupo_1002542" data-name="Grupo 1002542">
            <path id="Trazado_711829" data-name="Trazado 711829" d="M2217.133,1724.389a24,24,0,0,1-.553-3.147l-5.463.169a7.478,7.478,0,0,1-2.005,3.447C2209.07,1727.771,2214.587,1724.628,2217.133,1724.389Z" transform="translate(-2209.111 -1721.242)" fill="#94d9d4"/>
          </g>
        </g>
        <g id="Grupo_1002545" data-name="Grupo 1002545" transform="translate(30.722 123.381)">
          <g id="Grupo_1002544" data-name="Grupo 1002544">
            <path id="Trazado_711830" data-name="Trazado 711830" d="M2196.7,1749.37a25.111,25.111,0,0,0-.483-4.622c-2.546.239-8.063,3.382-8.022.469a16.783,16.783,0,0,1-2.379,1.707c-.874.556-.854,1.628-.854,2.446Z" transform="translate(-2184.958 -1744.748)" fill="#d9ecf6"/>
          </g>
        </g>
        <g id="Grupo_1002547" data-name="Grupo 1002547" transform="translate(0 101.738)">
          <g id="Grupo_1002546" data-name="Grupo 1002546">
            <path id="Trazado_711831" data-name="Trazado 711831" d="M1959.378,1583.711c-1.074.03-2.8-1.416-3.745,0-.7,1.052,1.172,2.467,2.036,3.088,2.532,1.821,4.31,1.317,7.377,2.48,1.342.508,2.33,1.722,3.854,1.694,2.053-.037,3.186-3.168,2.657-4.952C1970.385,1582.059,1961.124,1585.465,1959.378,1583.711Z" transform="translate(-1955.48 -1583.089)" fill="#d9ecf6"/>
          </g>
        </g>
        <g id="Grupo_1002550" data-name="Grupo 1002550" transform="translate(3.44 96)">
          <g id="Grupo_1002549" data-name="Grupo 1002549">
            <g id="Grupo_1002548" data-name="Grupo 1002548">
              <path id="Trazado_711832" data-name="Trazado 711832" d="M1993.932,1549.706a6.168,6.168,0,0,0-3-1.91,12.2,12.2,0,0,0-5.146-.2c-1.146.129-2.873.417-3.864-.26a2.282,2.282,0,0,1-.741-.821,17.343,17.343,0,0,0,4.173-.38c6.022-1.341,6.826-5,8.029-5.909l5.434,2.112-2.153,2.455A17.567,17.567,0,0,0,1993.932,1549.706Z" transform="translate(-1981.178 -1540.224)" fill="#94d9d4"/>
            </g>
          </g>
        </g>
        <g id="Grupo_1002553" data-name="Grupo 1002553" transform="translate(13.04 64.916)">
          <g id="Grupo_1002552" data-name="Grupo 1002552">
            <g id="Grupo_1002551" data-name="Grupo 1002551">
              <path id="Trazado_711833" data-name="Trazado 711833" d="M2076.409,1320.914c-3.137,8.656-11.552,16.071-18.925,24.578-.539-1.8-2.21-2.756-4.6-3.165l15.2-29.954a7.924,7.924,0,0,1,6.9-4.31,56.44,56.44,0,0,1,12.479,1.087h0l-3.154,1.9A18.891,18.891,0,0,0,2076.409,1320.914Z" transform="translate(-2052.879 -1308.047)" fill="#223554"/>
            </g>
          </g>
        </g>
        <g id="Grupo_1002556" data-name="Grupo 1002556" transform="translate(57.552 17.241)">
          <g id="Grupo_1002555" data-name="Grupo 1002555">
            <g id="Grupo_1002554" data-name="Grupo 1002554">
              <path id="Trazado_711834" data-name="Trazado 711834" d="M2389.742,951.944l.409.051a4.716,4.716,0,0,1,4.113,5.186l-.557,5.172a8.626,8.626,0,0,1-.948,3.1l-1.215,2.3-4.946-4.455a3.741,3.741,0,0,1-1.233-2.976l.324-6.264Z" transform="translate(-2385.36 -951.944)" fill="#f89a82"/>
            </g>
          </g>
        </g>
        <g id="Grupo_1002559" data-name="Grupo 1002559" transform="translate(29.862 62.183)">
          <g id="Grupo_1002558" data-name="Grupo 1002558">
            <g id="Grupo_1002557" data-name="Grupo 1002557">
              <path id="Trazado_711835" data-name="Trazado 711835" d="M2178.53,1310.39h25.641a17.421,17.421,0,0,0,17.421-17.422v-5.334h0a66.27,66.27,0,0,1-17.677,2.4h-14.647a10.739,10.739,0,0,0-10.739,10.738Z" transform="translate(-2178.53 -1287.635)" fill="#d9ecf6"/>
            </g>
          </g>
        </g>
        <g id="Grupo_1002562" data-name="Grupo 1002562" transform="translate(71.201 33.641)">
          <g id="Grupo_1002561" data-name="Grupo 1002561">
            <g id="Grupo_1002560" data-name="Grupo 1002560">
              <path id="Trazado_711836" data-name="Trazado 711836" d="M2494.583,1102.788h-4.311l-2.309-9.895a21.266,21.266,0,0,1,1.3-14.265l1.738-3.543a1.139,1.139,0,0,1,2.087.077,67.6,67.6,0,0,1,4.665,23.714C2497.822,1101,2496.585,1102.788,2494.583,1102.788Z" transform="translate(-2487.308 -1074.439)" fill="#a9adc2"/>
            </g>
          </g>
        </g>
        <g id="Grupo_1002565" data-name="Grupo 1002565" transform="translate(37.812 26.975)">
          <g id="Grupo_1002564" data-name="Grupo 1002564">
            <g id="Grupo_1002563" data-name="Grupo 1002563">
              <path id="Trazado_711837" data-name="Trazado 711837" d="M2267.918,1026.146a14.625,14.625,0,0,0-3.52-1.091,40.379,40.379,0,0,0-14.246.5h0a8.512,8.512,0,0,0-6.108,8.384c4.683,21.65.229,22.376-6.135,32.226a10.489,10.489,0,0,1,1.327.427,51.993,51.993,0,0,0,16.016,3.341h10.609a5.2,5.2,0,0,0,5.12-4.307l6-33.765h0a5.611,5.611,0,0,0-2.883-2.952Z" transform="translate(-2237.91 -1024.648)" fill="#d9ecf6"/>
            </g>
          </g>
        </g>
        <g id="Grupo_1002582" data-name="Grupo 1002582" transform="translate(24.3 85.263)">
          <g id="Grupo_1002567" data-name="Grupo 1002567" transform="translate(22.502 0)">
            <g id="Grupo_1002566" data-name="Grupo 1002566" transform="translate(0)">
              <rect id="Rectángulo_346665" data-name="Rectángulo 346665" width="2.777" height="19.271" transform="translate(2.777 19.271) rotate(180)" fill="#4569a9"/>
            </g>
          </g>
          <g id="Grupo_1002569" data-name="Grupo 1002569" transform="translate(21.167 18.459)">
            <g id="Grupo_1002568" data-name="Grupo 1002568" transform="translate(0 0)">
              <rect id="Rectángulo_346666" data-name="Rectángulo 346666" width="5.448" height="15.989" transform="translate(5.448 15.989) rotate(180)" fill="#a9adc2"/>
            </g>
          </g>
          <g id="Grupo_1002571" data-name="Grupo 1002571" transform="translate(23.891 31.252)">
            <g id="Grupo_1002570" data-name="Grupo 1002570">
              <path id="Trazado_711838" data-name="Trazado 711838" d="M2315.438,1693.459l21.328,2.854a2.948,2.948,0,0,1,2.556,2.922h-23.885Z" transform="translate(-2315.438 -1693.459)" fill="#86a7e0"/>
            </g>
          </g>
          <g id="Grupo_1002573" data-name="Grupo 1002573" transform="translate(0.006 31.252)">
            <g id="Grupo_1002572" data-name="Grupo 1002572">
              <path id="Trazado_711839" data-name="Trazado 711839" d="M2160.919,1699.234h-23.885a2.948,2.948,0,0,1,2.556-2.922l21.328-2.854Z" transform="translate(-2137.034 -1693.459)" fill="#a9adc2"/>
            </g>
          </g>
          <g id="Grupo_1002575" data-name="Grupo 1002575" transform="translate(45.769 37.027)">
            <g id="Grupo_1002574" data-name="Grupo 1002574">
              <path id="Trazado_711840" data-name="Trazado 711840" d="M2481.708,1742.309h0a2.857,2.857,0,0,0,2.856-2.857h0a2.856,2.856,0,0,0-2.856-2.857h-2.856v2.857A2.857,2.857,0,0,0,2481.708,1742.309Z" transform="translate(-2478.851 -1736.595)" fill="#334668"/>
            </g>
          </g>
          <g id="Grupo_1002577" data-name="Grupo 1002577" transform="translate(26.922 37.027)">
            <g id="Grupo_1002576" data-name="Grupo 1002576">
              <path id="Trazado_711841" data-name="Trazado 711841" d="M2340.937,1742.309h0a2.857,2.857,0,0,0,2.856-2.857h0a2.856,2.856,0,0,0-2.856-2.857h-2.856v2.857A2.856,2.856,0,0,0,2340.937,1742.309Z" transform="translate(-2338.08 -1736.595)" fill="#334668"/>
            </g>
          </g>
          <g id="Grupo_1002579" data-name="Grupo 1002579" transform="translate(0 37.027)">
            <g id="Grupo_1002578" data-name="Grupo 1002578">
              <path id="Trazado_711842" data-name="Trazado 711842" d="M2139.843,1742.309h0a2.857,2.857,0,0,0,2.857-2.857h0a2.857,2.857,0,0,0-2.857-2.857h-2.857v2.857A2.857,2.857,0,0,0,2139.843,1742.309Z" transform="translate(-2136.986 -1736.595)" fill="#223554"/>
            </g>
          </g>
          <g id="Grupo_1002581" data-name="Grupo 1002581" transform="translate(15.146 37.027)">
            <g id="Grupo_1002580" data-name="Grupo 1002580">
              <path id="Trazado_711843" data-name="Trazado 711843" d="M2252.978,1742.309h0a2.857,2.857,0,0,0,2.857-2.857h0a2.856,2.856,0,0,0-2.857-2.857h-2.857v2.857A2.857,2.857,0,0,0,2252.978,1742.309Z" transform="translate(-2250.121 -1736.595)" fill="#223554"/>
            </g>
          </g>
        </g>
        <g id="Grupo_1002585" data-name="Grupo 1002585" transform="translate(22.959 47.816)">
          <g id="Grupo_1002584" data-name="Grupo 1002584">
            <g id="Grupo_1002583" data-name="Grupo 1002583">
              <path id="Trazado_711844" data-name="Trazado 711844" d="M2126.981,1217.769a2.118,2.118,0,0,0,2.144,1.827h38.723a11.677,11.677,0,0,0,11.521-9.775l3.244-19.653a8.472,8.472,0,0,0-8.359-9.851h-10.447a12.356,12.356,0,0,0-12.152,10.118l-2.782,15.106a12.187,12.187,0,0,1-11.985,9.979h-7.88A2.038,2.038,0,0,0,2126.981,1217.769Z" transform="translate(-2126.97 -1180.317)" fill="#e4595c"/>
            </g>
          </g>
        </g>
        <g id="Grupo_1002587" data-name="Grupo 1002587" transform="translate(23.936 39.13)">
          <g id="Grupo_1002586" data-name="Grupo 1002586">
            <path id="Trazado_711845" data-name="Trazado 711845" d="M2146.013,1125.321l-8.25,4.685-3.5-12.627c.285-1.332,1.877-2.207,3.8-1.863Z" transform="translate(-2134.266 -1115.44)" fill="#d9ecf6"/>
          </g>
        </g>
        <g id="Grupo_1002590" data-name="Grupo 1002590" transform="translate(27.306 29.608)">
          <g id="Grupo_1002589" data-name="Grupo 1002589">
            <g id="Grupo_1002588" data-name="Grupo 1002588">
              <path id="Trazado_711846" data-name="Trazado 711846" d="M2179.077,1044.314l-17.864,19.013c-4.5,4.575.546,10.6,4.267,8.121.015-.082,17.7-12.621,17.7-12.621Z" transform="translate(-2159.437 -1044.314)" fill="#d9ecf6"/>
            </g>
          </g>
        </g>
        <g id="Grupo_1002592" data-name="Grupo 1002592" transform="translate(47.98 0)">
          <g id="Grupo_1002591" data-name="Grupo 1002591">
            <path id="Trazado_711847" data-name="Trazado 711847" d="M2336.154,829.8a11.023,11.023,0,0,1,1.2,7.538c-.238,1.194-.55,2.407-.912,3.632a7.325,7.325,0,0,1-6.3,5.565,15.476,15.476,0,0,1-4.275-.085l-.044-.009a3.713,3.713,0,0,1-2.727-4.471c.356-1.786-.057-3.7-1.532-3.984a1.052,1.052,0,0,0-1.156.426l-.534,2.1a.936.936,0,0,1-1.5.493h0a.937.937,0,0,1-.343-.694l-.072-2.28a5.587,5.587,0,0,0-1.565-3.7l-.019-.02a12.811,12.811,0,0,1-1.653-2.106,5.983,5.983,0,0,1,3.448-8.776h0a5.907,5.907,0,0,1,5.914,1.469h0a5.46,5.46,0,0,0,3.412,1.581l4,.331a5.894,5.894,0,0,1,4.658,3Z" transform="translate(-2313.861 -823.162)" fill="#334668"/>
          </g>
        </g>
      </g>
    </g>
  </g>
</svg>
