<svg xmlns="http://www.w3.org/2000/svg" xmlns:xlink="http://www.w3.org/1999/xlink" width="88" height="88" viewBox="0 0 88 88">
  <defs>
    <clipPath id="clip-path">
      <rect id="Rectángulo_346671" data-name="Rectángulo 346671" width="88" height="88" transform="translate(318 12013)" fill="#fff"/>
    </clipPath>
  </defs>
  <g id="Grupo_1003491" data-name="Grupo 1003491" transform="translate(-407 -12000)">
    <circle id="Elipse_8332" data-name="Elipse 8332" cx="42.5" cy="42.5" r="42.5" transform="translate(409 12003)" fill="#fff"/>
    <g id="Enmascarar_grupo_998586" data-name="Enmascarar grupo 998586" transform="translate(89 -13)" clip-path="url(#clip-path)">
      <g id="layer1" transform="translate(344.347 12013)">
        <g id="g10977" transform="translate(0 0)">
          <g id="g10545" transform="translate(0 0)">
            <path id="path7695" d="M-3051.206,3459.125a8.849,8.849,0,0,0-8.826,8.827,8.849,8.849,0,0,0,8.826,8.827,8.85,8.85,0,0,0,8.827-8.827A8.849,8.849,0,0,0-3051.206,3459.125Z" transform="translate(3077.685 -3419.406)" fill="#484666"/>
            <g id="g10530">
              <g id="Grupo_1002597" data-name="Grupo 1002597">
                <path id="path7689" d="M-3057.358,3426.628a14.733,14.733,0,0,0-14.711,14.711,14.733,14.733,0,0,0,14.711,14.711,14.733,14.733,0,0,0,14.711-14.711A14.733,14.733,0,0,0-3057.358,3426.628Z" transform="translate(3075.011 -3426.628)" fill="#484666"/>
                <path id="path7701" d="M-3066.184,3475.976a5.907,5.907,0,0,0-5.884,5.884,5.907,5.907,0,0,0,5.884,5.884,5.907,5.907,0,0,0,5.884-5.884A5.907,5.907,0,0,0-3066.184,3475.976Z" transform="translate(3075.011 -3415.662)" fill="#484666"/>
                <path id="path7709" d="M-3059.23,3489.215a4.435,4.435,0,0,0-4.413,4.414,4.435,4.435,0,0,0,4.413,4.413,4.436,4.436,0,0,0,4.413-4.413A4.436,4.436,0,0,0-3059.23,3489.215Z" transform="translate(3076.883 -3412.719)" fill="#484666"/>
                <path id="path7723" d="M-3070.062,3450.7a4.435,4.435,0,0,0-4.413,4.413,4.436,4.436,0,0,0,4.413,4.414,4.436,4.436,0,0,0,4.413-4.414A4.436,4.436,0,0,0-3070.062,3450.7Z" transform="translate(3074.476 -3421.279)" fill="#484666"/>
              </g>
              <path id="path7733" d="M-3057.893,3429.035a11.746,11.746,0,0,0-11.769,11.769,11.747,11.747,0,0,0,11.769,11.769,11.747,11.747,0,0,0,11.769-11.769A11.746,11.746,0,0,0-3057.893,3429.035Z" transform="translate(3075.546 -3426.093)" fill="#b1eaf1"/>
              <path id="path7737" d="M-3051.741,3461.533a5.862,5.862,0,0,1,5.884,5.884,5.863,5.863,0,0,1-5.884,5.884,5.862,5.862,0,0,1-5.884-5.884A5.862,5.862,0,0,1-3051.741,3461.533Z" transform="translate(3078.22 -3418.871)" fill="#00bbd3"/>
              <path id="path7741" d="M-3066.719,3478.383a2.92,2.92,0,0,1,2.942,2.942,2.92,2.92,0,0,1-2.942,2.942,2.92,2.92,0,0,1-2.942-2.942A2.92,2.92,0,0,1-3066.719,3478.383Z" transform="translate(3075.546 -3415.126)" fill="#b1eaf1"/>
              <path id="path7745" d="M-3059.765,3491.623a1.45,1.45,0,0,1,1.471,1.471,1.449,1.449,0,0,1-1.471,1.471,1.449,1.449,0,0,1-1.471-1.471A1.449,1.449,0,0,1-3059.765,3491.623Z" transform="translate(3077.418 -3412.185)" fill="#00bbd3"/>
              <path id="path7749" d="M-3070.6,3453.107a1.45,1.45,0,0,1,1.471,1.471,1.45,1.45,0,0,1-1.471,1.471,1.45,1.45,0,0,1-1.471-1.471A1.449,1.449,0,0,1-3070.6,3453.107Z" transform="translate(3075.011 -3420.743)" fill="#00bbd3"/>
              <path id="path7729" d="M-3057.934,3431.442a1.471,1.471,0,0,0-1.413,1.023,1.473,1.473,0,0,0,.094,1.124,1.471,1.471,0,0,0,.86.727,6.2,6.2,0,0,1,4.132,4.741,1.471,1.471,0,0,0,1.729,1.155,1.471,1.471,0,0,0,1.155-1.729,9.156,9.156,0,0,0-6.119-6.97,1.461,1.461,0,0,0-.437-.071Z" transform="translate(3077.823 -3425.558)" fill="#484666"/>
              <path id="circle12110-5-0" d="M-3052.618,3497.692a1.471,1.471,0,0,0,1.471,1.471,1.471,1.471,0,0,0,1.471-1.471,1.471,1.471,0,0,0-1.471-1.471A1.471,1.471,0,0,0-3052.618,3497.692Z" transform="translate(3079.333 -3411.163)" fill="#484666"/>
            </g>
          </g>
          <g id="g10919" transform="translate(7.762 4.962)">
            <path id="path11533-56" d="M-12190.527,13762.579a10.44,10.44,0,0,0-10.525,10.525,10.439,10.439,0,0,0,10.525,10.525,9.815,9.815,0,0,0,1.795-.344,10.289,10.289,0,0,1-8.729-10.178,10.3,10.3,0,0,1,8.729-10.18,8.975,8.975,0,0,0-1.795-.344Z" transform="translate(12201.053 -13762.579)" fill="#fff" opacity="0.3"/>
          </g>
          <g id="g10930" transform="translate(6.744 63.574)">
            <path id="path10928" d="M-3041.381,3433.777a2.605,2.605,0,0,0-2.626,2.626,2.6,2.6,0,0,0,2.626,2.626,2.537,2.537,0,0,0,.448-.085,2.569,2.569,0,0,1-2.178-2.54,2.57,2.57,0,0,1,2.178-2.54,2.273,2.273,0,0,0-.448-.085Z" transform="translate(3044.007 -3433.777)" fill="#fff" opacity="0.3"/>
          </g>
          <g id="g10936" transform="translate(21.953 43.672)">
            <path id="path10934" d="M-6094.926,6881.29a5.221,5.221,0,0,0-5.263,5.263,5.22,5.22,0,0,0,5.263,5.263,4.932,4.932,0,0,0,.9-.172,5.145,5.145,0,0,1-4.364-5.089,5.148,5.148,0,0,1,4.364-5.09,4.494,4.494,0,0,0-.9-.172Z" transform="translate(6100.189 -6881.29)" fill="#fff" opacity="0.2"/>
          </g>
          <g id="g10942" transform="translate(16.529 79.692)">
            <path id="path10940" d="M-1523.732,1720.322a1.305,1.305,0,0,0-1.316,1.316,1.305,1.305,0,0,0,1.316,1.316,1.233,1.233,0,0,0,.224-.043,1.286,1.286,0,0,1-1.091-1.272,1.287,1.287,0,0,1,1.091-1.272,1.124,1.124,0,0,0-.224-.043Z" transform="translate(1525.047 -1720.322)" fill="#fff" opacity="0.2"/>
          </g>
          <g id="g10950" transform="translate(3.29 32.618)">
            <path id="path10948" d="M-1523.732,1720.322a1.305,1.305,0,0,0-1.316,1.316,1.305,1.305,0,0,0,1.316,1.316,1.233,1.233,0,0,0,.224-.043,1.286,1.286,0,0,1-1.091-1.272,1.287,1.287,0,0,1,1.091-1.272,1.124,1.124,0,0,0-.224-.043Z" transform="translate(1525.047 -1720.322)" fill="#fff" opacity="0.2"/>
          </g>
        </g>
      </g>
    </g>
  </g>
</svg>
